<?xml version="1.0" encoding="UTF-8"?>
<!DOCTYPE svg PUBLIC "-//W3C//DTD SVG 1.1//EN" "http://www.w3.org/Graphics/SVG/1.1/DTD/svg11.dtd">
<svg xmlns="http://www.w3.org/2000/svg" version="1.1" width="512px" height="512px" style="shape-rendering:geometricPrecision; text-rendering:geometricPrecision; image-rendering:optimizeQuality; fill-rule:evenodd; clip-rule:evenodd" xmlns:xlink="http://www.w3.org/1999/xlink">
<g><path style="opacity:0.984" fill="#030301" d="M 232.5,-0.5 C 247.833,-0.5 263.167,-0.5 278.5,-0.5C 378.272,12.4494 449.438,64.4494 492,155.5C 502.136,180.379 508.636,206.046 511.5,232.5C 511.5,247.833 511.5,263.167 511.5,278.5C 498.549,378.273 446.549,449.439 355.5,492C 330.314,502.296 304.314,508.796 277.5,511.5C 262.833,511.5 248.167,511.5 233.5,511.5C 133.234,498.959 61.734,446.959 19,355.5C 8.86392,330.621 2.36392,304.954 -0.5,278.5C -0.5,263.167 -0.5,247.833 -0.5,232.5C 12.4486,132.729 64.4486,61.5622 155.5,19C 180.377,8.86452 206.043,2.36452 232.5,-0.5 Z"/></g>
<g><path style="opacity:0.999" fill="#f1e266" d="M 234.5,11.5 C 239.5,11.5 244.5,11.5 249.5,11.5C 249.5,27.5 249.5,43.5 249.5,59.5C 218.838,60.3325 190.005,67.9992 163,82.5C 154.751,69.2488 146.918,55.7488 139.5,42C 143.242,38.6163 147.576,35.9497 152.5,34C 178.736,22.1101 206.069,14.6101 234.5,11.5 Z"/></g>
<g><path style="opacity:1" fill="#f7f4ae" d="M 261.5,11.5 C 300.023,12.7139 336.356,22.2139 370.5,40C 371.022,40.5613 371.355,41.228 371.5,42C 364.082,55.7488 356.249,69.2488 348,82.5C 321.003,68.042 292.17,60.3754 261.5,59.5C 261.5,43.5 261.5,27.5 261.5,11.5 Z"/></g>
<g><path style="opacity:0.999" fill="#f1e266" d="M 382.5,47.5 C 416.267,67.4331 443.267,94.2664 463.5,128C 450,136.167 436.5,144.333 423,152.5C 406.667,126.833 385.667,105.833 360,89.5C 359.743,86.9832 360.41,84.6498 362,82.5C 368.845,70.8058 375.678,59.1391 382.5,47.5 Z"/></g>
<g><path style="opacity:1" fill="#f7f4ae" d="M 127.5,47.5 C 135.143,58.7685 142.31,70.4352 149,82.5C 150.59,84.6498 151.257,86.9832 151,89.5C 125.833,105.333 105.333,125.833 89.5,151C 86.9832,151.257 84.6498,150.59 82.5,149C 70.6676,142.252 59.0009,135.252 47.5,128C 67.6918,94.6418 94.3585,67.8084 127.5,47.5 Z"/></g>
<g><path style="opacity:1" fill="#f4c253" d="M 235.5,71.5 C 306.361,66.8148 363.194,92.4814 406,148.5C 442.273,202.346 449.606,260.013 428,321.5C 422.052,336.066 414.552,349.732 405.5,362.5C 394.309,332.14 372.975,313.307 341.5,306C 328.188,304.975 314.854,304.142 301.5,303.5C 298.196,293.285 295.696,282.952 294,272.5C 307.375,256.427 318.375,238.76 327,219.5C 327.684,212.149 327.518,204.815 326.5,197.5C 328.407,184.962 331.074,172.628 334.5,160.5C 350.614,154.27 355.114,143.27 348,127.5C 340.912,118.916 332.078,116.416 321.5,120C 311.028,126.122 306.861,135.288 309,147.5C 303.261,152.95 297.428,158.283 291.5,163.5C 285.267,155.381 279.267,147.048 273.5,138.5C 278.729,116.56 270.063,106.393 247.5,108C 234.135,114.555 230.135,124.721 235.5,138.5C 229.733,147.048 223.733,155.381 217.5,163.5C 211.186,158.353 205.019,153.02 199,147.5C 201.441,125.29 191.607,116.123 169.5,120C 157.521,127.277 154.354,137.444 160,150.5C 163.85,155.677 168.85,159.343 175,161.5C 179.81,180.546 182.143,199.879 182,219.5C 191.201,240.086 203.034,258.92 217.5,276C 214.596,285.452 211.929,294.952 209.5,304.5C 174.474,298.896 144.974,308.896 121,334.5C 114.536,343.092 109.37,352.426 105.5,362.5C 72.0642,314.225 62.8975,261.559 78,204.5C 98.8333,141 141,98.8333 204.5,78C 214.854,75.2306 225.187,73.0639 235.5,71.5 Z"/></g>
<g><path style="opacity:1" fill="#f2efaa" d="M 250.5,119.5 C 260.659,118.158 264.826,122.491 263,132.5C 260.103,137.155 255.937,138.655 250.5,137C 245.845,134.103 244.345,129.937 246,124.5C 247.025,122.313 248.525,120.646 250.5,119.5 Z"/></g>
<g><path style="opacity:1" fill="#f3f0ab" d="M 174.5,130.5 C 184.659,129.158 188.826,133.491 187,143.5C 183.768,148.868 179.268,150.368 173.5,148C 166.711,141.687 167.045,135.853 174.5,130.5 Z"/></g>
<g><path style="opacity:0.999" fill="#f1efaa" d="M 328.5,129.5 C 337.506,130.009 341.006,134.676 339,143.5C 338.167,145.667 336.667,147.167 334.5,148C 328.315,150.002 323.815,148.169 321,142.5C 319.953,136.061 322.453,131.728 328.5,129.5 Z"/></g>
<g><path style="opacity:1" fill="#f1e266" d="M 40.5,139.5 C 55.0774,146.231 69.0774,154.064 82.5,163C 67.9992,190.005 60.3325,218.838 59.5,249.5C 43.5,249.5 27.5,249.5 11.5,249.5C 12.4189,210.489 22.0856,173.822 40.5,139.5 Z"/></g>
<g><path style="opacity:1" fill="#f7f4ad" d="M 467.5,139.5 C 468.822,139.33 469.989,139.663 471,140.5C 489.102,174.573 498.602,210.907 499.5,249.5C 483.5,249.5 467.5,249.5 451.5,249.5C 450.667,218.838 443.001,190.005 428.5,163C 441.564,155.141 454.564,147.308 467.5,139.5 Z"/></g>
<g><path style="opacity:0.999" fill="#f1e266" d="M 243.5,147.5 C 247.011,148.962 250.678,149.962 254.5,150.5C 258.313,149.794 261.98,148.961 265.5,148C 271.667,156.833 277.833,165.667 284,174.5C 286.72,178.644 290.22,179.477 294.5,177C 302,170.167 309.5,163.333 317,156.5C 320.934,158.231 322.268,161.231 321,165.5C 318.852,174.108 317.019,182.775 315.5,191.5C 274.499,191.667 233.499,191.5 192.5,191C 190.456,180.869 188.456,170.703 186.5,160.5C 186.709,159.914 187.043,159.414 187.5,159C 189.055,157.711 190.721,157.044 192.5,157C 199.833,163.667 207.167,170.333 214.5,177C 216.695,178.373 219.029,178.706 221.5,178C 229.21,168.069 236.544,157.902 243.5,147.5 Z"/></g>
<g><path style="opacity:1" fill="#f7f4ae" d="M 193.5,203.5 C 234.167,203.5 274.833,203.5 315.5,203.5C 315.666,208.179 315.499,212.845 315,217.5C 304.241,242.205 288.741,263.372 268.5,281C 259.167,281.667 249.833,281.667 240.5,281C 220.259,263.372 204.759,242.205 194,217.5C 193.501,212.845 193.334,208.179 193.5,203.5 Z"/></g>
<g><path style="opacity:1" fill="#f7f4ae" d="M 11.5,261.5 C 27.5,261.5 43.5,261.5 59.5,261.5C 60.3754,292.17 68.042,321.003 82.5,348C 69.2488,356.249 55.7488,364.082 42,371.5C 38.6163,367.758 35.9497,363.424 34,358.5C 20.0416,327.666 12.5416,295.333 11.5,261.5 Z"/></g>
<g><path style="opacity:0.999" fill="#f1e266" d="M 451.5,261.5 C 467.5,261.5 483.5,261.5 499.5,261.5C 498.29,300.007 488.79,336.34 471,370.5C 470.439,371.022 469.772,371.355 469,371.5C 455.271,364.052 441.771,356.219 428.5,348C 442.958,321.003 450.625,292.17 451.5,261.5 Z"/></g>
<g><path style="opacity:1" fill="#eedf65" d="M 282.5,283.5 C 283.117,283.611 283.617,283.944 284,284.5C 286.649,292.758 288.649,301.091 290,309.5C 278.653,321.014 267.153,332.348 255.5,343.5C 243.847,332.348 232.347,321.014 221,309.5C 222.025,301.248 224.192,293.248 227.5,285.5C 230.654,288.243 233.988,290.743 237.5,293C 248.833,293.667 260.167,293.667 271.5,293C 275.612,290.288 279.278,287.122 282.5,283.5 Z"/></g>
<g><path style="opacity:0.999" fill="#f0e165" d="M 172.5,316.5 C 174.5,316.5 176.5,316.5 178.5,316.5C 181.483,348.298 194.483,375.131 217.5,397C 226.779,404.805 237.446,409.638 249.5,411.5C 249.5,420.833 249.5,430.167 249.5,439.5C 226.697,439.341 204.863,434.674 184,425.5C 181.353,389.034 177.52,352.7 172.5,316.5 Z"/></g>
<g><path style="opacity:1" fill="#f5f2ac" d="M 190.5,316.5 C 197.841,316.334 205.174,316.5 212.5,317C 216,320.5 219.5,324 223,327.5C 223.667,328.167 223.667,328.833 223,329.5C 214.272,334.964 212.106,342.464 216.5,352C 211.269,365.026 215.435,372.859 229,375.5C 232.642,375.287 236.142,374.453 239.5,373C 245.377,369.558 250.71,365.391 255.5,360.5C 260.29,365.391 265.623,369.558 271.5,373C 288.391,378.991 296.558,373.157 296,355.5C 295.362,354.391 294.862,353.225 294.5,352C 298.894,342.464 296.728,334.964 288,329.5C 287.333,328.833 287.333,328.167 288,327.5C 291.5,324 295,320.5 298.5,317C 305.826,316.5 313.159,316.334 320.5,316.5C 318.101,339.206 309.934,359.54 296,377.5C 268.983,406.796 241.983,406.796 215,377.5C 201.066,359.54 192.899,339.206 190.5,316.5 Z"/></g>
<g><path style="opacity:0.999" fill="#f0e166" d="M 332.5,316.5 C 335.617,315.927 337.617,317.094 338.5,320C 333.527,355.096 329.36,390.262 326,425.5C 305.542,434.816 284.042,439.483 261.5,439.5C 261.334,430.161 261.5,420.827 262,411.5C 281.572,407.206 297.239,396.872 309,380.5C 322.66,361.358 330.493,340.024 332.5,316.5 Z"/></g>
<g><path style="opacity:0.999" fill="#f0e165" d="M 159.5,320.5 C 160.725,321.152 161.392,322.319 161.5,324C 166.282,355.701 169.449,387.534 171,419.5C 148.871,408.695 130.371,393.529 115.5,374C 121.308,348.708 135.975,330.875 159.5,320.5 Z"/></g>
<g><path style="opacity:0.999" fill="#f0e165" d="M 349.5,320.5 C 368.15,326.647 381.65,338.647 390,356.5C 393.126,362.863 394.792,369.529 395,376.5C 379.204,394.213 360.87,408.547 340,419.5C 339.565,411.48 339.899,403.48 341,395.5C 343.588,370.463 346.421,345.463 349.5,320.5 Z"/></g>
<g><path style="opacity:0.997" fill="#ecdd64" d="M 226.5,340.5 C 234.737,341.456 241.404,345.289 246.5,352C 242.714,356.786 238.047,360.453 232.5,363C 230.5,363.667 228.5,363.667 226.5,363C 225.978,362.439 225.645,361.772 225.5,361C 227.271,358.513 229.438,356.346 232,354.5C 232.627,349.755 230.627,346.422 226,344.5C 225.421,343.072 225.588,341.738 226.5,340.5 Z"/></g>
<g><path style="opacity:0.996" fill="#eadc63" d="M 277.5,340.5 C 279.857,340.337 282.19,340.503 284.5,341C 285.022,341.561 285.355,342.228 285.5,343C 283.729,345.487 281.562,347.654 279,349.5C 278.333,351.167 278.333,352.833 279,354.5C 280.815,356.405 282.815,358.072 285,359.5C 285.684,360.784 285.517,361.951 284.5,363C 280.88,363.841 277.546,363.174 274.5,361C 270.848,358.347 267.514,355.347 264.5,352C 268.413,347.581 272.746,343.748 277.5,340.5 Z"/></g>
<g><path style="opacity:0.999" fill="#f1e266" d="M 86.5,359.5 C 87.8221,359.33 88.9887,359.663 90,360.5C 106.144,385.644 126.644,406.477 151.5,423C 144.082,436.749 136.249,450.249 128,463.5C 94.5967,443.219 67.7634,416.386 47.5,383C 60.5635,375.141 73.5635,367.308 86.5,359.5 Z"/></g>
<g><path style="opacity:1" fill="#f7f4ad" d="M 422.5,358.5 C 436.28,366.44 449.947,374.607 463.5,383C 443.333,416.5 416.5,443.333 383,463.5C 374.751,450.249 366.918,436.749 359.5,423C 385.067,405.934 406.067,384.434 422.5,358.5 Z"/></g>
<g><path style="opacity:1" fill="#f7f4ae" d="M 162.5,428.5 C 189.612,443.195 218.612,450.862 249.5,451.5C 249.5,467.5 249.5,483.5 249.5,499.5C 210.75,498.73 174.417,489.063 140.5,470.5C 139.686,468.048 140.186,465.715 142,463.5C 148.845,451.806 155.678,440.139 162.5,428.5 Z"/></g>
<g><path style="opacity:1" fill="#f1e266" d="M 347.5,428.5 C 355.143,439.768 362.31,451.435 369,463.5C 370.964,465.853 371.464,468.353 370.5,471C 336.356,488.786 300.022,498.286 261.5,499.5C 261.5,483.5 261.5,467.5 261.5,451.5C 292.12,450.68 320.787,443.014 347.5,428.5 Z"/></g>
</svg>
