<?xml version="1.0" encoding="UTF-8"?>
<!DOCTYPE svg PUBLIC "-//W3C//DTD SVG 1.1//EN" "http://www.w3.org/Graphics/SVG/1.1/DTD/svg11.dtd">
<svg xmlns="http://www.w3.org/2000/svg" version="1.1" width="2000px" height="2000px" style="shape-rendering:geometricPrecision; text-rendering:geometricPrecision; image-rendering:optimizeQuality; fill-rule:evenodd; clip-rule:evenodd" xmlns:xlink="http://www.w3.org/1999/xlink">
<g><path style="opacity:0.987" fill="#0033ad" d="M 986.5,75.5 C 1014.93,72.4606 1035.76,83.4606 1049,108.5C 1058.55,137.527 1051.05,161.027 1026.5,179C 996.898,193.281 971.731,187.781 951,162.5C 934.812,133.57 938.979,108.07 963.5,86C 970.579,81.0371 978.246,77.5371 986.5,75.5 Z"/></g>
<g><path style="opacity:0.984" fill="#0032ad" d="M 1473.5,125.5 C 1494.01,126.182 1508.51,135.849 1517,154.5C 1523.74,179.983 1515.57,198.816 1492.5,211C 1465.25,219.124 1445.75,210.291 1434,184.5C 1427.3,151.188 1440.46,131.521 1473.5,125.5 Z"/></g>
<g><path style="opacity:0.984" fill="#0032ad" d="M 509.5,128.5 C 528.564,125.791 544.064,131.791 556,146.5C 567.651,167.576 565.484,187.076 549.5,205C 525.767,221.943 503.934,219.777 484,198.5C 473.112,181.386 472.778,164.053 483,146.5C 489.948,137.618 498.781,131.618 509.5,128.5 Z"/></g>
<g><path style="opacity:0.99" fill="#0032ad" d="M 1339.5,320.5 C 1373.93,317.122 1398.76,330.789 1414,361.5C 1425.6,396.695 1416.43,424.861 1386.5,446C 1350.21,463.383 1319.37,456.55 1294,425.5C 1276.68,393.19 1280.51,363.69 1305.5,337C 1315.46,328.519 1326.79,323.019 1339.5,320.5 Z"/></g>
<g><path style="opacity:0.99" fill="#0032ad" d="M 639.5,321.5 C 671.313,320.534 694.147,334.201 708,362.5C 719.771,397.279 710.937,425.446 681.5,447C 648.351,463.834 618.851,459.001 593,432.5C 577.542,411.339 574.208,388.339 583,363.5C 594.368,339.28 613.201,325.28 639.5,321.5 Z"/></g>
<g><path style="opacity:0.991" fill="#0032ad" d="M 985.5,376.5 C 1027.22,373.257 1056.38,390.59 1073,428.5C 1083.81,465.742 1074.31,496.575 1044.5,521C 1011.45,541.106 979.121,540.106 947.5,518C 919.709,492.337 911.876,461.504 924,425.5C 936.125,398.53 956.625,382.197 985.5,376.5 Z"/></g>
<g><path style="opacity:0.988" fill="#0032ad" d="M 1747.5,507.5 C 1782.99,509.827 1802.66,528.66 1806.5,564C 1804.35,594.477 1788.35,612.81 1758.5,619C 1733.66,621.497 1714.5,612.331 1701,591.5C 1688.58,564.374 1693.08,540.541 1714.5,520C 1724.45,512.745 1735.45,508.578 1747.5,507.5 Z"/></g>
<g><path style="opacity:0.988" fill="#0032ad" d="M 243.5,510.5 C 271.405,511.189 290.239,524.522 300,550.5C 306.176,576.984 298.342,598.15 276.5,614C 248.493,628.397 223.659,624.23 202,601.5C 185.866,576.45 186.866,552.117 205,528.5C 215.715,517.771 228.548,511.771 243.5,510.5 Z"/></g>
<g><path style="opacity:0.995" fill="#0032ad" d="M 823.5,589.5 C 881.293,585.314 925.793,607.314 957,655.5C 981.667,701.5 981.667,747.5 957,793.5C 926.078,841.543 881.911,863.377 824.5,859C 780.096,852.73 746.263,830.563 723,792.5C 704.26,758.175 700.26,722.175 711,684.5C 724.702,643.464 751.536,614.63 791.5,598C 802.048,594.198 812.715,591.365 823.5,589.5 Z"/></g>
<g><path style="opacity:0.995" fill="#0032ad" d="M 1142.5,589.5 C 1198.52,585.927 1242.02,607.261 1273,653.5C 1301.44,706.719 1298.44,758.052 1264,807.5C 1225.71,851.817 1177.88,867.317 1120.5,854C 1063.67,835.506 1031.17,796.673 1023,737.5C 1019.63,679.727 1042.47,635.893 1091.5,606C 1107.61,597.351 1124.61,591.851 1142.5,589.5 Z"/></g>
<g><path style="opacity:0.991" fill="#0032ad" d="M 1456.5,647.5 C 1497.51,643.91 1526.68,660.577 1544,697.5C 1556.52,738.271 1545.35,770.771 1510.5,795C 1472.69,813.862 1438.86,808.362 1409,778.5C 1388.9,752.547 1384.9,724.214 1397,693.5C 1409.46,668.531 1429.29,653.198 1456.5,647.5 Z"/></g>
<g><path style="opacity:0.991" fill="#0032ad" d="M 516.5,649.5 C 556.29,646.632 584.79,662.965 602,698.5C 614.493,736.678 605.326,768.511 574.5,794C 542.964,813.616 511.63,813.283 480.5,793C 448.979,766.079 440.812,733.246 456,694.5C 468.666,669.417 488.833,654.417 516.5,649.5 Z"/></g>
<g><path style="opacity:0.995" fill="#0032ad" d="M 1306.5,863.5 C 1368.76,862.031 1413.6,889.031 1441,944.5C 1459.97,994.431 1453.64,1040.76 1422,1083.5C 1381.71,1128.62 1332.21,1143.12 1273.5,1127C 1226.88,1109.61 1197.38,1076.78 1185,1028.5C 1174.16,963.955 1196.33,914.455 1251.5,880C 1268.9,870.919 1287.23,865.419 1306.5,863.5 Z"/></g>
<g><path style="opacity:0.995" fill="#0032ad" d="M 677.5,864.5 C 737.75,865.313 780.916,892.647 807,946.5C 824.632,992.431 820.298,1036.1 794,1077.5C 759.301,1122.91 713.467,1141.41 656.5,1133C 597.78,1118.95 561.946,1082.45 549,1023.5C 541.203,956.917 566.703,908.084 625.5,877C 642.245,869.823 659.579,865.656 677.5,864.5 Z"/></g>
<g><path style="opacity:0.99" fill="#0032ad" d="M 1695.5,930.5 C 1730.43,928.198 1754.93,942.864 1769,974.5C 1778.33,1007.52 1769.49,1034.35 1742.5,1055C 1721.35,1067.04 1699.35,1068.7 1676.5,1060C 1645.48,1043.35 1632.98,1017.52 1639,982.5C 1647.5,953.828 1666.33,936.495 1695.5,930.5 Z"/></g>
<g><path style="opacity:0.989" fill="#0032ad" d="M 285.5,933.5 C 320.137,931.891 344.304,946.891 358,978.5C 366.896,1010.14 358.729,1036.31 333.5,1057C 305.157,1074.29 277.49,1073.29 250.5,1054C 227.158,1032.13 220.658,1005.96 231,975.5C 241.547,951.49 259.713,937.49 285.5,933.5 Z"/></g>
<g><path style="opacity:0.984" fill="#0033ad" d="M 1999.5,988.5 C 1999.5,994.5 1999.5,1000.5 1999.5,1006.5C 1992.26,1030.8 1975.92,1042.3 1950.5,1041C 1926.38,1036.21 1913.71,1021.55 1912.5,997C 1912.47,980.383 1919.47,967.716 1933.5,959C 1960,947.663 1980.83,954.163 1996,978.5C 1997.1,981.98 1998.27,985.313 1999.5,988.5 Z"/></g>
<g><path style="opacity:0.984" fill="#0032ad" d="M -0.5,1011.5 C -0.5,1004.83 -0.5,998.167 -0.5,991.5C 7.16967,967.977 23.503,956.811 48.5,958C 78.3971,965.28 90.5637,984.113 85,1014.5C 76.1135,1037.54 59.2802,1047.7 34.5,1045C 16.097,1040.76 4.43031,1029.6 -0.5,1011.5 Z"/></g>
<g><path style="opacity:0.995" fill="#0032ad" d="M 1153.5,1138.5 C 1213.58,1139.44 1256.74,1166.77 1283,1220.5C 1304.91,1279.29 1293.74,1330.79 1249.5,1375C 1204.65,1411.58 1155.32,1418.92 1101.5,1397C 1041.98,1364.79 1016.81,1314.96 1026,1247.5C 1039.62,1191.88 1074.12,1156.71 1129.5,1142C 1137.6,1140.5 1145.6,1139.33 1153.5,1138.5 Z"/></g>
<g><path style="opacity:0.995" fill="#0032ad" d="M 829.5,1139.5 C 885.064,1137.36 927.898,1159.36 958,1205.5C 981.519,1249.33 982.519,1293.66 961,1338.5C 930.578,1389.8 885.411,1413.3 825.5,1409C 771.902,1400.73 734.735,1371.56 714,1321.5C 695.461,1260.8 709.961,1209.64 757.5,1168C 778.994,1152.08 802.994,1142.58 829.5,1139.5 Z"/></g>
<g><path style="opacity:0.991" fill="#0032ad" d="M 1461.5,1190.5 C 1500.65,1188.64 1528.48,1205.31 1545,1240.5C 1557.53,1280.56 1547.03,1313.06 1513.5,1338C 1476.41,1357.22 1442.57,1352.72 1412,1324.5C 1391.13,1299.42 1386.13,1271.42 1397,1240.5C 1409.68,1212.3 1431.18,1195.63 1461.5,1190.5 Z"/></g>
<g><path style="opacity:0.991" fill="#0032ad" d="M 526.5,1192.5 C 561.059,1193.35 586.226,1209.02 602,1239.5C 616.386,1278.13 607.886,1310.63 576.5,1337C 543.733,1358.09 511.4,1357.42 479.5,1335C 452.438,1310.93 443.938,1281.43 454,1246.5C 467.257,1213.73 491.424,1195.73 526.5,1192.5 Z"/></g>
<g><path style="opacity:0.987" fill="#0033ad" d="M 1744.5,1376.5 C 1778.48,1375.06 1799.65,1390.72 1808,1423.5C 1810.48,1450.38 1799.98,1470.21 1776.5,1483C 1752.71,1492.36 1731.38,1488.53 1712.5,1471.5C 1692.66,1447.45 1691.5,1422.45 1709,1396.5C 1718.6,1385.7 1730.44,1379.03 1744.5,1376.5 Z"/></g>
<g><path style="opacity:0.986" fill="#0032ac" d="M 240.5,1379.5 C 265.499,1377.92 284.666,1387.58 298,1408.5C 310.694,1437.55 304.861,1462.05 280.5,1482C 256.608,1495.74 233.608,1494.4 211.5,1478C 190.596,1456.4 187.096,1432.24 201,1405.5C 210.631,1391.35 223.798,1382.69 240.5,1379.5 Z"/></g>
<g><path style="opacity:0.991" fill="#0032ad" d="M 987.5,1463.5 C 1025.34,1462.33 1052.5,1478.66 1069,1512.5C 1082.45,1553.26 1071.95,1586.09 1037.5,1611C 1014.08,1623.95 989.749,1625.95 964.5,1617C 924.155,1596.47 908.988,1563.97 919,1519.5C 930.793,1487.2 953.626,1468.54 987.5,1463.5 Z"/></g>
<g><path style="opacity:0.99" fill="#0032ad" d="M 1348.5,1541.5 C 1392.21,1542.88 1416.88,1565.21 1422.5,1608.5C 1419.7,1646.46 1399.7,1669.29 1362.5,1677C 1324.71,1679.19 1299.88,1662.36 1288,1626.5C 1281.53,1587.6 1296.36,1560.43 1332.5,1545C 1337.91,1543.5 1343.24,1542.34 1348.5,1541.5 Z"/></g>
<g><path style="opacity:0.99" fill="#0033ad" d="M 639.5,1543.5 C 672.658,1541.86 696.491,1555.86 711,1585.5C 721.796,1619.1 713.296,1646.6 685.5,1668C 665.129,1679.63 643.796,1681.63 621.5,1674C 588.788,1657.41 575.621,1630.91 582,1594.5C 590.479,1565.36 609.646,1548.36 639.5,1543.5 Z"/></g>
<g><path style="opacity:0.984" fill="#0032ad" d="M 1474.5,1782.5 C 1500.79,1782.3 1516.96,1794.96 1523,1820.5C 1523.31,1855.85 1505.81,1872.35 1470.5,1870C 1451.24,1865.74 1439.74,1853.91 1436,1834.5C 1434.26,1806.11 1447.09,1788.77 1474.5,1782.5 Z"/></g>
<g><path style="opacity:0.984" fill="#0032ad" d="M 517.5,1784.5 C 546.743,1784.58 563.41,1799.08 567.5,1828C 563.608,1858.56 546.274,1873.23 515.5,1872C 494.436,1867.6 482.27,1854.77 479,1833.5C 478.701,1806.65 491.534,1790.32 517.5,1784.5 Z"/></g>
<g><path style="opacity:0.988" fill="#0032ad" d="M 985.5,1812.5 C 1016.08,1809.7 1037.25,1822.37 1049,1850.5C 1056.2,1878.89 1047.7,1901.06 1023.5,1917C 994.089,1930.12 969.256,1924.29 949,1899.5C 935.149,1875.38 936.816,1852.38 954,1830.5C 962.71,1821.23 973.21,1815.23 985.5,1812.5 Z"/></g>
</svg>
