<?xml version="1.0" encoding="UTF-8"?>
<!DOCTYPE svg PUBLIC "-//W3C//DTD SVG 1.1//EN" "http://www.w3.org/Graphics/SVG/1.1/DTD/svg11.dtd">
<svg xmlns="http://www.w3.org/2000/svg" version="1.1" width="2008px" height="2008px" style="shape-rendering:geometricPrecision; text-rendering:geometricPrecision; image-rendering:optimizeQuality; fill-rule:evenodd; clip-rule:evenodd" xmlns:xlink="http://www.w3.org/1999/xlink">
<g><path style="opacity:0.997" fill="#000000" d="M 958.5,-0.5 C 988.5,-0.5 1018.5,-0.5 1048.5,-0.5C 1289.85,13.1759 1500.18,100.009 1679.5,260C 1726.25,302.991 1768.59,349.658 1806.5,400C 1738.17,400.667 1669.83,400.667 1601.5,400C 1584.1,396.886 1569.6,388.719 1558,375.5C 1532.83,347 1507.67,318.5 1482.5,290C 1465.49,276.599 1446.49,272.932 1425.5,279C 1419.89,281.139 1414.55,283.806 1409.5,287C 1376.52,320.309 1343.86,353.976 1311.5,388C 1303.87,394.145 1295.21,398.145 1285.5,400C 923.833,400.667 562.167,400.667 200.5,400C 329.446,230.47 495.446,112.47 698.5,46C 783.326,19.4653 869.993,3.96533 958.5,-0.5 Z"/></g>
<g><path style="opacity:0.995" fill="#000000" d="M 1200.5,546.5 C 1215.92,545.354 1229.92,549.188 1242.5,558C 1271.83,590.333 1301.17,622.667 1330.5,655C 1340.6,662.716 1351.93,667.716 1364.5,670C 1560.17,670.5 1755.83,670.667 1951.5,670.5C 1979.32,751.287 1996.66,834.287 2003.5,919.5C 1752.5,919.667 1501.5,919.5 1250.5,919C 1235.08,917.453 1221.41,911.786 1209.5,902C 1184.96,875.131 1160.8,847.964 1137,820.5C 1118.04,796.957 1094.21,789.79 1065.5,799C 1060.51,801.161 1055.84,803.828 1051.5,807C 1021.17,838.667 990.833,870.333 960.5,902C 951.325,911.088 940.325,916.755 927.5,919C 619.5,919.5 311.5,919.667 3.5,919.5C 9.59493,834.789 26.9283,752.455 55.5,672.5C 380.833,671.667 706.166,671.167 1031.5,671C 1058.16,668.57 1080.99,658.07 1100,639.5C 1122.8,613.036 1145.96,586.87 1169.5,561C 1178.65,553.422 1188.98,548.589 1200.5,546.5 Z"/></g>
<g><path style="opacity:0.996" fill="#000000" d="M 841.5,1065.5 C 861.987,1063.05 879.487,1069.05 894,1083.5C 919.796,1112.96 945.963,1142.13 972.5,1171C 984.412,1180.79 998.079,1186.45 1013.5,1188C 1339.17,1188.5 1664.83,1188.67 1990.5,1188.5C 1974.47,1275.77 1947.13,1359.27 1908.5,1439C 1567.83,1439.67 1227.17,1439.67 886.5,1439C 872.13,1436.99 859.464,1431.33 848.5,1422C 822,1392.17 795.5,1362.33 769,1332.5C 750.818,1316.16 729.984,1311.66 706.5,1319C 700.843,1321.49 695.51,1324.49 690.5,1328C 658.53,1361.64 626.197,1394.97 593.5,1428C 586.503,1433 578.836,1436.66 570.5,1439C 490.863,1440.16 411.196,1440.66 331.5,1440.5C 253.833,1440.17 176.167,1439.83 98.5,1439.5C 60.3714,1360.11 33.038,1277.11 16.5,1190.5C 239.524,1189.99 462.524,1189.16 685.5,1188C 712.419,1182.73 734.586,1169.56 752,1148.5C 772.5,1125.33 793,1102.17 813.5,1079C 822.004,1072.58 831.337,1068.08 841.5,1065.5 Z"/></g>
<g><path style="opacity:0.995" fill="#000000" d="M 1057.5,2007.5 C 1021.83,2007.5 986.167,2007.5 950.5,2007.5C 712.726,1992.06 505.393,1905.56 328.5,1748C 308.167,1729 288.5,1709.33 269.5,1689C 304.273,1688.53 333.107,1675.37 356,1649.5C 376.913,1624.86 398.413,1600.7 420.5,1577C 444.579,1559.45 468.912,1559.12 493.5,1576C 522.13,1608.3 551.13,1640.3 580.5,1672C 590.85,1680.01 602.517,1685.01 615.5,1687C 989.834,1687.46 1364.17,1688.12 1738.5,1689C 1553.37,1882.88 1326.37,1989.05 1057.5,2007.5 Z"/></g>
</svg>
