<?xml version="1.0" encoding="UTF-8"?>
<!DOCTYPE svg PUBLIC "-//W3C//DTD SVG 1.1//EN" "http://www.w3.org/Graphics/SVG/1.1/DTD/svg11.dtd">
<svg xmlns="http://www.w3.org/2000/svg" version="1.1" width="2000px" height="2000px" style="shape-rendering:geometricPrecision; text-rendering:geometricPrecision; image-rendering:optimizeQuality; fill-rule:evenodd; clip-rule:evenodd" xmlns:xlink="http://www.w3.org/1999/xlink">
<g><path style="opacity:0.999" fill="#0ac18e" d="M 955.5,-0.5 C 984.833,-0.5 1014.17,-0.5 1043.5,-0.5C 1297.13,14.3576 1515.46,108.858 1698.5,283C 1883.65,468.39 1983.98,692.557 1999.5,955.5C 1999.5,984.833 1999.5,1014.17 1999.5,1043.5C 1984.64,1297.13 1890.14,1515.47 1716,1698.5C 1530.61,1883.65 1306.44,1983.98 1043.5,1999.5C 1014.17,1999.5 984.833,1999.5 955.5,1999.5C 701.867,1984.64 483.534,1890.14 300.5,1716C 115.562,1530.91 15.2291,1307.07 -0.5,1044.5C -0.5,1014.5 -0.5,984.5 -0.5,954.5C 15.2278,691.932 115.561,468.099 300.5,283C 483.534,108.86 701.867,14.3604 955.5,-0.5 Z"/></g>
<g><path style="opacity:1" fill="#fefefe" d="M 1065.5,1583.5 C 1065.44,1584.61 1065.11,1585.61 1064.5,1586.5C 1029.51,1594.95 994.681,1603.95 960,1613.5C 944.571,1554.28 929.071,1495.12 913.5,1436C 841.388,1453.42 769.388,1471.59 697.5,1490.5C 693.169,1445.85 689.169,1401.19 685.5,1356.5C 707.264,1351.81 728.931,1346.64 750.5,1341C 761.529,1338.22 771.863,1333.88 781.5,1328C 792.047,1317.34 796.214,1304.5 794,1289.5C 752.667,1129.5 711.333,969.5 670,809.5C 656.61,781.509 634.444,770.009 603.5,775C 574.708,781.489 546.208,788.989 518,797.5C 508.245,759.645 498.411,721.812 488.5,684C 488.905,683.055 489.572,682.388 490.5,682C 561.253,663.979 631.919,645.645 702.5,627C 703.591,624.936 703.758,622.769 703,620.5C 688.422,564.355 673.922,508.188 659.5,452C 659.645,451.228 659.978,450.561 660.5,450C 695.776,440.857 731.109,432.024 766.5,423.5C 780.878,481.679 795.878,539.679 811.5,597.5C 839.688,590.037 868.021,583.037 896.5,576.5C 881.67,517.846 867.17,459.179 853,400.5C 888.256,390.644 923.756,381.644 959.5,373.5C 973.807,431.879 988.807,490.045 1004.5,548C 1033.01,544.29 1061.68,541.79 1090.5,540.5C 1133.07,539.714 1174.07,547.214 1213.5,563C 1278.73,594.881 1315.89,647.047 1325,719.5C 1329.97,780.137 1309.8,830.47 1264.5,870.5C 1337.54,883.76 1396.04,920.093 1440,979.5C 1468.19,1021.58 1479.19,1067.91 1473,1118.5C 1466.23,1175.87 1442.06,1224.37 1400.5,1264C 1355.58,1303.97 1303.91,1332.31 1245.5,1349C 1235.59,1351.98 1225.59,1354.64 1215.5,1357C 1214.57,1357.39 1213.91,1358.05 1213.5,1359C 1229.04,1417.01 1244.04,1475.17 1258.5,1533.5C 1258.39,1534.44 1258.06,1535.28 1257.5,1536C 1222.57,1544.94 1187.74,1554.11 1153,1563.5C 1137.51,1504.55 1122.18,1445.55 1107,1386.5C 1105.27,1385.42 1103.44,1385.26 1101.5,1386C 1074.4,1392.86 1047.4,1399.86 1020.5,1407C 1036.05,1465.68 1051.05,1524.51 1065.5,1583.5 Z"/></g>
<g><path style="opacity:1" fill="#0cc18e" d="M 991.5,686.5 C 1014.63,685.027 1037.29,687.527 1059.5,694C 1095.69,706.188 1118.85,730.688 1129,767.5C 1133.86,816.949 1115.36,854.783 1073.5,881C 1046.55,896.763 1017.89,908.43 987.5,916C 959.292,922.742 930.959,928.908 902.5,934.5C 883.967,863.367 864.967,792.367 845.5,721.5C 892.889,704.486 941.556,692.819 991.5,686.5 Z"/></g>
<g><path style="opacity:1" fill="#0cc18e" d="M 1114.5,1003.5 C 1144.76,1001.49 1174.1,1005.66 1202.5,1016C 1235.42,1030.26 1254.92,1055.09 1261,1090.5C 1264.06,1144.21 1242.9,1185.37 1197.5,1214C 1166.77,1232.14 1134.1,1245.8 1099.5,1255C 1063.04,1264.13 1026.37,1272.29 989.5,1279.5C 968.811,1201.47 948.144,1123.47 927.5,1045.5C 977.038,1027.87 1028.04,1015.03 1080.5,1007C 1091.97,1005.63 1103.3,1004.47 1114.5,1003.5 Z"/></g>
<g><path style="opacity:1" fill="#98e4ce" d="M 1065.5,1583.5 C 1066.89,1584.95 1066.55,1585.95 1064.5,1586.5C 1065.11,1585.61 1065.44,1584.61 1065.5,1583.5 Z"/></g>
</svg>
