<?xml version="1.0" encoding="UTF-8"?>
<!DOCTYPE svg PUBLIC "-//W3C//DTD SVG 1.1//EN" "http://www.w3.org/Graphics/SVG/1.1/DTD/svg11.dtd">
<svg xmlns="http://www.w3.org/2000/svg" version="1.1" width="2127px" height="2127px" style="shape-rendering:geometricPrecision; text-rendering:geometricPrecision; image-rendering:optimizeQuality; fill-rule:evenodd; clip-rule:evenodd" xmlns:xlink="http://www.w3.org/1999/xlink">
<g><path style="opacity:0.997" fill="#e60079" d="M 1026.5,-0.5 C 1050.17,-0.5 1073.83,-0.5 1097.5,-0.5C 1166.37,3.13204 1232.7,18.2987 1296.5,45C 1336.41,62.3643 1371.58,86.531 1402,117.5C 1422.16,138.8 1435.82,163.8 1443,192.5C 1450.7,230.338 1444.37,265.671 1424,298.5C 1403.36,329.47 1377.2,354.637 1345.5,374C 1291.7,406.216 1233.7,427.216 1171.5,437C 1062.81,455.301 956.477,446.301 852.5,410C 814.261,395.723 779.261,376.057 747.5,351C 722.683,330.837 703.516,306.337 690,277.5C 672.459,234.234 675.126,192.234 698,151.5C 715.322,123.509 737.489,100.009 764.5,81C 820.543,44.085 881.877,20.085 948.5,9C 974.503,4.61241 1000.5,1.44574 1026.5,-0.5 Z"/></g>
<g><path style="opacity:0.997" fill="#e60079" d="M 449.5,291.5 C 517.613,291.956 564.446,323.622 590,386.5C 603.875,424.958 609.542,464.625 607,505.5C 602.83,569.178 587.83,630.178 562,688.5C 519.955,786.121 457.122,867.621 373.5,933C 338.357,959.402 299.357,978.069 256.5,989C 162.211,1005.62 100.711,968.455 72,877.5C 62.9381,841.362 59.9381,804.696 63,767.5C 71.0415,688.324 94.3748,613.991 133,544.5C 170.343,475.47 219.177,415.637 279.5,365C 308.625,341.427 340.625,322.427 375.5,308C 399.461,298.673 424.127,293.173 449.5,291.5 Z"/></g>
<g><path style="opacity:0.997" fill="#e60079" d="M 1668.5,291.5 C 1701.64,292.535 1733.31,300.035 1763.5,314C 1798.48,330.676 1830.48,351.676 1859.5,377C 1962.06,470.563 2027.56,585.73 2056,722.5C 2064.57,769.86 2064.57,817.194 2056,864.5C 2048.37,904.286 2029.54,937.453 1999.5,964C 1968.71,987.035 1934.04,996.702 1895.5,993C 1854.5,988.165 1816.5,974.832 1781.5,953C 1727.42,918.258 1680.92,875.091 1642,823.5C 1589.22,753.256 1551.88,675.256 1530,589.5C 1517.78,540.033 1514.78,490.033 1521,439.5C 1525.76,403.186 1539.1,370.519 1561,341.5C 1589.41,309.048 1625.24,292.382 1668.5,291.5 Z"/></g>
<g><path style="opacity:0.997" fill="#e60079" d="M 198.5,1132.5 C 236.624,1130.61 272.957,1137.78 307.5,1154C 357.232,1178.06 401.065,1210.22 439,1250.5C 520.083,1336.64 573.416,1437.98 599,1554.5C 608.472,1600.28 609.805,1646.28 603,1692.5C 596.585,1736.17 577.419,1773 545.5,1803C 513.41,1827.78 477.077,1837.78 436.5,1833C 398.586,1828.03 363.253,1815.7 330.5,1796C 279.553,1764.07 235.053,1724.57 197,1677.5C 138.259,1603.68 97.2594,1520.68 74,1428.5C 60.7018,1372.82 59.0352,1316.82 69,1260.5C 76.6775,1223.63 93.8441,1192.13 120.5,1166C 143.082,1146.88 169.082,1135.71 198.5,1132.5 Z"/></g>
<g><path style="opacity:0.997" fill="#e60079" d="M 1894.5,1132.5 C 1970.36,1128.99 2021.53,1162.66 2048,1233.5C 2061.82,1276.86 2066.15,1321.2 2061,1366.5C 2051.65,1443.85 2027.99,1516.52 1990,1584.5C 1951.25,1654.6 1900.75,1715.1 1838.5,1766C 1803.68,1793.91 1764.68,1814.25 1721.5,1827C 1689.89,1835.19 1658.22,1835.52 1626.5,1828C 1593.18,1817.28 1567.35,1797.11 1549,1767.5C 1529.65,1733.44 1519.32,1696.78 1518,1657.5C 1516.2,1593.83 1526.53,1532.16 1549,1472.5C 1584.26,1376.42 1639.09,1293.59 1713.5,1224C 1746.59,1193.94 1783.59,1169.6 1824.5,1151C 1847.14,1141.68 1870.47,1135.51 1894.5,1132.5 Z"/></g>
<g><path style="opacity:0.997" fill="#e60079" d="M 1094.5,2126.5 C 1073.17,2126.5 1051.83,2126.5 1030.5,2126.5C 959.812,2123.19 891.812,2107.69 826.5,2080C 787.211,2062.95 752.711,2039.12 723,2008.5C 703.127,1987.43 689.46,1962.77 682,1934.5C 673.31,1891.28 681.976,1851.95 708,1816.5C 733.176,1784.51 763.676,1759.01 799.5,1740C 858.625,1709.63 921.292,1690.96 987.5,1684C 1086.13,1672.46 1182.13,1683.46 1275.5,1717C 1315.31,1731.89 1351.31,1752.89 1383.5,1780C 1410.53,1803.23 1429.7,1831.73 1441,1865.5C 1451.87,1907.3 1445.53,1946.3 1422,1982.5C 1401,2012.57 1374.84,2037.07 1343.5,2056C 1287.71,2088.71 1227.71,2109.71 1163.5,2119C 1140.45,2122.44 1117.45,2124.94 1094.5,2126.5 Z"/></g>
</svg>
