<?xml version="1.0" encoding="UTF-8"?>
<!DOCTYPE svg PUBLIC "-//W3C//DTD SVG 1.1//EN" "http://www.w3.org/Graphics/SVG/1.1/DTD/svg11.dtd">
<svg xmlns="http://www.w3.org/2000/svg" version="1.1" width="3239px" height="3239px" style="shape-rendering:geometricPrecision; text-rendering:geometricPrecision; image-rendering:optimizeQuality; fill-rule:evenodd; clip-rule:evenodd" xmlns:xlink="http://www.w3.org/1999/xlink">
<g><path style="opacity:0.998" fill="#39b739" d="M 1617.5,-0.5 C 1618.17,-0.5 1618.83,-0.5 1619.5,-0.5C 1619.5,-0.166667 1619.5,0.166667 1619.5,0.5C 1618.83,29.8314 1618.5,59.3314 1618.5,89C 1619.87,371.167 1621.2,653.334 1622.5,935.5C 1287.95,1111.36 953.448,1287.36 619,1463.5C 618.833,1463.17 618.667,1462.83 618.5,1462.5C 951.263,974.631 1284.26,486.964 1617.5,-0.5 Z"/></g>
<g><path style="opacity:1" fill="#0b8311" d="M 1619.5,0.5 C 1952.72,488.594 2285.72,976.927 2618.5,1465.5C 2618.17,1465.83 2617.83,1466.17 2617.5,1466.5C 2285.97,1289.23 1954.3,1112.23 1622.5,935.5C 1621.2,653.334 1619.87,371.167 1618.5,89C 1618.5,59.3314 1618.83,29.8314 1619.5,0.5 Z"/></g>
<g><path style="opacity:0.999" fill="#39b739" d="M 1623.5,1099.5 C 1623.5,1297.83 1623.5,1496.17 1623.5,1694.5C 1303.77,1669.2 984.102,1643.2 664.5,1616.5C 662.631,1616.51 660.964,1616.84 659.5,1617.5C 657.027,1617.4 656.361,1616.4 657.5,1614.5C 979.527,1442.82 1301.53,1271.15 1623.5,1099.5 Z"/></g>
<g><path style="opacity:1" fill="#0b8311" d="M 1625.5,1100.5 C 1936.94,1267.05 2248.27,1433.89 2559.5,1601C 2566.23,1604.36 2572.56,1608.19 2578.5,1612.5C 2261.85,1640.05 1945.18,1667.39 1628.5,1694.5C 1627.17,1694.5 1625.83,1694.5 1624.5,1694.5C 1624.17,1496.33 1624.5,1298.33 1625.5,1100.5 Z"/></g>
<g><path style="opacity:1" fill="#1d9721" d="M 1623.5,1099.5 C 1624.49,1099.33 1625.16,1099.66 1625.5,1100.5C 1624.5,1298.33 1624.17,1496.33 1624.5,1694.5C 1624.17,1694.5 1623.83,1694.5 1623.5,1694.5C 1623.5,1496.17 1623.5,1297.83 1623.5,1099.5 Z"/></g>
<g><path style="opacity:1" fill="#136713" d="M 2578.5,1612.5 C 2260.53,1784.82 1942.53,1957.15 1624.5,2129.5C 1624.5,1984.83 1624.5,1840.17 1624.5,1695.5C 1626.1,1695.77 1627.43,1695.43 1628.5,1694.5C 1945.18,1667.39 2261.85,1640.05 2578.5,1612.5 Z"/></g>
<g><path style="opacity:1" fill="#0b8311" d="M 1623.5,1694.5 C 1623.5,1839.17 1623.5,1983.83 1623.5,2128.5C 1301.84,1958.67 980.509,1788.34 659.5,1617.5C 660.964,1616.84 662.631,1616.51 664.5,1616.5C 984.102,1643.2 1303.77,1669.2 1623.5,1694.5 Z"/></g>
<g><path style="opacity:0.998" fill="#39b839" d="M 1622.5,2297.5 C 1622.5,2611.17 1622.5,2924.83 1622.5,3238.5C 1622.17,3238.5 1621.83,3238.5 1621.5,3238.5C 1286.98,2747.14 952.648,2255.64 618.5,1764C 618.667,1763.5 618.833,1763 619,1762.5C 953.8,1940.48 1288.3,2118.81 1622.5,2297.5 Z"/></g>
<g><path style="opacity:1" fill="#0b8311" d="M 2131.5,2487.5 C 2130.5,2487.41 2129.67,2487.75 2129,2488.5C 2126.58,2492.07 2124.41,2495.74 2122.5,2499.5C 2118.57,2507.02 2113.91,2514.02 2108.5,2520.5C 2103.43,2526.3 2099.09,2532.64 2095.5,2539.5C 2073.99,2572.52 2051.99,2605.19 2029.5,2637.5C 2025.84,2640.8 2023.18,2644.8 2021.5,2649.5C 1973.89,2721.11 1925.89,2792.44 1877.5,2863.5C 1876.5,2863.41 1875.67,2863.75 1875,2864.5C 1872.58,2868.07 1870.41,2871.74 1868.5,2875.5C 1787.25,2996.76 1705.58,3117.76 1623.5,3238.5C 1623.17,3238.5 1622.83,3238.5 1622.5,3238.5C 1622.5,2924.83 1622.5,2611.17 1622.5,2297.5C 1954.39,2119.31 2286.22,1940.97 2618,1762.5C 2618.67,1763.5 2618.67,1764.5 2618,1765.5C 2456,2006.32 2293.84,2246.99 2131.5,2487.5 Z"/></g>
<g><path style="opacity:1" fill="#0f7512" d="M 1623.5,1694.5 C 1623.83,1694.5 1624.17,1694.5 1624.5,1694.5C 1625.83,1694.5 1627.17,1694.5 1628.5,1694.5C 1627.43,1695.43 1626.1,1695.77 1624.5,1695.5C 1624.5,1840.17 1624.5,1984.83 1624.5,2129.5C 1623.83,2129.5 1623.5,2129.17 1623.5,2128.5C 1623.5,1983.83 1623.5,1839.17 1623.5,1694.5 Z"/></g>
<g><path style="opacity:0.141" fill="#33b333" d="M 2131.5,2487.5 C 2128.97,2491.9 2125.97,2495.9 2122.5,2499.5C 2124.41,2495.74 2126.58,2492.07 2129,2488.5C 2129.67,2487.75 2130.5,2487.41 2131.5,2487.5 Z"/></g>
<g><path style="opacity:0.494" fill="#33b333" d="M 2108.5,2520.5 C 2104.91,2527.36 2100.57,2533.7 2095.5,2539.5C 2099.09,2532.64 2103.43,2526.3 2108.5,2520.5 Z"/></g>
<g><path style="opacity:0.145" fill="#34b634" d="M 2029.5,2637.5 C 2027.33,2641.85 2024.66,2645.85 2021.5,2649.5C 2023.18,2644.8 2025.84,2640.8 2029.5,2637.5 Z"/></g>
<g><path style="opacity:0.392" fill="#32b432" d="M 1877.5,2863.5 C 1874.97,2867.9 1871.97,2871.9 1868.5,2875.5C 1870.41,2871.74 1872.58,2868.07 1875,2864.5C 1875.67,2863.75 1876.5,2863.41 1877.5,2863.5 Z"/></g>
</svg>
