<?xml version="1.0" encoding="UTF-8"?>
<!DOCTYPE svg PUBLIC "-//W3C//DTD SVG 1.1//EN" "http://www.w3.org/Graphics/SVG/1.1/DTD/svg11.dtd">
<svg xmlns="http://www.w3.org/2000/svg" version="1.1" width="2000px" height="2000px" style="shape-rendering:geometricPrecision; text-rendering:geometricPrecision; image-rendering:optimizeQuality; fill-rule:evenodd; clip-rule:evenodd" xmlns:xlink="http://www.w3.org/1999/xlink">
<g><path style="opacity:0.995" fill="#0090ff" d="M 949.5,-0.5 C 979.833,-0.5 1010.17,-0.5 1040.5,-0.5C 1311.47,15.5914 1540.63,120.925 1728,315.5C 1895.63,498.701 1986.13,715.034 1999.5,964.5C 1999.5,991.833 1999.5,1019.17 1999.5,1046.5C 1984.86,1293.09 1894.03,1506.42 1727,1686.5C 1564.93,1855.13 1367.43,1956.63 1134.5,1991C 1104.11,1994.89 1073.78,1997.73 1043.5,1999.5C 1014.17,1999.5 984.833,1999.5 955.5,1999.5C 670.106,1981.54 432.939,1866.21 244,1653.5C 93.9227,1476.89 12.4227,1272.22 -0.5,1039.5C -0.5,1012.17 -0.5,984.833 -0.5,957.5C 15.5615,690.923 117.895,464.09 306.5,277C 486.335,106.49 700.668,13.9903 949.5,-0.5 Z"/></g>
<g><path style="opacity:1" fill="#fefeff" d="M 1319.5,314.5 C 1358.1,310.324 1395.43,315.158 1431.5,329C 1458.29,340.789 1479.12,359.289 1494,384.5C 1495.23,401.485 1493.57,418.152 1489,434.5C 1481.02,452.447 1467.19,460.28 1447.5,458C 1437.81,456.153 1429.14,452.153 1421.5,446C 1408.38,433.871 1396.55,420.704 1386,406.5C 1377.17,397 1368.33,387.5 1359.5,378C 1334.13,358.362 1307.46,356.362 1279.5,372C 1244.35,401.843 1217.51,438.01 1199,480.5C 1191.26,503.727 1183.92,527.06 1177,550.5C 1153.92,635.153 1129.75,719.487 1104.5,803.5C 1109.46,804.805 1114.46,805.971 1119.5,807C 1206.22,819.294 1292.89,831.96 1379.5,845C 1372.77,869.817 1366.1,894.651 1359.5,919.5C 1271.12,906.246 1182.79,893.079 1094.5,880C 1084.06,933.054 1074.06,986.221 1064.5,1039.5C 1159.55,1052.86 1254.55,1066.36 1349.5,1080C 1342.96,1104.35 1336.3,1128.69 1329.5,1153C 1329.17,1153.5 1328.83,1154 1328.5,1154.5C 1235.57,1140.63 1142.57,1127.46 1049.5,1115C 1037.5,1156.84 1026.67,1199 1017,1241.5C 989.362,1326.75 958.362,1410.75 924,1493.5C 866.242,1629.17 763.742,1689.67 616.5,1675C 583.568,1667.95 555.401,1652.45 532,1628.5C 519.112,1612.94 516.112,1595.6 523,1576.5C 526.926,1563.13 534.426,1552.3 545.5,1544C 561.49,1542.12 577.157,1543.79 592.5,1549C 610.169,1565.16 624.336,1583.99 635,1605.5C 667.413,1644.64 704.246,1649.14 745.5,1619C 772.357,1593.8 793.19,1564.3 808,1530.5C 814.556,1514.72 820.556,1498.72 826,1482.5C 857.796,1360.7 887.129,1238.37 914,1115.5C 914.5,1108.51 914.666,1101.51 914.5,1094.5C 826.122,1081.41 737.789,1068.08 649.5,1054.5C 652.833,1029.5 656.167,1004.5 659.5,979.5C 750.143,992.831 840.81,1006.16 931.5,1019.5C 932.5,1019.17 933.5,1018.83 934.5,1018.5C 946.33,967.342 957.997,916.175 969.5,865C 874.869,849.784 780.202,834.784 685.5,820C 684.978,819.439 684.645,818.772 684.5,818C 688.12,791.871 691.454,765.704 694.5,739.5C 791.841,752.739 889.174,766.072 986.5,779.5C 987.5,779.167 988.5,778.833 989.5,778.5C 995.563,761.39 1000.73,744.057 1005,726.5C 1017.09,689.382 1028.42,652.048 1039,614.5C 1056.73,555.379 1082.73,500.379 1117,449.5C 1142.04,413.455 1172.21,382.288 1207.5,356C 1241.43,332.864 1278.76,319.031 1319.5,314.5 Z"/></g>
</svg>
