<?xml version="1.0" encoding="UTF-8"?>
<!DOCTYPE svg PUBLIC "-//W3C//DTD SVG 1.1//EN" "http://www.w3.org/Graphics/SVG/1.1/DTD/svg11.dtd">
<svg xmlns="http://www.w3.org/2000/svg" version="1.1" width="2000px" height="2000px" style="shape-rendering:geometricPrecision; text-rendering:geometricPrecision; image-rendering:optimizeQuality; fill-rule:evenodd; clip-rule:evenodd" xmlns:xlink="http://www.w3.org/1999/xlink">
<g><path style="opacity:0.999" fill="#6747ed" d="M 955.5,-0.5 C 984.833,-0.5 1014.17,-0.5 1043.5,-0.5C 1297.13,14.3576 1515.46,108.858 1698.5,283C 1883.65,468.39 1983.98,692.557 1999.5,955.5C 1999.5,984.833 1999.5,1014.17 1999.5,1043.5C 1984.64,1297.13 1890.14,1515.47 1716,1698.5C 1530.61,1883.65 1306.44,1983.98 1043.5,1999.5C 1014.17,1999.5 984.833,1999.5 955.5,1999.5C 701.867,1984.64 483.534,1890.14 300.5,1716C 115.562,1530.91 15.2291,1307.07 -0.5,1044.5C -0.5,1014.5 -0.5,984.5 -0.5,954.5C 15.2278,691.932 115.561,468.099 300.5,283C 483.534,108.86 701.867,14.3604 955.5,-0.5 Z"/></g>
<g><path style="opacity:1" fill="#fefefe" d="M 951.5,462.5 C 1089.04,455.554 1202.88,503.554 1293,606.5C 1371.35,705.185 1399.35,816.851 1377,941.5C 1349.47,1062.98 1281.63,1154.15 1173.5,1215C 1075.8,1265.05 974.136,1275.05 868.5,1245C 747.523,1205.36 662.356,1126.86 613,1009.5C 569.286,893.019 576.286,779.685 634,669.5C 696.822,560.738 789.988,493.571 913.5,468C 926.351,466.41 939.017,464.577 951.5,462.5 Z"/></g>
<g><path style="opacity:1" fill="#fefefe" d="M 1440.5,462.5 C 1480.74,459.01 1506.9,476.344 1519,514.5C 1524.01,548.979 1511.18,574.146 1480.5,590C 1449.6,601.119 1423.1,594.619 1401,570.5C 1386.9,550.195 1383.57,528.195 1391,504.5C 1400.38,481.945 1416.88,467.945 1440.5,462.5 Z"/></g>
<g><path style="opacity:1" fill="#6747ed" d="M 962.5,595.5 C 1053.28,590.904 1128.78,622.238 1189,689.5C 1243.85,757.487 1262.51,834.487 1245,920.5C 1220.63,1017.74 1161.13,1082.9 1066.5,1116C 973.513,1143 889.179,1126.67 813.5,1067C 738.496,999.677 707.996,915.844 722,815.5C 739.388,729.474 786.555,665.641 863.5,624C 894.886,608.478 927.886,598.978 962.5,595.5 Z"/></g>
<g><path style="opacity:1" fill="#fefefe" d="M 1309.5,1262.5 C 1348.02,1261.19 1373.19,1278.86 1385,1315.5C 1389.16,1335.37 1385.16,1353.37 1373,1369.5C 1279.83,1462.67 1186.67,1555.83 1093.5,1649C 1066.65,1667.76 1039.65,1668.09 1012.5,1650C 987.957,1628.65 980.457,1602.49 990,1571.5C 992.245,1566 995.245,1561 999,1556.5C 1092.5,1463 1186,1369.5 1279.5,1276C 1288.7,1269.56 1298.7,1265.06 1309.5,1262.5 Z"/></g>
</svg>
