<?xml version="1.0" encoding="UTF-8"?>
<!DOCTYPE svg PUBLIC "-//W3C//DTD SVG 1.1//EN" "http://www.w3.org/Graphics/SVG/1.1/DTD/svg11.dtd">
<svg xmlns="http://www.w3.org/2000/svg" version="1.1" width="2000px" height="2000px" style="shape-rendering:geometricPrecision; text-rendering:geometricPrecision; image-rendering:optimizeQuality; fill-rule:evenodd; clip-rule:evenodd" xmlns:xlink="http://www.w3.org/1999/xlink">
<g><path style="opacity:0.997" fill="#17b5cb" d="M 4.5,187.5 C 74.9988,186.335 145.665,186.168 216.5,187C 441.258,446.7 665.425,706.867 889,967.5C 903.309,991.509 902.975,1015.18 888,1038.5C 666.085,1295.74 444.918,1553.58 224.5,1812C 151.164,1812.83 77.8311,1812.67 4.5,1811.5C 226.813,1554.02 449.313,1296.69 672,1039.5C 691.376,1009.59 689.709,980.926 667,953.5C 446.302,697.974 225.468,442.641 4.5,187.5 Z"/></g>
<g><path style="opacity:0.996" fill="#17b5cb" d="M 381.5,187.5 C 448.999,186.335 516.665,186.168 584.5,187C 687.917,309.755 792.084,431.921 897,553.5C 956.03,621.823 1016.7,688.823 1079,754.5C 1091.77,772.13 1092.77,790.463 1082,809.5C 1056.59,841.584 1030.42,873.084 1003.5,904C 1002.83,904.667 1002.17,904.667 1001.5,904C 997.45,899.405 993.283,894.905 989,890.5C 786.635,655.974 584.135,421.641 381.5,187.5 Z"/></g>
<g><path style="opacity:0.996" fill="#17b5cb" d="M 1412.5,186.5 C 1481.17,186.333 1549.83,186.5 1618.5,187C 1475.35,354.145 1331.85,520.979 1188,687.5C 1173.99,672.485 1160.32,657.152 1147,641.5C 1136.29,629.124 1125.95,616.457 1116,603.5C 1101.62,573.377 1105.29,545.71 1127,520.5C 1222.38,409.294 1317.54,297.961 1412.5,186.5 Z"/></g>
<g><path style="opacity:0.997" fill="#17b5cb" d="M 1783.5,186.5 C 1854.17,186.333 1924.83,186.5 1995.5,187C 1713,509.5 1430.5,832 1148,1154.5C 1125.13,1179.56 1121.13,1207.23 1136,1237.5C 1137.94,1241.11 1140.28,1244.44 1143,1247.5C 1304.72,1435.76 1466.55,1623.93 1628.5,1812C 1554.83,1812.67 1481.17,1812.67 1407.5,1812C 1262.71,1642.21 1117.54,1472.71 972,1303.5C 960,1288.83 948,1274.17 936,1259.5C 918.304,1234.07 916.971,1207.74 932,1180.5C 934.615,1176.22 937.615,1172.22 941,1168.5C 1222.42,841.589 1503.25,514.256 1783.5,186.5 Z"/></g>
<g><path style="opacity:0.996" fill="#17b5cb" d="M 1372.5,1094.5 C 1373.24,1094.37 1373.91,1094.54 1374.5,1095C 1581.35,1333.69 1788.02,1572.52 1994.5,1811.5C 1927.6,1812.83 1860.77,1812.83 1794,1811.5C 1631,1620.83 1468,1430.17 1305,1239.5C 1290.82,1213 1292.48,1187.66 1310,1163.5C 1331.04,1140.63 1351.87,1117.63 1372.5,1094.5 Z"/></g>
<g><path style="opacity:0.996" fill="#17b5cb" d="M 812.5,1317.5 C 813.822,1317.33 814.989,1317.66 816,1318.5C 837.333,1343.83 858.667,1369.17 880,1394.5C 899.017,1425.01 897.351,1454.34 875,1482.5C 781.208,1592.63 687.041,1702.46 592.5,1812C 524.5,1812.67 456.5,1812.67 388.5,1812C 530.043,1647.29 671.377,1482.46 812.5,1317.5 Z"/></g>
</svg>
