<?xml version="1.0" encoding="UTF-8"?>
<!DOCTYPE svg PUBLIC "-//W3C//DTD SVG 1.1//EN" "http://www.w3.org/Graphics/SVG/1.1/DTD/svg11.dtd">
<svg xmlns="http://www.w3.org/2000/svg" version="1.1" width="2246px" height="2246px" style="shape-rendering:geometricPrecision; text-rendering:geometricPrecision; image-rendering:optimizeQuality; fill-rule:evenodd; clip-rule:evenodd" xmlns:xlink="http://www.w3.org/1999/xlink">
<g><path style="opacity:0.995" fill="#f6e739" d="M 1101.5,-0.5 C 1102.83,-0.5 1104.17,-0.5 1105.5,-0.5C 1134.49,15.6618 1163.16,32.3284 1191.5,49.5C 1130.83,49.5 1070.17,49.5 1009.5,49.5C 1040.49,33.3416 1071.15,16.6749 1101.5,-0.5 Z"/></g>
<g><path style="opacity:0.996" fill="#f7e534" d="M 1009.5,49.5 C 1070.17,49.5 1130.83,49.5 1191.5,49.5C 1235.84,75.5079 1280.17,101.508 1324.5,127.5C 1254.83,127.5 1185.17,127.5 1115.5,127.5C 1110.4,125.113 1105.4,122.446 1100.5,119.5C 1094.96,122.767 1089.3,125.767 1083.5,128.5C 1011.67,127.501 939.669,127.167 867.5,127.5C 899.084,109.795 931.084,92.6286 963.5,76C 978.725,66.8904 994.058,58.0571 1009.5,49.5 Z"/></g>
<g><path style="opacity:0.993" fill="#f8e230" d="M 867.5,127.5 C 939.669,127.167 1011.67,127.501 1083.5,128.5C 1059.65,140.591 1035.98,152.924 1012.5,165.5C 975.5,165.5 938.5,165.5 901.5,165.5C 884.231,156.531 867.231,147.031 850.5,137C 855.898,133.302 861.565,130.136 867.5,127.5 Z"/></g>
<g><path style="opacity:0.994" fill="#f8e230" d="M 1115.5,127.5 C 1185.17,127.5 1254.83,127.5 1324.5,127.5C 1346.1,139.776 1367.43,152.443 1388.5,165.5C 1320,165.167 1251.66,165.501 1183.5,166.5C 1160.5,154.002 1137.83,141.002 1115.5,127.5 Z"/></g>
<g><path style="opacity:0.979" fill="#f8df30" d="M 901.5,165.5 C 938.5,165.5 975.5,165.5 1012.5,165.5C 993.142,176.265 973.642,186.932 954,197.5C 936.686,186.431 919.186,175.765 901.5,165.5 Z"/></g>
<g><path style="opacity:0.995" fill="#f8dd2f" d="M 1388.5,165.5 C 1418.01,183.089 1447.68,200.422 1477.5,217.5C 1409,218.499 1340.34,218.833 1271.5,218.5C 1241.83,201.667 1212.5,184.334 1183.5,166.5C 1251.66,165.501 1320,165.167 1388.5,165.5 Z"/></g>
<g><path style="opacity:0.991" fill="#f6e739" d="M 763.5,211.5 C 727.167,212.833 690.833,212.833 654.5,211.5C 672.185,200.662 690.019,189.995 708,179.5C 726.446,190.305 744.946,200.971 763.5,211.5 Z"/></g>
<g><path style="opacity:0.994" fill="#f7e534" d="M 654.5,211.5 C 690.833,212.833 727.167,212.833 763.5,211.5C 792.522,228.202 821.522,244.869 850.5,261.5C 758.5,262.833 666.5,262.833 574.5,261.5C 601.131,244.847 627.797,228.181 654.5,211.5 Z"/></g>
<g><path style="opacity:0.994" fill="#f7d72f" d="M 1477.5,217.5 C 1508,233.911 1537.67,251.578 1566.5,270.5C 1498,270.167 1429.66,270.501 1361.5,271.5C 1331.5,253.825 1301.5,236.159 1271.5,218.5C 1340.34,218.833 1409,218.499 1477.5,217.5 Z"/></g>
<g><path style="opacity:0.997" fill="#f8e230" d="M 574.5,261.5 C 666.5,262.833 758.5,262.833 850.5,261.5C 866.166,269.664 881.499,278.33 896.5,287.5C 775.763,287.831 655.096,287.498 534.5,286.5C 547.489,277.669 560.822,269.336 574.5,261.5 Z"/></g>
<g><path style="opacity:0.994" fill="#f7d130" d="M 1566.5,270.5 C 1588.61,282.389 1610.61,294.555 1632.5,307C 1640.9,312.524 1649.23,318.024 1657.5,323.5C 1589,323.167 1520.66,323.501 1452.5,324.5C 1421.64,307.576 1391.31,289.909 1361.5,271.5C 1429.66,270.501 1498,270.167 1566.5,270.5 Z"/></g>
<g><path style="opacity:0.995" fill="#f8dd2f" d="M 534.5,286.5 C 655.096,287.498 775.763,287.831 896.5,287.5C 915.999,297.746 934.999,308.746 953.5,320.5C 883.331,320.167 813.331,320.501 743.5,321.5C 732.263,315.298 721.097,308.965 710,302.5C 699.572,308.964 689.072,315.297 678.5,321.5C 612.335,320.501 546.002,320.168 479.5,320.5C 497.811,309.201 516.144,297.868 534.5,286.5 Z"/></g>
<g><path style="opacity:0.994" fill="#f7d72f" d="M 479.5,320.5 C 546.002,320.168 612.335,320.501 678.5,321.5C 660.167,332.833 641.833,344.167 623.5,355.5C 555.973,354.175 488.306,354.175 420.5,355.5C 439.901,343.443 459.567,331.776 479.5,320.5 Z"/></g>
<g><path style="opacity:0.994" fill="#f7d72f" d="M 953.5,320.5 C 974.003,331.583 994.336,342.917 1014.5,354.5C 944.167,354.5 873.833,354.5 803.5,354.5C 782.987,344.295 762.987,333.295 743.5,321.5C 813.331,320.501 883.331,320.167 953.5,320.5 Z"/></g>
<g><path style="opacity:0.991" fill="#f7cb2f" d="M 1657.5,323.5 C 1662.03,326.018 1666.53,328.684 1671,331.5C 1671.5,351.831 1671.67,372.164 1671.5,392.5C 1670.53,390.052 1670.19,387.385 1670.5,384.5C 1632.33,384.168 1594.33,384.501 1556.5,385.5C 1521.5,365.668 1486.83,345.334 1452.5,324.5C 1520.66,323.501 1589,323.167 1657.5,323.5 Z"/></g>
<g><path style="opacity:0.994" fill="#f7d12f" d="M 623.5,355.5 C 605.838,366.667 587.838,377.334 569.5,387.5C 502.998,387.832 436.665,387.499 370.5,386.5C 387.167,376.167 403.833,365.833 420.5,355.5C 488.306,354.175 555.973,354.175 623.5,355.5 Z"/></g>
<g><path style="opacity:0.994" fill="#f7d130" d="M 803.5,354.5 C 873.833,354.5 944.167,354.5 1014.5,354.5C 1033.83,365.167 1053.17,375.833 1072.5,386.5C 1002.17,387.167 931.833,387.833 861.5,388.5C 841.83,377.668 822.497,366.334 803.5,354.5 Z"/></g>
<g><path style="opacity:0.994" fill="#f7c42f" d="M 1671.5,392.5 C 1671.5,399.833 1671.5,407.167 1671.5,414.5C 1670.51,419.305 1670.18,424.305 1670.5,429.5C 1635.83,429.5 1601.17,429.5 1566.5,429.5C 1566.67,416.829 1566.5,404.162 1566,391.5C 1562.85,389.35 1559.69,387.35 1556.5,385.5C 1594.33,384.501 1632.33,384.168 1670.5,384.5C 1670.19,387.385 1670.53,390.052 1671.5,392.5 Z"/></g>
<g><path style="opacity:0.994" fill="#f7cb30" d="M 370.5,386.5 C 436.665,387.499 502.998,387.832 569.5,387.5C 548.009,401.081 526.342,414.414 504.5,427.5C 438.66,427.166 372.994,426.166 307.5,424.5C 328.5,411.833 349.5,399.167 370.5,386.5 Z"/></g>
<g><path style="opacity:0.994" fill="#f7cb30" d="M 1072.5,386.5 C 1096.03,399.091 1119.03,412.424 1141.5,426.5C 1071.33,426.167 1001.33,426.501 931.5,427.5C 907.836,415.004 884.503,402.004 861.5,388.5C 931.833,387.833 1002.17,387.167 1072.5,386.5 Z"/></g>
<g><path style="opacity:0.989" fill="#f6be2f" d="M 1671.5,414.5 C 1671.5,434.5 1671.5,454.5 1671.5,474.5C 1636.5,474.5 1601.5,474.5 1566.5,474.5C 1566.5,459.5 1566.5,444.5 1566.5,429.5C 1601.17,429.5 1635.83,429.5 1670.5,429.5C 1670.18,424.305 1670.51,419.305 1671.5,414.5 Z"/></g>
<g><path style="opacity:0.994" fill="#f7c42f" d="M 307.5,424.5 C 372.994,426.166 438.66,427.166 504.5,427.5C 488.84,437.666 472.84,447.333 456.5,456.5C 389.833,456.5 323.167,456.5 256.5,456.5C 273.295,445.597 290.295,434.93 307.5,424.5 Z"/></g>
<g><path style="opacity:0.994" fill="#f7c430" d="M 1141.5,426.5 C 1143.82,427.33 1145.82,428.663 1147.5,430.5C 1142.73,439.723 1137.73,448.723 1132.5,457.5C 1082.83,456.167 1033.17,456.167 983.5,457.5C 965.805,447.99 948.471,437.99 931.5,427.5C 1001.33,426.501 1071.33,426.167 1141.5,426.5 Z"/></g>
<g><path style="opacity:0.991" fill="#f6e739" d="M 1935.5,469.5 C 1902,470.498 1868.34,470.832 1834.5,470.5C 1846.69,453.496 1859.86,437.163 1874,421.5C 1895.16,436.663 1915.66,452.663 1935.5,469.5 Z"/></g>
<g><path style="opacity:0.994" fill="#f6be2f" d="M 256.5,456.5 C 323.167,456.5 389.833,456.5 456.5,456.5C 441.508,466.332 426.175,475.666 410.5,484.5C 344.331,484.832 278.331,484.499 212.5,483.5C 226.824,474.001 241.491,465.001 256.5,456.5 Z"/></g>
<g><path style="opacity:0.99" fill="#f6be2f" d="M 983.5,457.5 C 1033.17,456.167 1082.83,456.167 1132.5,457.5C 1127.51,466.806 1122.51,476.14 1117.5,485.5C 1089.07,484.172 1060.74,484.172 1032.5,485.5C 1016.17,476.167 999.833,466.833 983.5,457.5 Z"/></g>
<g><path style="opacity:0.994" fill="#f7e534" d="M 1935.5,469.5 C 1967.5,494.833 1999.5,520.167 2031.5,545.5C 1974.67,546.499 1917.67,546.832 1860.5,546.5C 1842.74,532.251 1825.41,517.418 1808.5,502C 1817.03,491.31 1825.7,480.81 1834.5,470.5C 1868.34,470.832 1902,470.498 1935.5,469.5 Z"/></g>
<g><path style="opacity:0.989" fill="#f6b82e" d="M 1566.5,474.5 C 1601.5,474.5 1636.5,474.5 1671.5,474.5C 1671.5,494.833 1671.5,515.167 1671.5,535.5C 1670.51,530.695 1670.18,525.695 1670.5,520.5C 1635.83,520.5 1601.17,520.5 1566.5,520.5C 1566.5,505.167 1566.5,489.833 1566.5,474.5 Z"/></g>
<g><path style="opacity:0.994" fill="#f6b82e" d="M 212.5,483.5 C 278.331,484.499 344.331,484.832 410.5,484.5C 395.54,494.653 380.207,504.319 364.5,513.5C 297.429,513.83 230.429,513.496 163.5,512.5C 179.331,502.081 195.664,492.414 212.5,483.5 Z"/></g>
<g><path style="opacity:0.98" fill="#f6b82e" d="M 1117.5,485.5 C 1110.77,497.968 1103.77,510.302 1096.5,522.5C 1075.1,510.14 1053.77,497.807 1032.5,485.5C 1060.74,484.172 1089.07,484.172 1117.5,485.5 Z"/></g>
<g><path style="opacity:0.995" fill="#f6b22e" d="M 163.5,512.5 C 230.429,513.496 297.429,513.83 364.5,513.5C 345.535,525.655 326.201,537.322 306.5,548.5C 246.571,547.504 186.571,547.171 126.5,547.5C 126.737,546.209 126.404,545.209 125.5,544.5C 126.241,541.587 126.741,538.587 127,535.5C 138.942,527.447 151.108,519.781 163.5,512.5 Z"/></g>
<g><path style="opacity:0.994" fill="#f5b22e" d="M 1566.5,520.5 C 1601.17,520.5 1635.83,520.5 1670.5,520.5C 1670.18,525.695 1670.51,530.695 1671.5,535.5C 1671.5,545.5 1671.5,555.5 1671.5,565.5C 1670.53,567.607 1670.2,569.941 1670.5,572.5C 1635.83,572.5 1601.17,572.5 1566.5,572.5C 1566.5,555.167 1566.5,537.833 1566.5,520.5 Z"/></g>
<g><path style="opacity:0.995" fill="#f8e230" d="M 2031.5,545.5 C 2046.79,557.456 2061.79,569.789 2076.5,582.5C 2020,583.499 1963.34,583.832 1906.5,583.5C 1890.58,571.919 1875.25,559.586 1860.5,546.5C 1917.67,546.832 1974.67,546.499 2031.5,545.5 Z"/></g>
<g><path style="opacity:0.995" fill="#f6ab2f" d="M 125.5,544.5 C 126.404,545.209 126.737,546.209 126.5,547.5C 186.571,547.171 246.571,547.504 306.5,548.5C 291.007,558.082 275.34,567.415 259.5,576.5C 215.167,576.5 170.833,576.5 126.5,576.5C 126.784,574.585 126.451,572.919 125.5,571.5C 125.5,562.5 125.5,553.5 125.5,544.5 Z"/></g>
<g><path style="opacity:0.99" fill="#f6ab2e" d="M 1671.5,565.5 C 1671.5,582.833 1671.5,600.167 1671.5,617.5C 1636.5,617.5 1601.5,617.5 1566.5,617.5C 1566.5,602.5 1566.5,587.5 1566.5,572.5C 1601.17,572.5 1635.83,572.5 1670.5,572.5C 1670.2,569.941 1670.53,567.607 1671.5,565.5 Z"/></g>
<g><path style="opacity:0.989" fill="#f5a52e" d="M 125.5,571.5 C 126.451,572.919 126.784,574.585 126.5,576.5C 170.833,576.5 215.167,576.5 259.5,576.5C 250.737,582.725 241.737,588.725 232.5,594.5C 231.513,597.768 231.18,601.102 231.5,604.5C 196.094,604.826 160.76,604.493 125.5,603.5C 125.5,592.833 125.5,582.167 125.5,571.5 Z"/></g>
<g><path style="opacity:0.995" fill="#f8dd30" d="M 2076.5,582.5 C 2091.48,594.476 2106.48,606.476 2121.5,618.5C 2122.49,623.792 2122.83,629.125 2122.5,634.5C 2070.66,634.168 2019,634.501 1967.5,635.5C 1946.55,618.887 1926.22,601.554 1906.5,583.5C 1963.34,583.832 2020,583.499 2076.5,582.5 Z"/></g>
<g><path style="opacity:0.995" fill="#f59f2e" d="M 125.5,603.5 C 160.76,604.493 196.094,604.826 231.5,604.5C 231.827,614.348 231.494,624.014 230.5,633.5C 195.5,633.5 160.5,633.5 125.5,633.5C 125.5,623.5 125.5,613.5 125.5,603.5 Z"/></g>
<g><path style="opacity:0.996" fill="#f5a52e" d="M 1566.5,617.5 C 1601.5,617.5 1636.5,617.5 1671.5,617.5C 1671.5,627.5 1671.5,637.5 1671.5,647.5C 1670.51,652.305 1670.18,657.305 1670.5,662.5C 1635.83,662.5 1601.17,662.5 1566.5,662.5C 1566.5,647.5 1566.5,632.5 1566.5,617.5 Z"/></g>
<g><path style="opacity:0.996" fill="#f4992e" d="M 125.5,633.5 C 160.5,633.5 195.5,633.5 230.5,633.5C 230.5,642.5 230.5,651.5 230.5,660.5C 195.5,661.167 160.5,661.833 125.5,662.5C 125.5,652.833 125.5,643.167 125.5,633.5 Z"/></g>
<g><path style="opacity:0.996" fill="#f7d730" d="M 2122.5,634.5 C 2122.5,651.5 2122.5,668.5 2122.5,685.5C 2084.09,685.173 2045.76,685.506 2007.5,686.5C 2007.67,680.491 2007.5,674.491 2007,668.5C 1993.85,657.363 1980.69,646.363 1967.5,635.5C 2019,634.501 2070.66,634.168 2122.5,634.5 Z"/></g>
<g><path style="opacity:0.998" fill="#f49f2d" d="M 1671.5,647.5 C 1671.5,667.5 1671.5,687.5 1671.5,707.5C 1636.5,707.5 1601.5,707.5 1566.5,707.5C 1566.5,692.5 1566.5,677.5 1566.5,662.5C 1601.17,662.5 1635.83,662.5 1670.5,662.5C 1670.18,657.305 1670.51,652.305 1671.5,647.5 Z"/></g>
<g><path style="opacity:0.997" fill="#f3922e" d="M 230.5,660.5 C 230.5,668.5 230.5,676.5 230.5,684.5C 195.427,684.174 160.427,684.507 125.5,685.5C 125.5,677.833 125.5,670.167 125.5,662.5C 160.5,661.833 195.5,661.167 230.5,660.5 Z"/></g>
<g><path style="opacity:0.997" fill="#f28c2d" d="M 230.5,684.5 C 230.5,692.5 230.5,700.5 230.5,708.5C 195.5,708.5 160.5,708.5 125.5,708.5C 125.5,700.833 125.5,693.167 125.5,685.5C 160.427,684.507 195.427,684.174 230.5,684.5 Z"/></g>
<g><path style="opacity:0.998" fill="#f6d130" d="M 2122.5,685.5 C 2122.5,702.5 2122.5,719.5 2122.5,736.5C 2083.95,737.151 2045.61,736.484 2007.5,734.5C 2007.5,718.5 2007.5,702.5 2007.5,686.5C 2045.76,685.506 2084.09,685.173 2122.5,685.5 Z"/></g>
<g><path style="opacity:0.998" fill="#f4992d" d="M 1566.5,707.5 C 1601.5,707.5 1636.5,707.5 1671.5,707.5C 1671.5,724.167 1671.5,740.833 1671.5,757.5C 1671.17,757.5 1670.83,757.5 1670.5,757.5C 1670.5,755.167 1670.5,752.833 1670.5,750.5C 1635.83,750.5 1601.17,750.5 1566.5,750.5C 1566.5,736.167 1566.5,721.833 1566.5,707.5 Z"/></g>
<g><path style="opacity:0.997" fill="#f1862d" d="M 125.5,708.5 C 160.5,708.5 195.5,708.5 230.5,708.5C 230.5,716.167 230.5,723.833 230.5,731.5C 194.945,730.85 159.612,731.517 124.5,733.5C 124.691,725.16 125.024,716.826 125.5,708.5 Z"/></g>
<g><path style="opacity:0.993" fill="#f0802d" d="M 230.5,731.5 C 230.5,740.5 230.5,749.5 230.5,758.5C 195.167,758.5 159.833,758.5 124.5,758.5C 124.5,750.167 124.5,741.833 124.5,733.5C 159.612,731.517 194.945,730.85 230.5,731.5 Z"/></g>
<g><path style="opacity:1" fill="#f7cb30" d="M 2007.5,734.5 C 2045.61,736.484 2083.95,737.151 2122.5,736.5C 2122.5,756.167 2122.5,775.833 2122.5,795.5C 2084.5,795.5 2046.5,795.5 2008.5,795.5C 2008.27,775.165 2007.93,754.831 2007.5,734.5 Z"/></g>
<g><path style="opacity:0.998" fill="#f4942d" d="M 1566.5,750.5 C 1601.17,750.5 1635.83,750.5 1670.5,750.5C 1670.5,752.833 1670.5,755.167 1670.5,757.5C 1670.5,760.833 1670.5,764.167 1670.5,767.5C 1635.83,767.5 1601.17,767.5 1566.5,767.5C 1566.5,761.833 1566.5,756.167 1566.5,750.5 Z"/></g>
<g><path style="opacity:0.99" fill="#f3912d" d="M 1670.5,757.5 C 1670.83,757.5 1671.17,757.5 1671.5,757.5C 1671.5,765.5 1671.5,773.5 1671.5,781.5C 1670.54,783.265 1670.21,785.265 1670.5,787.5C 1635.83,787.5 1601.17,787.5 1566.5,787.5C 1566.5,780.833 1566.5,774.167 1566.5,767.5C 1601.17,767.5 1635.83,767.5 1670.5,767.5C 1670.5,764.167 1670.5,760.833 1670.5,757.5 Z"/></g>
<g><path style="opacity:0.99" fill="#ef792d" d="M 124.5,758.5 C 159.833,758.5 195.167,758.5 230.5,758.5C 230.5,766.167 230.5,773.833 230.5,781.5C 195.24,782.493 159.906,782.826 124.5,782.5C 124.5,774.5 124.5,766.5 124.5,758.5 Z"/></g>
<g><path style="opacity:0.991" fill="#ee732d" d="M 230.5,781.5 C 230.5,789.167 230.5,796.833 230.5,804.5C 195.24,805.493 159.906,805.826 124.5,805.5C 124.5,797.833 124.5,790.167 124.5,782.5C 159.906,782.826 195.24,782.493 230.5,781.5 Z"/></g>
<g><path style="opacity:0.99" fill="#f28c2d" d="M 1671.5,781.5 C 1671.5,795.833 1671.5,810.167 1671.5,824.5C 1636.5,824.5 1601.5,824.5 1566.5,824.5C 1566.5,812.167 1566.5,799.833 1566.5,787.5C 1601.17,787.5 1635.83,787.5 1670.5,787.5C 1670.21,785.265 1670.54,783.265 1671.5,781.5 Z"/></g>
<g><path style="opacity:0.999" fill="#f7c430" d="M 2008.5,795.5 C 2046.5,795.5 2084.5,795.5 2122.5,795.5C 2122.5,810.5 2122.5,825.5 2122.5,840.5C 2084.5,840.5 2046.5,840.5 2008.5,840.5C 2008.5,825.5 2008.5,810.5 2008.5,795.5 Z"/></g>
<g><path style="opacity:0.995" fill="#ed6d2c" d="M 230.5,804.5 C 230.5,812.833 230.5,821.167 230.5,829.5C 195.167,829.5 159.833,829.5 124.5,829.5C 124.5,821.5 124.5,813.5 124.5,805.5C 159.906,805.826 195.24,805.493 230.5,804.5 Z"/></g>
<g><path style="opacity:0.99" fill="#f1852d" d="M 1566.5,824.5 C 1601.5,824.5 1636.5,824.5 1671.5,824.5C 1671.5,832.5 1671.5,840.5 1671.5,848.5C 1670.52,852.298 1670.18,856.298 1670.5,860.5C 1555,860.167 1439.67,860.5 1324.5,861.5C 1312.89,858.767 1301.55,855.434 1290.5,851.5C 1382.5,851.5 1474.5,851.5 1566.5,851.5C 1566.5,842.5 1566.5,833.5 1566.5,824.5 Z"/></g>
<g><path style="opacity:0.995" fill="#ec662c" d="M 124.5,829.5 C 159.833,829.5 195.167,829.5 230.5,829.5C 230.5,838.167 230.5,846.833 230.5,855.5C 195.167,856.833 159.833,856.833 124.5,855.5C 124.5,846.833 124.5,838.167 124.5,829.5 Z"/></g>
<g><path style="opacity:0.998" fill="#f6be2f" d="M 2008.5,840.5 C 2046.5,840.5 2084.5,840.5 2122.5,840.5C 2122.5,854.833 2122.5,869.167 2122.5,883.5C 2084.5,883.5 2046.5,883.5 2008.5,883.5C 2008.5,869.167 2008.5,854.833 2008.5,840.5 Z"/></g>
<g><path style="opacity:0.997" fill="#f0802d" d="M 1671.5,848.5 C 1671.5,864.833 1671.5,881.167 1671.5,897.5C 1670.54,899.265 1670.21,901.265 1670.5,903.5C 1606.66,903.168 1543,903.501 1479.5,904.5C 1476.78,904.037 1474.11,903.371 1471.5,902.5C 1457.12,898.656 1442.79,894.656 1428.5,890.5C 1393.71,881.137 1359.05,871.471 1324.5,861.5C 1439.67,860.5 1555,860.167 1670.5,860.5C 1670.18,856.298 1670.52,852.298 1671.5,848.5 Z"/></g>
<g><path style="opacity:0.994" fill="#f6e83b" d="M 939.5,855.5 C 938.508,855.328 937.842,855.662 937.5,856.5C 926.981,858.896 916.648,861.896 906.5,865.5C 897.557,867.594 888.89,870.261 880.5,873.5C 876.397,874.09 872.397,875.09 868.5,876.5C 863.15,878.17 857.817,879.836 852.5,881.5C 848.777,882.297 845.11,883.297 841.5,884.5C 839.883,885.038 838.216,885.371 836.5,885.5C 725.999,885.833 615.665,885.499 505.5,884.5C 524.826,873.836 544.493,863.669 564.5,854C 627,853.833 689.5,853.667 752,853.5C 814.837,853.5 877.337,854.167 939.5,855.5 Z"/></g>
<g><path style="opacity:0.996" fill="#eb5f2b" d="M 124.5,855.5 C 159.833,856.833 195.167,856.833 230.5,855.5C 230.5,867.833 230.5,880.167 230.5,892.5C 195.171,891.801 159.838,891.468 124.5,891.5C 124.5,879.5 124.5,867.5 124.5,855.5 Z"/></g>
<g><path style="opacity:1" fill="#ec682c" d="M 937.5,856.5 C 938.491,863.313 938.825,870.313 938.5,877.5C 927.349,874.454 916.682,870.454 906.5,865.5C 916.648,861.896 926.981,858.896 937.5,856.5 Z"/></g>
<g><path style="opacity:0.997" fill="#f7e433" d="M 1290.5,851.5 C 1301.55,855.434 1312.89,858.767 1324.5,861.5C 1359.05,871.471 1393.71,881.137 1428.5,890.5C 1382.34,891.499 1336,891.832 1289.5,891.5C 1289.77,889.901 1289.43,888.568 1288.5,887.5C 1287.85,875.12 1288.52,863.12 1290.5,851.5 Z"/></g>
<g><path style="opacity:1" fill="#ee722d" d="M 906.5,865.5 C 916.682,870.454 927.349,874.454 938.5,877.5C 938.5,883.167 938.5,888.833 938.5,894.5C 918.894,888.02 899.561,881.02 880.5,873.5C 888.89,870.261 897.557,867.594 906.5,865.5 Z"/></g>
<g><path style="opacity:1" fill="#ef7a2d" d="M 880.5,873.5 C 899.561,881.02 918.894,888.02 938.5,894.5C 938.5,897.5 938.5,900.5 938.5,903.5C 916.859,895.683 895.192,887.85 873.5,880C 871.24,879.451 869.574,878.284 868.5,876.5C 872.397,875.09 876.397,874.09 880.5,873.5 Z"/></g>
<g><path style="opacity:1" fill="#f0802d" d="M 868.5,876.5 C 869.574,878.284 871.24,879.451 873.5,880C 895.192,887.85 916.859,895.683 938.5,903.5C 938.5,906.833 938.5,910.167 938.5,913.5C 909.686,903.009 881.019,892.343 852.5,881.5C 857.817,879.836 863.15,878.17 868.5,876.5 Z"/></g>
<g><path style="opacity:1" fill="#f1862d" d="M 852.5,881.5 C 881.019,892.343 909.686,903.009 938.5,913.5C 938.5,916.167 938.5,918.833 938.5,921.5C 905.742,909.969 873.076,898.136 840.5,886C 841.056,885.617 841.389,885.117 841.5,884.5C 845.11,883.297 848.777,882.297 852.5,881.5 Z"/></g>
<g><path style="opacity:0.997" fill="#f6b82f" d="M 2008.5,883.5 C 2046.5,883.5 2084.5,883.5 2122.5,883.5C 2122.5,898.167 2122.5,912.833 2122.5,927.5C 2084.5,927.5 2046.5,927.5 2008.5,927.5C 2008.5,912.833 2008.5,898.167 2008.5,883.5 Z"/></g>
<g><path style="opacity:0.999" fill="#f7e639" d="M 505.5,884.5 C 615.665,885.499 725.999,885.833 836.5,885.5C 834.021,886.795 831.354,887.795 828.5,888.5C 824.104,889.682 819.771,891.015 815.5,892.5C 809.949,893.797 804.616,895.463 799.5,897.5C 797.5,897.833 795.5,898.167 793.5,898.5C 689.332,898.833 585.332,898.499 481.5,897.5C 489.5,893.167 497.5,888.833 505.5,884.5 Z"/></g>
<g><path style="opacity:1" fill="#f28c2d" d="M 841.5,884.5 C 841.389,885.117 841.056,885.617 840.5,886C 873.076,898.136 905.742,909.969 938.5,921.5C 938.5,924.5 938.5,927.5 938.5,930.5C 901.567,916.91 864.567,903.41 827.5,890C 828.056,889.617 828.389,889.117 828.5,888.5C 831.354,887.795 834.021,886.795 836.5,885.5C 838.216,885.371 839.883,885.038 841.5,884.5 Z"/></g>
<g><path style="opacity:0.816" fill="#f09330" d="M 937.5,856.5 C 937.842,855.662 938.508,855.328 939.5,855.5C 939.5,871.5 939.5,887.5 939.5,903.5C 939.167,903.5 938.833,903.5 938.5,903.5C 938.5,900.5 938.5,897.5 938.5,894.5C 938.5,888.833 938.5,883.167 938.5,877.5C 938.825,870.313 938.491,863.313 937.5,856.5 Z"/></g>
<g><path style="opacity:1" fill="#f3932e" d="M 828.5,888.5 C 828.389,889.117 828.056,889.617 827.5,890C 864.567,903.41 901.567,916.91 938.5,930.5C 938.5,933.167 938.5,935.833 938.5,938.5C 897.967,923.986 857.467,909.32 817,894.5C 815.97,894.164 815.47,893.497 815.5,892.5C 819.771,891.015 824.104,889.682 828.5,888.5 Z"/></g>
<g><path style="opacity:1" fill="#f7dd2f" d="M 1288.5,887.5 C 1289.43,888.568 1289.77,889.901 1289.5,891.5C 1336,891.832 1382.34,891.499 1428.5,890.5C 1442.79,894.656 1457.12,898.656 1471.5,902.5C 1411,903.499 1350.34,903.832 1289.5,903.5C 1289.81,900.615 1289.47,897.948 1288.5,895.5C 1288.5,892.833 1288.5,890.167 1288.5,887.5 Z"/></g>
<g><path style="opacity:1" fill="#f4992e" d="M 815.5,892.5 C 815.47,893.497 815.97,894.164 817,894.5C 857.467,909.32 897.967,923.986 938.5,938.5C 938.5,941.833 938.5,945.167 938.5,948.5C 891.861,932.068 845.528,915.068 799.5,897.5C 804.616,895.463 809.949,893.797 815.5,892.5 Z"/></g>
<g><path style="opacity:0.994" fill="#f7e535" d="M 481.5,897.5 C 585.332,898.499 689.332,898.833 793.5,898.5C 790.659,899.669 787.659,900.669 784.5,901.5C 779.15,903.17 773.817,904.836 768.5,906.5C 762.949,907.797 757.616,909.463 752.5,911.5C 746.561,912.594 740.894,914.261 735.5,916.5C 729.681,917.704 724.015,919.371 718.5,921.5C 712.95,922.796 707.617,924.463 702.5,926.5C 697.378,927.43 692.378,928.764 687.5,930.5C 679.948,932.463 672.615,934.796 665.5,937.5C 659.376,938.764 653.376,940.431 647.5,942.5C 641.758,943.97 636.092,945.637 630.5,947.5C 623.833,949.5 617.167,951.5 610.5,953.5C 606.032,954.536 601.699,956.036 597.5,958C 711.344,1000 825.344,1041.5 939.5,1082.5C 939.5,1091.83 939.5,1101.17 939.5,1110.5C 829.162,1063.44 718.829,1016.27 608.5,969C 602.124,966.93 595.791,964.764 589.5,962.5C 585.484,964.176 581.484,965.843 577.5,967.5C 501.332,967.833 425.332,967.499 349.5,966.5C 392.901,942.465 436.901,919.465 481.5,897.5 Z"/></g>
<g><path style="opacity:1" fill="#f59f2e" d="M 799.5,897.5 C 845.528,915.068 891.861,932.068 938.5,948.5C 938.5,951.833 938.5,955.167 938.5,958.5C 888.831,940.776 839.164,922.943 789.5,905C 787.24,904.451 785.574,903.284 784.5,901.5C 787.659,900.669 790.659,899.669 793.5,898.5C 795.5,898.167 797.5,897.833 799.5,897.5 Z"/></g>
<g><path style="opacity:0.992" fill="#ef7a2d" d="M 1671.5,897.5 C 1671.83,918.007 1671.5,938.34 1670.5,958.5C 1663.34,955.873 1656.01,953.539 1648.5,951.5C 1636.41,948.478 1624.41,945.145 1612.5,941.5C 1594.41,936.811 1576.41,931.811 1558.5,926.5C 1543.79,922.709 1529.13,918.709 1514.5,914.5C 1502.76,911.315 1491.09,907.982 1479.5,904.5C 1543,903.501 1606.66,903.168 1670.5,903.5C 1670.21,901.265 1670.54,899.265 1671.5,897.5 Z"/></g>
<g><path style="opacity:1" fill="#f5a52e" d="M 784.5,901.5 C 785.574,903.284 787.24,904.451 789.5,905C 839.164,922.943 888.831,940.776 938.5,958.5C 938.5,962.167 938.5,965.833 938.5,969.5C 881.523,948.997 824.856,927.997 768.5,906.5C 773.817,904.836 779.15,903.17 784.5,901.5 Z"/></g>
<g><path style="opacity:1" fill="#f7d72f" d="M 1471.5,902.5 C 1474.11,903.371 1476.78,904.037 1479.5,904.5C 1491.09,907.982 1502.76,911.315 1514.5,914.5C 1439.67,915.499 1364.67,915.833 1289.5,915.5C 1289.5,911.5 1289.5,907.5 1289.5,903.5C 1350.34,903.832 1411,903.499 1471.5,902.5 Z"/></g>
<g><path style="opacity:1" fill="#f6ab2f" d="M 768.5,906.5 C 824.856,927.997 881.523,948.997 938.5,969.5C 938.82,972.898 938.487,976.232 937.5,979.5C 875.581,957.197 813.914,934.531 752.5,911.5C 757.616,909.463 762.949,907.797 768.5,906.5 Z"/></g>
<g><path style="opacity:1" fill="#f5b22f" d="M 938.5,903.5 C 938.833,903.5 939.167,903.5 939.5,903.5C 939.5,931.833 939.5,960.167 939.5,988.5C 938.596,989.209 938.263,990.209 938.5,991.5C 872.421,967.973 806.421,944.14 740.5,920C 738.24,919.451 736.574,918.284 735.5,916.5C 740.894,914.261 746.561,912.594 752.5,911.5C 813.914,934.531 875.581,957.197 937.5,979.5C 938.487,976.232 938.82,972.898 938.5,969.5C 938.5,965.833 938.5,962.167 938.5,958.5C 938.5,955.167 938.5,951.833 938.5,948.5C 938.5,945.167 938.5,941.833 938.5,938.5C 938.5,935.833 938.5,933.167 938.5,930.5C 938.5,927.5 938.5,924.5 938.5,921.5C 938.5,918.833 938.5,916.167 938.5,913.5C 938.5,910.167 938.5,906.833 938.5,903.5 Z"/></g>
<g><path style="opacity:1" fill="#f6d12f" d="M 1514.5,914.5 C 1529.13,918.709 1543.79,922.709 1558.5,926.5C 1469,927.499 1379.33,927.833 1289.5,927.5C 1289.5,923.5 1289.5,919.5 1289.5,915.5C 1364.67,915.833 1439.67,915.499 1514.5,914.5 Z"/></g>
<g><path style="opacity:1" fill="#f6b82f" d="M 735.5,916.5 C 736.574,918.284 738.24,919.451 740.5,920C 806.421,944.14 872.421,967.973 938.5,991.5C 938.5,995.167 938.5,998.833 938.5,1002.5C 864.943,975.872 791.609,948.872 718.5,921.5C 724.015,919.371 729.681,917.704 735.5,916.5 Z"/></g>
<g><path style="opacity:1" fill="#f6be2f" d="M 718.5,921.5 C 791.609,948.872 864.943,975.872 938.5,1002.5C 938.82,1005.9 938.487,1009.23 937.5,1012.5C 859.068,983.804 780.735,955.137 702.5,926.5C 707.617,924.463 712.95,922.796 718.5,921.5 Z"/></g>
<g><path style="opacity:1" fill="#f7c430" d="M 702.5,926.5 C 780.735,955.137 859.068,983.804 937.5,1012.5C 938.487,1009.23 938.82,1005.9 938.5,1002.5C 938.5,998.833 938.5,995.167 938.5,991.5C 938.263,990.209 938.596,989.209 939.5,988.5C 939.5,1000.17 939.5,1011.83 939.5,1023.5C 939.167,1023.5 938.833,1023.5 938.5,1023.5C 855.477,992.88 772.31,962.547 689,932.5C 687.97,932.164 687.47,931.497 687.5,930.5C 692.378,928.764 697.378,927.43 702.5,926.5 Z"/></g>
<g><path style="opacity:1" fill="#f6ca2f" d="M 1558.5,926.5 C 1576.41,931.811 1594.41,936.811 1612.5,941.5C 1505,942.499 1397.33,942.833 1289.5,942.5C 1289.5,937.5 1289.5,932.5 1289.5,927.5C 1379.33,927.833 1469,927.499 1558.5,926.5 Z"/></g>
<g><path style="opacity:0.997" fill="#f6b22f" d="M 2008.5,927.5 C 2046.5,927.5 2084.5,927.5 2122.5,927.5C 2122.5,944.5 2122.5,961.5 2122.5,978.5C 2084.43,978.827 2046.43,978.493 2008.5,977.5C 2008.5,960.833 2008.5,944.167 2008.5,927.5 Z"/></g>
<g><path style="opacity:1" fill="#f7cb30" d="M 687.5,930.5 C 687.47,931.497 687.97,932.164 689,932.5C 772.31,962.547 855.477,992.88 938.5,1023.5C 938.666,1028.18 938.499,1032.85 938,1037.5C 847.039,1004.26 756.206,970.925 665.5,937.5C 672.615,934.796 679.948,932.463 687.5,930.5 Z"/></g>
<g><path style="opacity:0.999" fill="#f7d130" d="M 665.5,937.5 C 756.206,970.925 847.039,1004.26 938,1037.5C 938.499,1032.85 938.666,1028.18 938.5,1023.5C 938.833,1023.5 939.167,1023.5 939.5,1023.5C 939.5,1030.83 939.5,1038.17 939.5,1045.5C 938.71,1046.61 938.21,1047.94 938,1049.5C 844.336,1014.94 750.503,980.778 656.5,947C 653.141,945.953 650.141,944.453 647.5,942.5C 653.376,940.431 659.376,938.764 665.5,937.5 Z"/></g>
<g><path style="opacity:0.999" fill="#f7d730" d="M 647.5,942.5 C 650.141,944.453 653.141,945.953 656.5,947C 750.503,980.778 844.336,1014.94 938,1049.5C 938.21,1047.94 938.71,1046.61 939.5,1045.5C 939.5,1051.5 939.5,1057.5 939.5,1063.5C 938.251,1061.86 936.584,1060.7 934.5,1060C 832.833,1023 731.167,986 629.5,949C 630.056,948.617 630.389,948.117 630.5,947.5C 636.092,945.637 641.758,943.97 647.5,942.5 Z"/></g>
<g><path style="opacity:1" fill="#f6c42f" d="M 1288.5,895.5 C 1289.47,897.948 1289.81,900.615 1289.5,903.5C 1289.5,907.5 1289.5,911.5 1289.5,915.5C 1289.5,919.5 1289.5,923.5 1289.5,927.5C 1289.5,932.5 1289.5,937.5 1289.5,942.5C 1397.33,942.833 1505,942.499 1612.5,941.5C 1624.41,945.145 1636.41,948.478 1648.5,951.5C 1529,952.5 1409.33,952.833 1289.5,952.5C 1289.8,949.941 1289.47,947.607 1288.5,945.5C 1288.5,928.833 1288.5,912.167 1288.5,895.5 Z"/></g>
<g><path style="opacity:0.999" fill="#f8dd30" d="M 630.5,947.5 C 630.389,948.117 630.056,948.617 629.5,949C 731.167,986 832.833,1023 934.5,1060C 936.584,1060.7 938.251,1061.86 939.5,1063.5C 939.5,1069.5 939.5,1075.5 939.5,1081.5C 938.834,1078.97 938.168,1076.31 937.5,1073.5C 828.248,1033.86 719.248,993.864 610.5,953.5C 617.167,951.5 623.833,949.5 630.5,947.5 Z"/></g>
<g><path style="opacity:1" fill="#f6be2f" d="M 1648.5,951.5 C 1656.01,953.539 1663.34,955.873 1670.5,958.5C 1666.28,960.441 1661.95,962.108 1657.5,963.5C 1534.83,963.5 1412.17,963.5 1289.5,963.5C 1289.5,959.833 1289.5,956.167 1289.5,952.5C 1409.33,952.833 1529,952.5 1648.5,951.5 Z"/></g>
<g><path style="opacity:1" fill="#f8e230" d="M 610.5,953.5 C 719.248,993.864 828.248,1033.86 937.5,1073.5C 938.168,1076.31 938.834,1078.97 939.5,1081.5C 939.5,1081.83 939.5,1082.17 939.5,1082.5C 825.344,1041.5 711.344,1000 597.5,958C 601.699,956.036 606.032,954.536 610.5,953.5 Z"/></g>
<g><path style="opacity:1" fill="#f5b82e" d="M 1288.5,945.5 C 1289.47,947.607 1289.8,949.941 1289.5,952.5C 1289.5,956.167 1289.5,959.833 1289.5,963.5C 1412.17,963.5 1534.83,963.5 1657.5,963.5C 1656.22,964.931 1654.55,965.598 1652.5,965.5C 1645.18,968.16 1637.84,970.827 1630.5,973.5C 1516.83,973.5 1403.17,973.5 1289.5,973.5C 1289.17,973.5 1288.83,973.5 1288.5,973.5C 1288.5,964.167 1288.5,954.833 1288.5,945.5 Z"/></g>
<g><path style="opacity:0.995" fill="#f8e230" d="M 349.5,966.5 C 425.332,967.499 501.332,967.833 577.5,967.5C 554.841,979.163 532.174,990.83 509.5,1002.5C 434.002,1001.5 358.335,1001.17 282.5,1001.5C 304.043,988.56 326.376,976.893 349.5,966.5 Z"/></g>
<g><path style="opacity:0.545" fill="#f1772e" d="M 1652.5,965.5 C 1643.97,970.127 1634.97,973.794 1625.5,976.5C 1627.07,975.313 1628.74,974.313 1630.5,973.5C 1637.84,970.827 1645.18,968.16 1652.5,965.5 Z"/></g>
<g><path style="opacity:1" fill="#f5b12e" d="M 1289.5,973.5 C 1403.17,973.5 1516.83,973.5 1630.5,973.5C 1628.74,974.313 1627.07,975.313 1625.5,976.5C 1622.46,976.733 1619.79,977.733 1617.5,979.5C 1612.9,982.262 1607.9,984.262 1602.5,985.5C 1498.2,986.493 1393.86,986.827 1289.5,986.5C 1289.5,982.167 1289.5,977.833 1289.5,973.5 Z"/></g>
<g><path style="opacity:0.995" fill="#f6ab2f" d="M 2008.5,977.5 C 2046.43,978.493 2084.43,978.827 2122.5,978.5C 2122.5,993.167 2122.5,1007.83 2122.5,1022.5C 2084.28,1021.85 2046.28,1022.52 2008.5,1024.5C 2008.5,1008.83 2008.5,993.167 2008.5,977.5 Z"/></g>
<g><path style="opacity:0.514" fill="#f28030" d="M 1625.5,976.5 C 1623.21,978.267 1620.54,979.267 1617.5,979.5C 1619.79,977.733 1622.46,976.733 1625.5,976.5 Z"/></g>
<g><path style="opacity:1" fill="#f5ab2e" d="M 1602.5,985.5 C 1597.14,988.403 1591.47,990.736 1585.5,992.5C 1581.44,993.632 1577.44,994.965 1573.5,996.5C 1478.83,996.5 1384.17,996.5 1289.5,996.5C 1289.5,993.167 1289.5,989.833 1289.5,986.5C 1393.86,986.827 1498.2,986.493 1602.5,985.5 Z"/></g>
<g><path style="opacity:1" fill="#f5a52e" d="M 1289.5,996.5 C 1384.17,996.5 1478.83,996.5 1573.5,996.5C 1566.67,999.112 1560,1002.11 1553.5,1005.5C 1551.44,1005.69 1549.44,1006.19 1547.5,1007C 1461.5,1007.5 1375.5,1007.67 1289.5,1007.5C 1289.5,1003.83 1289.5,1000.17 1289.5,996.5 Z"/></g>
<g><path style="opacity:0.137" fill="#f0732e" d="M 1585.5,992.5 C 1575.34,997.905 1564.68,1002.24 1553.5,1005.5C 1560,1002.11 1566.67,999.112 1573.5,996.5C 1577.44,994.965 1581.44,993.632 1585.5,992.5 Z"/></g>
<g><path style="opacity:0.994" fill="#f8dd2f" d="M 282.5,1001.5 C 358.335,1001.17 434.002,1001.5 509.5,1002.5C 478.416,1017.21 447.416,1032.21 416.5,1047.5C 342.331,1047.83 268.331,1047.5 194.5,1046.5C 223.826,1031.5 253.159,1016.5 282.5,1001.5 Z"/></g>
<g><path style="opacity:1" fill="#f49e2d" d="M 1288.5,973.5 C 1288.83,973.5 1289.17,973.5 1289.5,973.5C 1289.5,977.833 1289.5,982.167 1289.5,986.5C 1289.5,989.833 1289.5,993.167 1289.5,996.5C 1289.5,1000.17 1289.5,1003.83 1289.5,1007.5C 1375.5,1007.67 1461.5,1007.5 1547.5,1007C 1549.44,1006.19 1551.44,1005.69 1553.5,1005.5C 1544.39,1009.54 1535.06,1013.21 1525.5,1016.5C 1446.86,1017.49 1368.2,1017.82 1289.5,1017.5C 1289.8,1014.94 1289.47,1012.61 1288.5,1010.5C 1288.5,998.167 1288.5,985.833 1288.5,973.5 Z"/></g>
<g><path style="opacity:1" fill="#f4982d" d="M 1288.5,1010.5 C 1289.47,1012.61 1289.8,1014.94 1289.5,1017.5C 1368.2,1017.82 1446.86,1017.49 1525.5,1016.5C 1516.9,1020.96 1507.9,1024.63 1498.5,1027.5C 1428.83,1027.5 1359.17,1027.5 1289.5,1027.5C 1289.77,1025.9 1289.43,1024.57 1288.5,1023.5C 1288.5,1019.17 1288.5,1014.83 1288.5,1010.5 Z"/></g>
<g><path style="opacity:0.995" fill="#f5a52e" d="M 2122.5,1022.5 C 2122.5,1037.17 2122.5,1051.83 2122.5,1066.5C 2084.28,1065.85 2046.28,1066.52 2008.5,1068.5C 2008.5,1053.83 2008.5,1039.17 2008.5,1024.5C 2046.28,1022.52 2084.28,1021.85 2122.5,1022.5 Z"/></g>
<g><path style="opacity:1" fill="#f3912d" d="M 1288.5,1023.5 C 1289.43,1024.57 1289.77,1025.9 1289.5,1027.5C 1359.17,1027.5 1428.83,1027.5 1498.5,1027.5C 1491.23,1031.3 1483.56,1034.3 1475.5,1036.5C 1413.5,1036.5 1351.5,1036.5 1289.5,1036.5C 1289.74,1035.21 1289.4,1034.21 1288.5,1033.5C 1288.5,1030.17 1288.5,1026.83 1288.5,1023.5 Z"/></g>
<g><path style="opacity:1" fill="#f28c2d" d="M 1289.5,1036.5 C 1351.5,1036.5 1413.5,1036.5 1475.5,1036.5C 1470.14,1039.4 1464.47,1041.74 1458.5,1043.5C 1402.2,1044.49 1345.86,1044.82 1289.5,1044.5C 1289.5,1041.83 1289.5,1039.17 1289.5,1036.5 Z"/></g>
<g><path style="opacity:0.999" fill="#f07f2c" d="M 1288.5,1033.5 C 1289.4,1034.21 1289.74,1035.21 1289.5,1036.5C 1289.5,1039.17 1289.5,1041.83 1289.5,1044.5C 1289.5,1047.5 1289.5,1050.5 1289.5,1053.5C 1337.5,1053.67 1385.5,1053.5 1433.5,1053C 1437.65,1050.92 1441.99,1049.42 1446.5,1048.5C 1441.88,1051.27 1436.88,1053.27 1431.5,1054.5C 1423.1,1057.3 1414.77,1060.3 1406.5,1063.5C 1367.5,1063.5 1328.5,1063.5 1289.5,1063.5C 1289.8,1060.94 1289.47,1058.61 1288.5,1056.5C 1288.5,1048.83 1288.5,1041.17 1288.5,1033.5 Z"/></g>
<g><path style="opacity:1" fill="#f1862d" d="M 1458.5,1043.5 C 1454.8,1045.68 1450.8,1047.35 1446.5,1048.5C 1441.99,1049.42 1437.65,1050.92 1433.5,1053C 1385.5,1053.5 1337.5,1053.67 1289.5,1053.5C 1289.5,1050.5 1289.5,1047.5 1289.5,1044.5C 1345.86,1044.82 1402.2,1044.49 1458.5,1043.5 Z"/></g>
<g><path style="opacity:0.995" fill="#f7d730" d="M 194.5,1046.5 C 268.331,1047.5 342.331,1047.83 416.5,1047.5C 411.395,1050.89 406.062,1054.06 400.5,1057C 373.933,1070.12 347.267,1082.95 320.5,1095.5C 255.669,1094.5 190.669,1094.17 125.5,1094.5C 125.752,1090.23 126.419,1086.07 127.5,1082C 150.204,1070.65 172.537,1058.82 194.5,1046.5 Z"/></g>
<g><path style="opacity:0.999" fill="#ee732d" d="M 1288.5,1056.5 C 1289.47,1058.61 1289.8,1060.94 1289.5,1063.5C 1289.5,1066.17 1289.5,1068.83 1289.5,1071.5C 1321.83,1071.5 1354.17,1071.5 1386.5,1071.5C 1379.8,1074.8 1372.8,1077.63 1365.5,1080C 1340.17,1080.5 1314.84,1080.67 1289.5,1080.5C 1289.79,1078.26 1289.46,1076.26 1288.5,1074.5C 1288.5,1068.5 1288.5,1062.5 1288.5,1056.5 Z"/></g>
<g><path style="opacity:1" fill="#ef792d" d="M 1289.5,1063.5 C 1328.5,1063.5 1367.5,1063.5 1406.5,1063.5C 1400.13,1066.68 1393.46,1069.35 1386.5,1071.5C 1354.17,1071.5 1321.83,1071.5 1289.5,1071.5C 1289.5,1068.83 1289.5,1066.17 1289.5,1063.5 Z"/></g>
<g><path style="opacity:0.995" fill="#f59f2e" d="M 2122.5,1066.5 C 2122.5,1080.83 2122.5,1095.17 2122.5,1109.5C 2084.28,1108.85 2046.28,1109.52 2008.5,1111.5C 2008.5,1097.17 2008.5,1082.83 2008.5,1068.5C 2046.28,1066.52 2084.28,1065.85 2122.5,1066.5 Z"/></g>
<g><path style="opacity:0.998" fill="#ed6c2c" d="M 1431.5,1054.5 C 1408.24,1064.96 1384.58,1074.62 1360.5,1083.5C 1355.45,1084.68 1350.45,1086.18 1345.5,1088C 1336.17,1088.17 1326.83,1088.33 1317.5,1088.5C 1307.6,1088.47 1297.94,1087.81 1288.5,1086.5C 1288.5,1082.5 1288.5,1078.5 1288.5,1074.5C 1289.46,1076.26 1289.79,1078.26 1289.5,1080.5C 1314.84,1080.67 1340.17,1080.5 1365.5,1080C 1372.8,1077.63 1379.8,1074.8 1386.5,1071.5C 1393.46,1069.35 1400.13,1066.68 1406.5,1063.5C 1414.77,1060.3 1423.1,1057.3 1431.5,1054.5 Z"/></g>
<g><path style="opacity:0.999" fill="#ec652b" d="M 1360.5,1083.5 C 1337,1093.91 1313,1103.24 1288.5,1111.5C 1288.5,1103.17 1288.5,1094.83 1288.5,1086.5C 1297.94,1087.81 1307.6,1088.47 1317.5,1088.5C 1326.83,1088.33 1336.17,1088.17 1345.5,1088C 1350.45,1086.18 1355.45,1084.68 1360.5,1083.5 Z"/></g>
<g><path style="opacity:0.993" fill="#f6d130" d="M 125.5,1094.5 C 190.669,1094.17 255.669,1094.5 320.5,1095.5C 291.135,1110.52 261.802,1125.52 232.5,1140.5C 196.833,1140.5 161.167,1140.5 125.5,1140.5C 125.5,1125.17 125.5,1109.83 125.5,1094.5 Z"/></g>
<g><path style="opacity:0.995" fill="#f4992d" d="M 2122.5,1109.5 C 2122.5,1123.83 2122.5,1138.17 2122.5,1152.5C 2082,1152.83 2041.66,1152.5 2001.5,1151.5C 2003.55,1149.72 2005.71,1148.05 2008,1146.5C 2008.5,1134.84 2008.67,1123.17 2008.5,1111.5C 2046.28,1109.52 2084.28,1108.85 2122.5,1109.5 Z"/></g>
<g><path style="opacity:0.995" fill="#f7cb30" d="M 125.5,1140.5 C 161.167,1140.5 196.833,1140.5 232.5,1140.5C 231.938,1158.16 231.604,1175.83 231.5,1193.5C 196.24,1194.49 160.906,1194.83 125.5,1194.5C 125.5,1176.5 125.5,1158.5 125.5,1140.5 Z"/></g>
<g><path style="opacity:0.997" fill="#f3912e" d="M 2001.5,1151.5 C 2041.66,1152.5 2082,1152.83 2122.5,1152.5C 2122.5,1164.17 2122.5,1175.83 2122.5,1187.5C 2063.82,1188.16 2005.49,1187.5 1947.5,1185.5C 1965.5,1174.17 1983.5,1162.83 2001.5,1151.5 Z"/></g>
<g><path style="opacity:0.974" fill="#f6e83b" d="M 1435.5,1218.5 C 1209.4,1217.17 983.402,1217.17 757.5,1218.5C 747.849,1208.57 738.182,1198.57 728.5,1188.5C 973.5,1187.17 1218.5,1187.17 1463.5,1188.5C 1454.48,1198.85 1445.15,1208.85 1435.5,1218.5 Z"/></g>
<g><path style="opacity:0.995" fill="#f28c2d" d="M 1947.5,1185.5 C 2005.49,1187.5 2063.82,1188.16 2122.5,1187.5C 2122.67,1193.51 2122.5,1199.51 2122,1205.5C 2112.06,1212.22 2101.89,1218.55 2091.5,1224.5C 2023.74,1223.84 1956.07,1223.17 1888.5,1222.5C 1908.43,1210.56 1928.1,1198.23 1947.5,1185.5 Z"/></g>
<g><path style="opacity:0.996" fill="#f7c430" d="M 231.5,1193.5 C 231.5,1207.5 231.5,1221.5 231.5,1235.5C 195.833,1235.5 160.167,1235.5 124.5,1235.5C 125.446,1221.87 125.78,1208.2 125.5,1194.5C 160.906,1194.83 196.24,1194.49 231.5,1193.5 Z"/></g>
<g><path style="opacity:0.999" fill="#f7e739" d="M 1435.5,1218.5 C 1431.83,1222.83 1427.83,1226.83 1423.5,1230.5C 1205,1229.5 986.334,1229.17 767.5,1229.5C 764.195,1225.86 760.862,1222.19 757.5,1218.5C 983.402,1217.17 1209.4,1217.17 1435.5,1218.5 Z"/></g>
<g><path style="opacity:0.995" fill="#f1862d" d="M 1888.5,1222.5 C 1956.07,1223.17 2023.74,1223.84 2091.5,1224.5C 2073.03,1235.9 2054.7,1247.57 2036.5,1259.5C 1968.67,1258.5 1900.67,1258.17 1832.5,1258.5C 1850.79,1246.01 1869.46,1234.01 1888.5,1222.5 Z"/></g>
<g><path style="opacity:0.998" fill="#f7e535" d="M 767.5,1229.5 C 986.334,1229.17 1205,1229.5 1423.5,1230.5C 1403.87,1252.47 1383.54,1273.8 1362.5,1294.5C 1184.83,1293.17 1007.17,1293.17 829.5,1294.5C 808.861,1272.86 788.194,1251.19 767.5,1229.5 Z"/></g>
<g><path style="opacity:0.991" fill="#f6be2f" d="M 124.5,1235.5 C 160.167,1235.5 195.833,1235.5 231.5,1235.5C 231.5,1248.83 231.5,1262.17 231.5,1275.5C 195.833,1274.17 160.167,1274.17 124.5,1275.5C 124.5,1262.17 124.5,1248.83 124.5,1235.5 Z"/></g>
<g><path style="opacity:0.994" fill="#f0802d" d="M 1832.5,1258.5 C 1900.67,1258.17 1968.67,1258.5 2036.5,1259.5C 2014.04,1274.24 1991.04,1288.24 1967.5,1301.5C 1900.67,1300.5 1833.67,1300.17 1766.5,1300.5C 1788.23,1286.11 1810.23,1272.11 1832.5,1258.5 Z"/></g>
<g><path style="opacity:0.992" fill="#f6b82f" d="M 231.5,1275.5 C 231.5,1288.5 231.5,1301.5 231.5,1314.5C 195.76,1314.83 160.094,1314.49 124.5,1313.5C 124.5,1300.83 124.5,1288.17 124.5,1275.5C 160.167,1274.17 195.833,1274.17 231.5,1275.5 Z"/></g>
<g><path style="opacity:0.999" fill="#f8e230" d="M 1362.5,1294.5 C 1353.51,1304.83 1344.17,1314.83 1334.5,1324.5C 1175.83,1324.5 1017.17,1324.5 858.5,1324.5C 848.382,1314.93 838.716,1304.93 829.5,1294.5C 1007.17,1293.17 1184.83,1293.17 1362.5,1294.5 Z"/></g>
<g><path style="opacity:0.995" fill="#ef792c" d="M 1766.5,1300.5 C 1833.67,1300.17 1900.67,1300.5 1967.5,1301.5C 1949.68,1313.58 1931.34,1324.92 1912.5,1335.5C 1845.5,1335.5 1778.5,1335.5 1711.5,1335.5C 1729.63,1323.6 1747.96,1311.93 1766.5,1300.5 Z"/></g>
<g><path style="opacity:0.996" fill="#f6b22e" d="M 124.5,1313.5 C 160.094,1314.49 195.76,1314.83 231.5,1314.5C 230.531,1330.12 230.197,1345.79 230.5,1361.5C 195.167,1361.5 159.833,1361.5 124.5,1361.5C 124.5,1345.5 124.5,1329.5 124.5,1313.5 Z"/></g>
<g><path style="opacity:0.998" fill="#f8dd30" d="M 858.5,1324.5 C 1017.17,1324.5 1175.83,1324.5 1334.5,1324.5C 1320.5,1339.83 1306.17,1354.83 1291.5,1369.5C 1161.5,1367.5 1031.17,1366.84 900.5,1367.5C 885.802,1353.8 871.802,1339.47 858.5,1324.5 Z"/></g>
<g><path style="opacity:0.995" fill="#ee732c" d="M 1711.5,1335.5 C 1778.5,1335.5 1845.5,1335.5 1912.5,1335.5C 1906.68,1339.8 1900.68,1343.97 1894.5,1348C 1880.47,1355.67 1866.81,1363.84 1853.5,1372.5C 1787.34,1371.5 1721,1371.17 1654.5,1371.5C 1672.99,1358.75 1691.99,1346.75 1711.5,1335.5 Z"/></g>
<g><path style="opacity:0.995" fill="#f6ab2f" d="M 124.5,1361.5 C 159.833,1361.5 195.167,1361.5 230.5,1361.5C 230.5,1374.83 230.5,1388.17 230.5,1401.5C 194.76,1401.83 159.094,1401.49 123.5,1400.5C 123.54,1387.49 123.874,1374.49 124.5,1361.5 Z"/></g>
<g><path style="opacity:0.998" fill="#f7d730" d="M 900.5,1367.5 C 1031.17,1366.84 1161.5,1367.5 1291.5,1369.5C 1278.53,1384.14 1264.86,1398.14 1250.5,1411.5C 1148,1411.17 1045.67,1411.5 943.5,1412.5C 929.562,1398.06 915.396,1383.73 901,1369.5C 900.536,1368.91 900.369,1368.24 900.5,1367.5 Z"/></g>
<g><path style="opacity:0.995" fill="#ee6f2c" d="M 1654.5,1371.5 C 1721,1371.17 1787.34,1371.5 1853.5,1372.5C 1843.76,1378.9 1833.76,1384.9 1823.5,1390.5C 1757.9,1389.5 1692.24,1389.17 1626.5,1389.5C 1635.54,1383.14 1644.88,1377.14 1654.5,1371.5 Z"/></g>
<g><path style="opacity:0.998" fill="#ed6b2b" d="M 1626.5,1389.5 C 1692.24,1389.17 1757.9,1389.5 1823.5,1390.5C 1815.1,1396.22 1806.44,1401.56 1797.5,1406.5C 1731.82,1407.16 1666.49,1406.5 1601.5,1404.5C 1609.59,1399.08 1617.92,1394.08 1626.5,1389.5 Z"/></g>
<g><path style="opacity:0.989" fill="#f5a52e" d="M 123.5,1400.5 C 159.094,1401.49 194.76,1401.83 230.5,1401.5C 230.5,1414.83 230.5,1428.17 230.5,1441.5C 194.76,1441.17 159.094,1441.51 123.5,1442.5C 123.5,1428.5 123.5,1414.5 123.5,1400.5 Z"/></g>
<g><path style="opacity:0.996" fill="#ec672b" d="M 1601.5,1404.5 C 1666.49,1406.5 1731.82,1407.16 1797.5,1406.5C 1779.05,1417.56 1761.05,1429.4 1743.5,1442C 1738.94,1444.78 1734.27,1447.28 1729.5,1449.5C 1689,1448.5 1648.34,1448.17 1607.5,1448.5C 1600.14,1437.63 1593.14,1426.47 1586.5,1415C 1591.15,1411.01 1596.15,1407.51 1601.5,1404.5 Z"/></g>
<g><path style="opacity:0.992" fill="#f7d12f" d="M 2017.5,1456.5 C 1979.72,1454.52 1941.72,1453.85 1903.5,1454.5C 1902.74,1439.51 1902.41,1424.51 1902.5,1409.5C 1941.2,1410.4 1979.87,1411.73 2018.5,1413.5C 2018.35,1427.84 2018.02,1442.17 2017.5,1456.5 Z"/></g>
<g><path style="opacity:0.997" fill="#f7d130" d="M 1250.5,1411.5 C 1237.17,1426.16 1223.5,1440.5 1209.5,1454.5C 1134.17,1454.5 1058.83,1454.5 983.5,1454.5C 969.829,1440.83 956.496,1426.83 943.5,1412.5C 1045.67,1411.5 1148,1411.17 1250.5,1411.5 Z"/></g>
<g><path style="opacity:0.985" fill="#f6e83a" d="M 643.5,1463.5 C 608.5,1463.5 573.5,1463.5 538.5,1463.5C 538.806,1466.39 538.473,1469.05 537.5,1471.5C 537.5,1456.5 537.5,1441.5 537.5,1426.5C 572.833,1426.5 608.167,1426.5 643.5,1426.5C 643.5,1438.83 643.5,1451.17 643.5,1463.5 Z"/></g>
<g><path style="opacity:0.995" fill="#f59f2e" d="M 230.5,1441.5 C 230.603,1454.51 230.27,1467.51 229.5,1480.5C 194.167,1480.5 158.833,1480.5 123.5,1480.5C 123.5,1467.83 123.5,1455.17 123.5,1442.5C 159.094,1441.51 194.76,1441.17 230.5,1441.5 Z"/></g>
<g><path style="opacity:0.991" fill="#eb602b" d="M 1607.5,1448.5 C 1648.34,1448.17 1689,1448.5 1729.5,1449.5C 1700.65,1467.85 1671.48,1485.85 1642,1503.5C 1630.49,1485.14 1618.99,1466.81 1607.5,1448.5 Z"/></g>
<g><path style="opacity:0.994" fill="#f7cb30" d="M 983.5,1454.5 C 1058.83,1454.5 1134.17,1454.5 1209.5,1454.5C 1194.2,1472.13 1178.2,1489.13 1161.5,1505.5C 1118,1504.5 1074.34,1504.17 1030.5,1504.5C 1014.13,1488.46 998.462,1471.8 983.5,1454.5 Z"/></g>
<g><path style="opacity:0.994" fill="#f7cb2f" d="M 1903.5,1454.5 C 1941.72,1453.85 1979.72,1454.52 2017.5,1456.5C 2016.81,1471.83 2016.14,1487.16 2015.5,1502.5C 1978.31,1504.83 1940.98,1505.16 1903.5,1503.5C 1903.5,1487.17 1903.5,1470.83 1903.5,1454.5 Z"/></g>
<g><path style="opacity:0.993" fill="#f7e535" d="M 643.5,1463.5 C 643.5,1480.17 643.5,1496.83 643.5,1513.5C 642.527,1515.95 642.194,1518.61 642.5,1521.5C 607.5,1521.5 572.5,1521.5 537.5,1521.5C 537.5,1504.83 537.5,1488.17 537.5,1471.5C 538.473,1469.05 538.806,1466.39 538.5,1463.5C 573.5,1463.5 608.5,1463.5 643.5,1463.5 Z"/></g>
<g><path style="opacity:0.997" fill="#f4992e" d="M 123.5,1480.5 C 158.833,1480.5 194.167,1480.5 229.5,1480.5C 229.5,1493.5 229.5,1506.5 229.5,1519.5C 194.167,1519.5 158.833,1519.5 123.5,1519.5C 123.5,1506.5 123.5,1493.5 123.5,1480.5 Z"/></g>
<g><path style="opacity:0.992" fill="#f7c42f" d="M 2015.5,1502.5 C 2014.99,1515.83 2014.66,1529.16 2014.5,1542.5C 1977.5,1541.17 1940.5,1541.17 1903.5,1542.5C 1903.5,1529.5 1903.5,1516.5 1903.5,1503.5C 1940.98,1505.16 1978.31,1504.83 2015.5,1502.5 Z"/></g>
<g><path style="opacity:0.992" fill="#f7c430" d="M 1030.5,1504.5 C 1074.34,1504.17 1118,1504.5 1161.5,1505.5C 1157.85,1509.81 1153.85,1513.81 1149.5,1517.5C 1148.5,1525.47 1148.17,1533.47 1148.5,1541.5C 1113.83,1541.5 1079.17,1541.5 1044.5,1541.5C 1044.8,1544.06 1044.47,1546.39 1043.5,1548.5C 1043.67,1538.16 1043.5,1527.83 1043,1517.5C 1038.63,1513.3 1034.46,1508.96 1030.5,1504.5 Z"/></g>
<g><path style="opacity:0.989" fill="#f8e230" d="M 643.5,1513.5 C 643.5,1527.5 643.5,1541.5 643.5,1555.5C 642.539,1553.74 642.205,1551.74 642.5,1549.5C 607.5,1549.5 572.5,1549.5 537.5,1549.5C 537.5,1540.17 537.5,1530.83 537.5,1521.5C 572.5,1521.5 607.5,1521.5 642.5,1521.5C 642.194,1518.61 642.527,1515.95 643.5,1513.5 Z"/></g>
<g><path style="opacity:0.998" fill="#f4942d" d="M 123.5,1519.5 C 158.833,1519.5 194.167,1519.5 229.5,1519.5C 229.5,1523.5 229.5,1527.5 229.5,1531.5C 228.596,1532.21 228.263,1533.21 228.5,1534.5C 192.945,1533.85 157.612,1534.52 122.5,1536.5C 122.178,1530.64 122.511,1524.98 123.5,1519.5 Z"/></g>
<g><path style="opacity:0.994" fill="#f2912d" d="M 229.5,1531.5 C 229.5,1538.17 229.5,1544.83 229.5,1551.5C 193.833,1551.5 158.167,1551.5 122.5,1551.5C 122.5,1546.5 122.5,1541.5 122.5,1536.5C 157.612,1534.52 192.945,1533.85 228.5,1534.5C 228.263,1533.21 228.596,1532.21 229.5,1531.5 Z"/></g>
<g><path style="opacity:0.994" fill="#f6be2f" d="M 1148.5,1541.5 C 1148.5,1553.83 1148.5,1566.17 1148.5,1578.5C 1113.83,1578.5 1079.17,1578.5 1044.5,1578.5C 1044.79,1576.26 1044.46,1574.26 1043.5,1572.5C 1043.5,1564.5 1043.5,1556.5 1043.5,1548.5C 1044.47,1546.39 1044.8,1544.06 1044.5,1541.5C 1079.17,1541.5 1113.83,1541.5 1148.5,1541.5 Z"/></g>
<g><path style="opacity:0.996" fill="#f6be2f" d="M 2014.5,1542.5 C 2013.81,1554.5 2013.14,1566.5 2012.5,1578.5C 1976.5,1578.5 1940.5,1578.5 1904.5,1578.5C 1904.58,1566.49 1904.24,1554.49 1903.5,1542.5C 1940.5,1541.17 1977.5,1541.17 2014.5,1542.5 Z"/></g>
<g><path style="opacity:0.992" fill="#f8dd2f" d="M 537.5,1549.5 C 572.5,1549.5 607.5,1549.5 642.5,1549.5C 642.205,1551.74 642.539,1553.74 643.5,1555.5C 643.5,1568.5 643.5,1581.5 643.5,1594.5C 642.539,1592.74 642.205,1590.74 642.5,1588.5C 607.5,1588.5 572.5,1588.5 537.5,1588.5C 537.5,1575.5 537.5,1562.5 537.5,1549.5 Z"/></g>
<g><path style="opacity:0.991" fill="#f28c2d" d="M 122.5,1551.5 C 158.167,1551.5 193.833,1551.5 229.5,1551.5C 229.5,1561.83 229.5,1572.17 229.5,1582.5C 211.885,1583.82 194.052,1584.49 176,1584.5C 157.948,1584.49 140.115,1583.82 122.5,1582.5C 122.5,1572.17 122.5,1561.83 122.5,1551.5 Z"/></g>
<g><path style="opacity:0.991" fill="#f6b82e" d="M 1043.5,1572.5 C 1044.46,1574.26 1044.79,1576.26 1044.5,1578.5C 1079.17,1578.5 1113.83,1578.5 1148.5,1578.5C 1148.5,1590.83 1148.5,1603.17 1148.5,1615.5C 1113.83,1615.5 1079.17,1615.5 1044.5,1615.5C 1044.79,1613.26 1044.46,1611.26 1043.5,1609.5C 1043.5,1597.17 1043.5,1584.83 1043.5,1572.5 Z"/></g>
<g><path style="opacity:0.993" fill="#f6b82e" d="M 1904.5,1578.5 C 1940.5,1578.5 1976.5,1578.5 2012.5,1578.5C 2012.35,1591.17 2012.01,1603.84 2011.5,1616.5C 1975.91,1615.51 1940.24,1615.17 1904.5,1615.5C 1904.5,1603.17 1904.5,1590.83 1904.5,1578.5 Z"/></g>
<g><path style="opacity:0.993" fill="#f1862c" d="M 122.5,1582.5 C 140.115,1583.82 157.948,1584.49 176,1584.5C 194.052,1584.49 211.885,1583.82 229.5,1582.5C 229.334,1591.17 229.5,1599.84 230,1608.5C 234.162,1610.82 237.995,1613.49 241.5,1616.5C 201.833,1616.5 162.167,1616.5 122.5,1616.5C 122.5,1605.17 122.5,1593.83 122.5,1582.5 Z"/></g>
<g><path style="opacity:0.993" fill="#f7d72f" d="M 537.5,1588.5 C 572.5,1588.5 607.5,1588.5 642.5,1588.5C 642.205,1590.74 642.539,1592.74 643.5,1594.5C 643.5,1603.17 643.5,1611.83 643.5,1620.5C 642.539,1622.26 642.205,1624.26 642.5,1626.5C 607.833,1626.5 573.167,1626.5 538.5,1626.5C 538.802,1629.06 538.468,1631.39 537.5,1633.5C 537.5,1618.5 537.5,1603.5 537.5,1588.5 Z"/></g>
<g><path style="opacity:0.99" fill="#f6b22e" d="M 1043.5,1609.5 C 1044.46,1611.26 1044.79,1613.26 1044.5,1615.5C 1079.17,1615.5 1113.83,1615.5 1148.5,1615.5C 1148.5,1630.17 1148.5,1644.83 1148.5,1659.5C 1113.83,1659.5 1079.17,1659.5 1044.5,1659.5C 1044.79,1661.74 1044.46,1663.74 1043.5,1665.5C 1043.5,1646.83 1043.5,1628.17 1043.5,1609.5 Z"/></g>
<g><path style="opacity:0.993" fill="#f6b12f" d="M 1904.5,1615.5 C 1940.24,1615.17 1975.91,1615.51 2011.5,1616.5C 2011.01,1630.52 2010.34,1644.52 2009.5,1658.5C 1986.07,1659.16 1962.57,1659.5 1939,1659.5C 1915.49,1659.5 1892.32,1658.83 1869.5,1657.5C 1881.4,1649.77 1892.9,1641.44 1904,1632.5C 1904.5,1626.84 1904.67,1621.18 1904.5,1615.5 Z"/></g>
<g><path style="opacity:0.995" fill="#f07f2c" d="M 122.5,1616.5 C 162.167,1616.5 201.833,1616.5 241.5,1616.5C 259.733,1628.44 277.4,1641.11 294.5,1654.5C 237.167,1654.5 179.833,1654.5 122.5,1654.5C 122.5,1641.83 122.5,1629.17 122.5,1616.5 Z"/></g>
<g><path style="opacity:0.991" fill="#f6d12f" d="M 643.5,1620.5 C 643.5,1635.5 643.5,1650.5 643.5,1665.5C 608.5,1665.5 573.5,1665.5 538.5,1665.5C 538.795,1667.74 538.461,1669.74 537.5,1671.5C 537.5,1658.83 537.5,1646.17 537.5,1633.5C 538.468,1631.39 538.802,1629.06 538.5,1626.5C 573.167,1626.5 607.833,1626.5 642.5,1626.5C 642.205,1624.26 642.539,1622.26 643.5,1620.5 Z"/></g>
<g><path style="opacity:0.994" fill="#ef792d" d="M 122.5,1654.5 C 179.833,1654.5 237.167,1654.5 294.5,1654.5C 310.114,1664.78 325.448,1675.45 340.5,1686.5C 279.5,1686.5 218.5,1686.5 157.5,1686.5C 146.052,1679.27 134.719,1671.77 123.5,1664C 122.549,1660.94 122.216,1657.78 122.5,1654.5 Z"/></g>
<g><path style="opacity:0.995" fill="#f6ab2e" d="M 1869.5,1657.5 C 1892.32,1658.83 1915.49,1659.5 1939,1659.5C 1962.57,1659.5 1986.07,1659.16 2009.5,1658.5C 2009.82,1668.22 2009.32,1677.88 2008,1687.5C 2004.56,1690.78 2000.73,1693.44 1996.5,1695.5C 1936.37,1696.83 1876.37,1696.83 1816.5,1695.5C 1833.6,1682.11 1851.27,1669.44 1869.5,1657.5 Z"/></g>
<g><path style="opacity:0.991" fill="#f6ab2e" d="M 1148.5,1659.5 C 1148.5,1671.83 1148.5,1684.17 1148.5,1696.5C 1113.83,1696.5 1079.17,1696.5 1044.5,1696.5C 1044.79,1698.74 1044.46,1700.74 1043.5,1702.5C 1043.5,1690.17 1043.5,1677.83 1043.5,1665.5C 1044.46,1663.74 1044.79,1661.74 1044.5,1659.5C 1079.17,1659.5 1113.83,1659.5 1148.5,1659.5 Z"/></g>
<g><path style="opacity:0.993" fill="#f6ca2f" d="M 643.5,1665.5 C 643.5,1678.17 643.5,1690.83 643.5,1703.5C 642.532,1705.61 642.198,1707.94 642.5,1710.5C 607.5,1710.5 572.5,1710.5 537.5,1710.5C 537.5,1697.5 537.5,1684.5 537.5,1671.5C 538.461,1669.74 538.795,1667.74 538.5,1665.5C 573.5,1665.5 608.5,1665.5 643.5,1665.5 Z"/></g>
<g><path style="opacity:0.995" fill="#ee732c" d="M 157.5,1686.5 C 218.5,1686.5 279.5,1686.5 340.5,1686.5C 356.467,1697.14 372.133,1708.14 387.5,1719.5C 326.664,1719.17 265.998,1719.5 205.5,1720.5C 189.14,1709.66 173.14,1698.32 157.5,1686.5 Z"/></g>
<g><path style="opacity:0.994" fill="#f5a52e" d="M 1816.5,1695.5 C 1876.37,1696.83 1936.37,1696.83 1996.5,1695.5C 1983.35,1705.8 1970.02,1715.97 1956.5,1726C 1952.6,1728.75 1948.6,1731.25 1944.5,1733.5C 1884.17,1733.5 1823.83,1733.5 1763.5,1733.5C 1780.63,1720.1 1798.3,1707.43 1816.5,1695.5 Z"/></g>
<g><path style="opacity:0.991" fill="#f5a52e" d="M 1148.5,1696.5 C 1148.5,1710.83 1148.5,1725.17 1148.5,1739.5C 1147.54,1737.74 1147.21,1735.74 1147.5,1733.5C 1113.17,1733.5 1078.83,1733.5 1044.5,1733.5C 1044.79,1735.74 1044.46,1737.74 1043.5,1739.5C 1043.5,1727.17 1043.5,1714.83 1043.5,1702.5C 1044.46,1700.74 1044.79,1698.74 1044.5,1696.5C 1079.17,1696.5 1113.83,1696.5 1148.5,1696.5 Z"/></g>
<g><path style="opacity:0.991" fill="#f6c42f" d="M 643.5,1703.5 C 643.5,1716.83 643.5,1730.17 643.5,1743.5C 608.167,1743.5 572.833,1743.5 537.5,1743.5C 537.5,1732.5 537.5,1721.5 537.5,1710.5C 572.5,1710.5 607.5,1710.5 642.5,1710.5C 642.198,1707.94 642.532,1705.61 643.5,1703.5 Z"/></g>
<g><path style="opacity:0.994" fill="#ee6e2c" d="M 387.5,1719.5 C 395.699,1724.1 403.365,1729.43 410.5,1735.5C 349.664,1735.17 288.998,1735.5 228.5,1736.5C 220.272,1731.89 212.606,1726.56 205.5,1720.5C 265.998,1719.5 326.664,1719.17 387.5,1719.5 Z"/></g>
<g><path style="opacity:0.991" fill="#f59f2e" d="M 1148.5,1739.5 C 1148.17,1745.54 1148.5,1751.54 1149.5,1757.5C 1155.49,1761.51 1161.16,1765.84 1166.5,1770.5C 1125.83,1770.5 1085.17,1770.5 1044.5,1770.5C 1044.78,1772.41 1044.45,1774.08 1043.5,1775.5C 1043.5,1763.5 1043.5,1751.5 1043.5,1739.5C 1044.46,1737.74 1044.79,1735.74 1044.5,1733.5C 1078.83,1733.5 1113.17,1733.5 1147.5,1733.5C 1147.21,1735.74 1147.54,1737.74 1148.5,1739.5 Z"/></g>
<g><path style="opacity:0.994" fill="#f59f2d" d="M 1763.5,1733.5 C 1823.83,1733.5 1884.17,1733.5 1944.5,1733.5C 1927.47,1746.52 1910.14,1759.19 1892.5,1771.5C 1832.67,1770.5 1772.67,1770.17 1712.5,1770.5C 1729.21,1757.79 1746.21,1745.45 1763.5,1733.5 Z"/></g>
<g><path style="opacity:0.997" fill="#ed6b2b" d="M 410.5,1735.5 C 417.676,1740.25 424.676,1745.25 431.5,1750.5C 371.598,1751.17 311.598,1751.84 251.5,1752.5C 243.65,1747.41 235.984,1742.08 228.5,1736.5C 288.998,1735.5 349.664,1735.17 410.5,1735.5 Z"/></g>
<g><path style="opacity:0.991" fill="#f6be2f" d="M 537.5,1743.5 C 572.833,1743.5 608.167,1743.5 643.5,1743.5C 643.5,1754.5 643.5,1765.5 643.5,1776.5C 608.5,1776.5 573.5,1776.5 538.5,1776.5C 538.795,1778.74 538.461,1780.74 537.5,1782.5C 537.5,1769.5 537.5,1756.5 537.5,1743.5 Z"/></g>
<g><path style="opacity:0.997" fill="#ec672c" d="M 431.5,1750.5 C 433.175,1752 435.008,1753.34 437,1754.5C 437.667,1755.17 437.667,1755.83 437,1756.5C 428.303,1768.02 419.47,1779.35 410.5,1790.5C 375.004,1789.5 339.337,1789.17 303.5,1789.5C 285.605,1777.94 268.272,1765.6 251.5,1752.5C 311.598,1751.84 371.598,1751.17 431.5,1750.5 Z"/></g>
<g><path style="opacity:0.995" fill="#f4982d" d="M 1166.5,1770.5 C 1181.48,1781.48 1196.14,1792.82 1210.5,1804.5C 1155,1805.5 1099.34,1805.83 1043.5,1805.5C 1043.5,1795.5 1043.5,1785.5 1043.5,1775.5C 1044.45,1774.08 1044.78,1772.41 1044.5,1770.5C 1085.17,1770.5 1125.83,1770.5 1166.5,1770.5 Z"/></g>
<g><path style="opacity:0.995" fill="#f4992e" d="M 1712.5,1770.5 C 1772.67,1770.17 1832.67,1770.5 1892.5,1771.5C 1875.71,1783.4 1858.71,1795.07 1841.5,1806.5C 1782,1805.5 1722.34,1805.17 1662.5,1805.5C 1678.61,1793.06 1695.28,1781.4 1712.5,1770.5 Z"/></g>
<g><path style="opacity:0.993" fill="#f6b82f" d="M 643.5,1776.5 C 643.5,1787.83 643.5,1799.17 643.5,1810.5C 608.5,1810.5 573.5,1810.5 538.5,1810.5C 538.795,1808.26 538.461,1806.26 537.5,1804.5C 537.5,1797.17 537.5,1789.83 537.5,1782.5C 538.461,1780.74 538.795,1778.74 538.5,1776.5C 573.5,1776.5 608.5,1776.5 643.5,1776.5 Z"/></g>
<g><path style="opacity:0.993" fill="#eb602b" d="M 303.5,1789.5 C 339.337,1789.17 375.004,1789.5 410.5,1790.5C 398.978,1807.52 386.478,1823.86 373,1839.5C 349.663,1822.98 326.496,1806.32 303.5,1789.5 Z"/></g>
<g><path style="opacity:0.991" fill="#f6b22f" d="M 537.5,1804.5 C 538.461,1806.26 538.795,1808.26 538.5,1810.5C 573.5,1810.5 608.5,1810.5 643.5,1810.5C 643.5,1823.17 643.5,1835.83 643.5,1848.5C 608.167,1848.5 572.833,1848.5 537.5,1848.5C 537.5,1833.83 537.5,1819.17 537.5,1804.5 Z"/></g>
<g><path style="opacity:0.996" fill="#f4942d" d="M 1210.5,1804.5 C 1217.02,1808.93 1223.35,1813.59 1229.5,1818.5C 1172.83,1819.17 1116.17,1819.83 1059.5,1820.5C 1054.99,1816.83 1050.33,1813.33 1045.5,1810C 1043.96,1808.89 1043.3,1807.39 1043.5,1805.5C 1099.34,1805.83 1155,1805.5 1210.5,1804.5 Z"/></g>
<g><path style="opacity:0.996" fill="#f4942e" d="M 1662.5,1805.5 C 1722.34,1805.17 1782,1805.5 1841.5,1806.5C 1835.13,1811.52 1828.47,1816.19 1821.5,1820.5C 1762.5,1819.83 1703.5,1819.17 1644.5,1818.5C 1649.92,1813.42 1655.92,1809.09 1662.5,1805.5 Z"/></g>
<g><path style="opacity:0.996" fill="#f3912d" d="M 1644.5,1818.5 C 1703.5,1819.17 1762.5,1819.83 1821.5,1820.5C 1814.47,1826.19 1807.14,1831.52 1799.5,1836.5C 1739.83,1835.83 1680.17,1835.17 1620.5,1834.5C 1628.25,1828.75 1636.25,1823.42 1644.5,1818.5 Z"/></g>
<g><path style="opacity:0.995" fill="#f3912e" d="M 1229.5,1818.5 C 1236.87,1824.18 1244.21,1829.84 1251.5,1835.5C 1193.83,1835.5 1136.17,1835.5 1078.5,1835.5C 1071.85,1830.85 1065.52,1825.85 1059.5,1820.5C 1116.17,1819.83 1172.83,1819.17 1229.5,1818.5 Z"/></g>
<g><path style="opacity:0.994" fill="#f28c2d" d="M 1078.5,1835.5 C 1136.17,1835.5 1193.83,1835.5 1251.5,1835.5C 1264.17,1845.17 1276.83,1854.83 1289.5,1864.5C 1232.34,1865.5 1175,1865.83 1117.5,1865.5C 1103.92,1856.22 1090.92,1846.22 1078.5,1835.5 Z"/></g>
<g><path style="opacity:0.995" fill="#f28c2d" d="M 1620.5,1834.5 C 1680.17,1835.17 1739.83,1835.83 1799.5,1836.5C 1786.2,1846.15 1772.87,1855.82 1759.5,1865.5C 1699.33,1865.83 1639.33,1865.5 1579.5,1864.5C 1592.95,1854.27 1606.62,1844.27 1620.5,1834.5 Z"/></g>
<g><path style="opacity:0.992" fill="#f6ab2f" d="M 537.5,1848.5 C 572.833,1848.5 608.167,1848.5 643.5,1848.5C 643.5,1859.5 643.5,1870.5 643.5,1881.5C 608.167,1881.5 572.833,1881.5 537.5,1881.5C 537.5,1870.5 537.5,1859.5 537.5,1848.5 Z"/></g>
<g><path style="opacity:0.995" fill="#f1862d" d="M 1579.5,1864.5 C 1639.33,1865.5 1699.33,1865.83 1759.5,1865.5C 1745.38,1876.07 1731.05,1886.4 1716.5,1896.5C 1657.17,1895.83 1597.83,1895.17 1538.5,1894.5C 1551.63,1883.77 1565.29,1873.77 1579.5,1864.5 Z"/></g>
<g><path style="opacity:0.995" fill="#f1862c" d="M 1289.5,1864.5 C 1303.38,1874.6 1317.05,1884.94 1330.5,1895.5C 1272.83,1895.5 1215.17,1895.5 1157.5,1895.5C 1143.88,1885.88 1130.55,1875.88 1117.5,1865.5C 1175,1865.83 1232.34,1865.5 1289.5,1864.5 Z"/></g>
<g><path style="opacity:0.99" fill="#f5a52e" d="M 537.5,1881.5 C 572.833,1881.5 608.167,1881.5 643.5,1881.5C 643.334,1887.51 643.501,1893.51 644,1899.5C 652.974,1904.07 661.807,1908.73 670.5,1913.5C 626.67,1914.5 582.67,1914.83 538.5,1914.5C 538.795,1916.74 538.461,1918.74 537.5,1920.5C 537.5,1907.5 537.5,1894.5 537.5,1881.5 Z"/></g>
<g><path style="opacity:0.994" fill="#f0802d" d="M 1538.5,1894.5 C 1597.83,1895.17 1657.17,1895.83 1716.5,1896.5C 1699.78,1908.55 1682.78,1920.22 1665.5,1931.5C 1605.83,1931.5 1546.17,1931.5 1486.5,1931.5C 1503.47,1918.68 1520.81,1906.34 1538.5,1894.5 Z"/></g>
<g><path style="opacity:0.993" fill="#f07f2d" d="M 1157.5,1895.5 C 1215.17,1895.5 1272.83,1895.5 1330.5,1895.5C 1346.14,1907.15 1361.48,1919.15 1376.5,1931.5C 1319.33,1931.17 1262.33,1931.5 1205.5,1932.5C 1189.1,1920.64 1173.1,1908.31 1157.5,1895.5 Z"/></g>
<g><path style="opacity:0.995" fill="#f59f2e" d="M 670.5,1913.5 C 693.45,1924.31 716.117,1935.64 738.5,1947.5C 672.002,1948.5 605.335,1948.83 538.5,1948.5C 538.795,1946.26 538.461,1944.26 537.5,1942.5C 537.5,1935.17 537.5,1927.83 537.5,1920.5C 538.461,1918.74 538.795,1916.74 538.5,1914.5C 582.67,1914.83 626.67,1914.5 670.5,1913.5 Z"/></g>
<g><path style="opacity:0.994" fill="#ef792c" d="M 1376.5,1931.5 C 1389.14,1940.82 1401.48,1950.48 1413.5,1960.5C 1357,1961.5 1300.34,1961.83 1243.5,1961.5C 1230.46,1952.32 1217.8,1942.65 1205.5,1932.5C 1262.33,1931.5 1319.33,1931.17 1376.5,1931.5 Z"/></g>
<g><path style="opacity:0.994" fill="#ef792c" d="M 1486.5,1931.5 C 1546.17,1931.5 1605.83,1931.5 1665.5,1931.5C 1651.38,1942.07 1637.05,1952.4 1622.5,1962.5C 1563.5,1961.83 1504.5,1961.17 1445.5,1960.5C 1458.63,1950.1 1472.3,1940.43 1486.5,1931.5 Z"/></g>
<g><path style="opacity:0.994" fill="#f4992d" d="M 537.5,1942.5 C 538.461,1944.26 538.795,1946.26 538.5,1948.5C 605.335,1948.83 672.002,1948.5 738.5,1947.5C 758.677,1958.09 779.011,1968.42 799.5,1978.5C 723.5,1979.17 647.5,1979.83 571.5,1980.5C 560.403,1975.79 549.403,1970.79 538.5,1965.5C 537.503,1957.86 537.169,1950.2 537.5,1942.5 Z"/></g>
<g><path style="opacity:0.996" fill="#ee732c" d="M 1413.5,1960.5 C 1418.8,1964.12 1424.13,1967.78 1429.5,1971.5C 1434.85,1967.81 1440.18,1964.14 1445.5,1960.5C 1504.5,1961.17 1563.5,1961.83 1622.5,1962.5C 1609.09,1972.58 1595.43,1982.25 1581.5,1991.5C 1481.83,1991.5 1382.17,1991.5 1282.5,1991.5C 1268.95,1982.22 1255.95,1972.22 1243.5,1961.5C 1300.34,1961.83 1357,1961.5 1413.5,1960.5 Z"/></g>
<g><path style="opacity:0.996" fill="#f3942e" d="M 799.5,1978.5 C 808.167,1982.83 816.833,1987.17 825.5,1991.5C 749.002,1992.5 672.335,1992.83 595.5,1992.5C 587.182,1989.01 579.182,1985.01 571.5,1980.5C 647.5,1979.83 723.5,1979.17 799.5,1978.5 Z"/></g>
<g><path style="opacity:0.992" fill="#f3912d" d="M 825.5,1991.5 C 835.358,1996.26 845.025,2001.26 854.5,2006.5C 778.166,2006.33 701.833,2006.5 625.5,2007C 626.056,2007.38 626.389,2007.88 626.5,2008.5C 616.002,2003.42 605.669,1998.08 595.5,1992.5C 672.335,1992.83 749.002,1992.5 825.5,1991.5 Z"/></g>
<g><path style="opacity:0.997" fill="#ee6f2d" d="M 1282.5,1991.5 C 1382.17,1991.5 1481.83,1991.5 1581.5,1991.5C 1574.72,1997.06 1567.72,2002.4 1560.5,2007.5C 1474.83,2006.17 1389.17,2006.17 1303.5,2007.5C 1295.92,2002.88 1288.92,1997.55 1282.5,1991.5 Z"/></g>
<g><path style="opacity:0.994" fill="#f28c2d" d="M 854.5,2006.5 C 871.489,2014.66 888.156,2023.33 904.5,2032.5C 829.002,2033.5 753.335,2033.83 677.5,2033.5C 659.785,2026.48 642.785,2018.14 626.5,2008.5C 626.389,2007.88 626.056,2007.38 625.5,2007C 701.833,2006.5 778.166,2006.33 854.5,2006.5 Z"/></g>
<g><path style="opacity:0.998" fill="#ed6c2b" d="M 1560.5,2007.5 C 1554.12,2012.55 1547.45,2017.22 1540.5,2021.5C 1468.16,2020.84 1396.16,2021.5 1324.5,2023.5C 1317.28,2018.4 1310.28,2013.06 1303.5,2007.5C 1389.17,2006.17 1474.83,2006.17 1560.5,2007.5 Z"/></g>
<g><path style="opacity:0.995" fill="#ec672c" d="M 1540.5,2021.5 C 1524.08,2034.25 1507.08,2046.25 1489.5,2057.5C 1449.17,2056.17 1408.83,2056.17 1368.5,2057.5C 1353.79,2046.16 1339.13,2034.82 1324.5,2023.5C 1396.16,2021.5 1468.16,2020.84 1540.5,2021.5 Z"/></g>
<g><path style="opacity:0.995" fill="#f1862d" d="M 904.5,2032.5 C 923.857,2040.68 942.857,2049.68 961.5,2059.5C 883.833,2060.17 806.167,2060.83 728.5,2061.5C 711.305,2052.4 694.305,2043.07 677.5,2033.5C 753.335,2033.83 829.002,2033.5 904.5,2032.5 Z"/></g>
<g><path style="opacity:0.99" fill="#eb602b" d="M 1489.5,2057.5 C 1468.39,2072.23 1447.39,2087.23 1426.5,2102.5C 1406.74,2087.96 1387.4,2072.96 1368.5,2057.5C 1408.83,2056.17 1449.17,2056.17 1489.5,2057.5 Z"/></g>
<g><path style="opacity:0.994" fill="#f0802d" d="M 961.5,2059.5 C 982.408,2070.79 1003.41,2081.79 1024.5,2092.5C 947.332,2092.17 870.332,2092.5 793.5,2093.5C 771.706,2083.1 750.039,2072.44 728.5,2061.5C 806.167,2060.83 883.833,2060.17 961.5,2059.5 Z"/></g>
<g><path style="opacity:0.968" fill="#f07e2c" d="M 1268.5,2092.5 C 1243.99,2092.83 1219.66,2092.5 1195.5,2091.5C 1215.7,2082.9 1236.03,2074.57 1256.5,2066.5C 1259.05,2068.57 1260.88,2071.24 1262,2074.5C 1264.47,2080.42 1266.63,2086.42 1268.5,2092.5 Z"/></g>
<g><path style="opacity:0.989" fill="#ef792d" d="M 1195.5,2091.5 C 1219.66,2092.5 1243.99,2092.83 1268.5,2092.5C 1272.6,2100.45 1275.93,2108.78 1278.5,2117.5C 1228.18,2119.5 1177.51,2120.16 1126.5,2119.5C 1149.27,2109.79 1172.27,2100.46 1195.5,2091.5 Z"/></g>
<g><path style="opacity:0.995" fill="#ef792d" d="M 1024.5,2092.5 C 1042.26,2099.88 1059.26,2108.54 1075.5,2118.5C 999.167,2119.17 922.833,2119.83 846.5,2120.5C 828.643,2111.74 810.976,2102.74 793.5,2093.5C 870.332,2092.5 947.332,2092.17 1024.5,2092.5 Z"/></g>
<g><path style="opacity:0.998" fill="#ee732d" d="M 1278.5,2117.5 C 1282.73,2126.18 1286.4,2135.18 1289.5,2144.5C 1159.17,2145.17 1028.83,2145.83 898.5,2146.5C 881.167,2137.83 863.833,2129.17 846.5,2120.5C 922.833,2119.83 999.167,2119.17 1075.5,2118.5C 1083.6,2122.26 1091.77,2125.92 1100,2129.5C 1108.91,2126.29 1117.74,2122.96 1126.5,2119.5C 1177.51,2120.16 1228.18,2119.5 1278.5,2117.5 Z"/></g>
<g><path style="opacity:1" fill="#ee6f2d" d="M 1289.5,2144.5 C 1291.87,2149.26 1293.87,2154.26 1295.5,2159.5C 1172.17,2159.5 1048.83,2159.5 925.5,2159.5C 916.374,2155.44 907.374,2151.1 898.5,2146.5C 1028.83,2145.83 1159.17,2145.17 1289.5,2144.5 Z"/></g>
<g><path style="opacity:0.998" fill="#ed6c2b" d="M 925.5,2159.5 C 1048.83,2159.5 1172.17,2159.5 1295.5,2159.5C 1296.34,2160.64 1297.01,2161.97 1297.5,2163.5C 1290.04,2167.1 1282.38,2170.1 1274.5,2172.5C 1167,2172.17 1059.67,2172.5 952.5,2173.5C 943.335,2169.08 934.335,2164.42 925.5,2159.5 Z"/></g>
<g><path style="opacity:0.995" fill="#ec672b" d="M 1274.5,2172.5 C 1247.66,2183.68 1220.66,2194.68 1193.5,2205.5C 1134,2204.5 1074.34,2204.17 1014.5,2204.5C 993.237,2195.2 972.57,2184.87 952.5,2173.5C 1059.67,2172.5 1167,2172.17 1274.5,2172.5 Z"/></g>
<g><path style="opacity:0.99" fill="#eb602c" d="M 1014.5,2204.5 C 1074.34,2204.17 1134,2204.5 1193.5,2205.5C 1168.97,2216.43 1143.97,2226.26 1118.5,2235C 1111.16,2238 1104.16,2241.5 1097.5,2245.5C 1095.83,2245.5 1094.17,2245.5 1092.5,2245.5C 1089.4,2243.11 1086.07,2240.94 1082.5,2239C 1059.06,2228.78 1036.39,2217.28 1014.5,2204.5 Z"/></g>
</svg>
