<?xml version="1.0" encoding="UTF-8"?>
<!DOCTYPE svg PUBLIC "-//W3C//DTD SVG 1.1//EN" "http://www.w3.org/Graphics/SVG/1.1/DTD/svg11.dtd">
<svg xmlns="http://www.w3.org/2000/svg" version="1.1" width="2307px" height="2307px" style="shape-rendering:geometricPrecision; text-rendering:geometricPrecision; image-rendering:optimizeQuality; fill-rule:evenodd; clip-rule:evenodd" xmlns:xlink="http://www.w3.org/1999/xlink">
<g><path style="opacity:0.999" fill="#2a59da" d="M 1150.5,-0.5 C 1151.83,-0.5 1153.17,-0.5 1154.5,-0.5C 1487.02,191.347 1819.52,383.347 2152,575.5C 2152.67,960.5 2152.67,1345.5 2152,1730.5C 1821.02,1922.4 1490.19,2114.4 1159.5,2306.5C 1158.17,2306.5 1156.83,2306.5 1155.5,2306.5C 821.478,2114.4 487.311,1922.4 153,1730.5C 152.333,1345.5 152.333,960.5 153,575.5C 485.668,383.636 818.168,191.636 1150.5,-0.5 Z M 1150.5,487.5 C 1156.81,489.488 1162.81,492.322 1168.5,496C 1354.83,603.833 1541.17,711.667 1727.5,819.5C 1728.83,1041.83 1728.83,1264.17 1727.5,1486.5C 1535.96,1597.44 1344.29,1708.1 1152.5,1818.5C 960.707,1708.1 769.041,1597.44 577.5,1486.5C 576.167,1264.17 576.167,1041.83 577.5,819.5C 768.727,709.059 959.727,598.392 1150.5,487.5 Z"/></g>
</svg>
