<?xml version="1.0" encoding="UTF-8"?>
<!DOCTYPE svg PUBLIC "-//W3C//DTD SVG 1.1//EN" "http://www.w3.org/Graphics/SVG/1.1/DTD/svg11.dtd">
<svg xmlns="http://www.w3.org/2000/svg" version="1.1" width="2000px" height="2000px" style="shape-rendering:geometricPrecision; text-rendering:geometricPrecision; image-rendering:optimizeQuality; fill-rule:evenodd; clip-rule:evenodd" xmlns:xlink="http://www.w3.org/1999/xlink">
<g><path style="opacity:1" fill="#000000" d="M -0.5,-0.5 C 666.167,-0.5 1332.83,-0.5 1999.5,-0.5C 1999.5,666.167 1999.5,1332.83 1999.5,1999.5C 1332.83,1999.5 666.167,1999.5 -0.5,1999.5C -0.5,1332.83 -0.5,666.167 -0.5,-0.5 Z"/></g>
<g><path style="opacity:1" fill="#fefefe" d="M 998.5,721.5 C 996.393,720.532 994.059,720.198 991.5,720.5C 991.5,623.167 991.5,525.833 991.5,428.5C 991.5,332.5 991.5,236.5 991.5,140.5C 1036.07,140.909 1080.4,144.242 1124.5,150.5C 1109.72,245.869 1094.72,341.202 1079.5,436.5C 1099.96,438.792 1119.96,443.126 1139.5,449.5C 1113.87,543.088 1088.54,636.755 1063.5,730.5C 1042.12,725.452 1020.45,722.452 998.5,721.5 Z"/></g>
<g><path style="opacity:1" fill="#fefefe" d="M 852.5,151.5 C 854.467,151.261 856.301,151.594 858,152.5C 873.159,247.79 887.993,343.123 902.5,438.5C 882.224,441.569 862.224,445.903 842.5,451.5C 867.62,544.309 892.287,637.309 916.5,730.5C 893.709,736.562 872.042,745.395 851.5,757C 850.5,757.667 849.5,757.667 848.5,757C 800.207,674.249 752.04,591.415 704,508.5C 688.155,517.753 672.821,527.753 658,538.5C 601.578,460.656 544.911,382.989 488,305.5C 487.316,304.216 487.483,303.049 488.5,302C 524.084,276.279 561.584,253.446 601,233.5C 644.755,318.01 688.255,402.677 731.5,487.5C 732.365,488.583 733.365,488.749 734.5,488C 759.963,475.179 786.297,464.512 813.5,456C 814.022,455.439 814.355,454.772 814.5,454C 785.059,363.179 755.726,272.346 726.5,181.5C 768.05,169.278 810.05,159.278 852.5,151.5 Z"/></g>
<g><path style="opacity:1" fill="#fdfdfd" d="M 1256.5,182.5 C 1298.71,196.295 1339.71,213.129 1379.5,233C 1380.02,233.561 1380.36,234.228 1380.5,235C 1336.55,320.406 1292.71,405.906 1249,491.5C 1247.95,492.517 1246.78,492.684 1245.5,492C 1219.9,479.301 1193.56,468.468 1166.5,459.5C 1196.1,367.043 1226.1,274.71 1256.5,182.5 Z"/></g>
<g><path style="opacity:1" fill="#fefefe" d="M 1494.5,305.5 C 1501.28,309.732 1507.95,314.232 1514.5,319C 1543.17,341.494 1570.5,365.661 1596.5,391.5C 1529.85,458.653 1463.01,525.653 1396,592.5C 1396.55,595.093 1398.05,597.26 1400.5,599C 1367.83,629.667 1335.17,660.333 1302.5,691C 1265.31,728.528 1227.81,765.695 1190,802.5C 1180.59,794.215 1171.09,786.048 1161.5,778C 1151.64,770.907 1141.64,764.073 1131.5,757.5C 1180.2,674.63 1228.7,591.63 1277,508.5C 1277.72,506.745 1278.89,505.911 1280.5,506C 1295.92,515.46 1311.09,525.293 1326,535.5C 1382,458.675 1438.16,382.008 1494.5,305.5 Z"/></g>
<g><path style="opacity:1" fill="#fefefe" d="M 383.5,390.5 C 452.917,458.416 521.917,526.916 590.5,596C 588.993,596.837 588.493,598.004 589,599.5C 654.972,667.805 721.972,735.138 790,801.5C 790.667,802.5 790.667,803.5 790,804.5C 772.966,821.096 758.466,839.596 746.5,860C 745.092,860.315 743.759,859.982 742.5,859C 658.5,810.667 574.5,762.333 490.5,714C 502.114,695.446 513.947,677.279 526,659.5C 449.589,603.711 373.089,548.044 296.5,492.5C 322.524,456.128 351.524,422.128 383.5,390.5 Z"/></g>
<g><path style="opacity:1" fill="#e9e9e9" d="M 991.5,428.5 C 991.5,525.833 991.5,623.167 991.5,720.5C 994.059,720.198 996.393,720.532 998.5,721.5C 995.833,721.5 993.167,721.5 990.5,721.5C 990.167,623.665 990.501,525.999 991.5,428.5 Z"/></g>
<g><path style="opacity:1" fill="#fefefe" d="M 1683.5,493.5 C 1685.74,494.568 1687.57,496.234 1689,498.5C 1713.68,533.166 1735.84,569.499 1755.5,607.5C 1671.01,650.245 1586.68,693.245 1502.5,736.5C 1515.93,763.005 1527.93,790.005 1538.5,817.5C 1627.5,788.833 1716.5,760.167 1805.5,731.5C 1806.09,731.709 1806.59,732.043 1807,732.5C 1820.95,774.968 1831.12,818.301 1837.5,862.5C 1741.07,876.928 1644.74,891.928 1548.5,907.5C 1546.7,890.266 1543.54,873.266 1539,856.5C 1447.04,879.283 1355.21,903.283 1263.5,928.5C 1256.12,905.376 1246.79,883.042 1235.5,861.5C 1317.31,813.424 1399.64,766.09 1482.5,719.5C 1482.83,719.167 1483.17,718.833 1483.5,718.5C 1472.95,699.898 1461.29,682.064 1448.5,665C 1527.02,607.97 1605.35,550.803 1683.5,493.5 Z"/></g>
<g><path style="opacity:1" fill="#fdfdfd" d="M 225.5,607.5 C 312.425,650.963 399.092,694.963 485.5,739.5C 471.553,765.349 460.553,792.349 452.5,820.5C 360.093,791.309 267.759,761.809 175.5,732C 174.978,731.439 174.645,730.772 174.5,730C 188.065,687.708 205.065,646.875 225.5,607.5 Z"/></g>
<g><path style="opacity:1" fill="#fefefe" d="M 708.5,999.5 C 610.167,999.5 511.833,999.5 413.5,999.5C 413.768,997.901 413.434,996.568 412.5,995.5C 319.335,994.501 226.001,994.167 132.5,994.5C 132.5,990.833 132.5,987.167 132.5,983.5C 132.648,942.545 135.981,901.878 142.5,861.5C 235.407,876.487 328.407,890.82 421.5,904.5C 423.991,886.88 427.824,869.547 433,852.5C 527.353,877.714 621.853,902.547 716.5,927C 717.022,927.561 717.355,928.228 717.5,929C 711.415,952.097 708.415,975.597 708.5,999.5 Z"/></g>
<g><path style="opacity:1" fill="#a7a7a7" d="M 132.5,983.5 C 132.5,987.167 132.5,990.833 132.5,994.5C 226.001,994.167 319.335,994.501 412.5,995.5C 318.833,995.5 225.167,995.5 131.5,995.5C 131.183,991.298 131.517,987.298 132.5,983.5 Z"/></g>
<g><path style="opacity:1" fill="#fefefe" d="M 1847.5,1013.5 C 1846.28,1052.36 1842.95,1091.03 1837.5,1129.5C 1745.12,1115.45 1652.79,1101.11 1560.5,1086.5C 1557.15,1107.29 1553.15,1127.96 1548.5,1148.5C 1453.8,1123.99 1359.14,1099.16 1264.5,1074C 1263.94,1073.28 1263.61,1072.44 1263.5,1071.5C 1269.36,1048.52 1272.36,1025.19 1272.5,1001.5C 1367.17,1001.5 1461.83,1001.5 1556.5,1001.5C 1556.5,999.833 1556.5,998.167 1556.5,996.5C 1653.5,996.5 1750.5,996.5 1847.5,996.5C 1847.5,1002.17 1847.5,1007.83 1847.5,1013.5 Z"/></g>
<g><path style="opacity:1" fill="#cbcbcb" d="M 412.5,995.5 C 413.434,996.568 413.768,997.901 413.5,999.5C 511.833,999.5 610.167,999.5 708.5,999.5C 610.001,1000.5 511.335,1000.83 412.5,1000.5C 412.5,998.833 412.5,997.167 412.5,995.5 Z"/></g>
<g><path style="opacity:1" fill="#9b9b9b" d="M 1847.5,1013.5 C 1847.5,1007.83 1847.5,1002.17 1847.5,996.5C 1750.5,996.5 1653.5,996.5 1556.5,996.5C 1556.5,998.167 1556.5,999.833 1556.5,1001.5C 1461.83,1001.5 1367.17,1001.5 1272.5,1001.5C 1366.67,1000.5 1461,1000.17 1555.5,1000.5C 1555.5,998.833 1555.5,997.167 1555.5,995.5C 1653.17,995.5 1750.83,995.5 1848.5,995.5C 1848.82,1001.69 1848.49,1007.69 1847.5,1013.5 Z"/></g>
<g><path style="opacity:1" fill="#fefefe" d="M 712.5,1073.5 C 714.467,1073.26 716.301,1073.59 718,1074.5C 724.193,1096.55 732.859,1117.55 744,1137.5C 744.667,1138.5 744.667,1139.5 744,1140.5C 663.085,1186.71 582.252,1233.04 501.5,1279.5C 510.339,1295.18 520.172,1310.18 531,1324.5C 531.749,1325.64 531.583,1326.64 530.5,1327.5C 452.5,1384.17 374.5,1440.83 296.5,1497.5C 270.077,1462.35 246.91,1425.01 227,1385.5C 226.333,1384.5 226.333,1383.5 227,1382.5C 309.391,1340.39 391.891,1298.39 474.5,1256.5C 460.885,1229.61 449.219,1201.94 439.5,1173.5C 350.849,1202.38 262.183,1231.05 173.5,1259.5C 166.203,1233.98 159.37,1208.31 153,1182.5C 149.252,1164.6 146.086,1146.6 143.5,1128.5C 238.872,1113.76 334.205,1098.76 429.5,1083.5C 430.647,1083.82 431.481,1084.48 432,1085.5C 434.89,1104.73 438.89,1123.73 444,1142.5C 444.388,1143.43 445.055,1144.09 446,1144.5C 534.977,1120.9 623.811,1097.23 712.5,1073.5 Z"/></g>
<g><path style="opacity:1" fill="#fefefe" d="M 1233.5,1140.5 C 1236.02,1140.76 1238.35,1141.59 1240.5,1143C 1323.3,1190.3 1405.96,1237.8 1488.5,1285.5C 1489.58,1286.36 1489.75,1287.36 1489,1288.5C 1479.83,1303.51 1470.16,1318.18 1460,1332.5C 1459.33,1333.5 1459.33,1334.5 1460,1335.5C 1534.33,1389.5 1608.67,1443.5 1683,1497.5C 1683.67,1498.5 1683.67,1499.5 1683,1500.5C 1656.28,1536.24 1626.94,1569.9 1595,1601.5C 1556.2,1561.03 1517.03,1520.86 1477.5,1481C 1448.02,1453.68 1418.68,1426.18 1389.5,1398.5C 1388.72,1397.27 1388.22,1395.94 1388,1394.5C 1322,1329.17 1256,1263.83 1190,1198.5C 1189.33,1197.83 1189.33,1197.17 1190,1196.5C 1207.18,1179.76 1221.68,1161.1 1233.5,1140.5 Z"/></g>
<g><path style="opacity:1" fill="#fefefe" d="M 1527.5,1170.5 C 1620.38,1199.89 1713.04,1229.89 1805.5,1260.5C 1791.7,1303.09 1774.36,1344.09 1753.5,1383.5C 1667.04,1339.77 1580.71,1295.77 1494.5,1251.5C 1508.01,1225.49 1519.01,1198.49 1527.5,1170.5 Z"/></g>
<g><path style="opacity:1" fill="#fefefe" d="M 787.5,1195.5 C 806.586,1213.1 826.919,1228.94 848.5,1243C 799.966,1326.57 751.3,1410.07 702.5,1493.5C 701.635,1494.58 700.635,1494.75 699.5,1494C 682.819,1484.66 666.819,1474.33 651.5,1463C 650.833,1462.33 650.167,1462.33 649.5,1463C 595.026,1537.64 540.36,1612.14 485.5,1686.5C 449.8,1660.98 416.3,1632.65 385,1601.5C 384.333,1600.5 384.333,1599.5 385,1598.5C 457.14,1527.69 528.64,1456.19 599.5,1384C 636.274,1349.89 672.441,1315.06 708,1279.5C 734.704,1251.63 761.204,1223.63 787.5,1195.5 Z"/></g>
<g><path style="opacity:1" fill="#fefefe" d="M 1130.5,1242.5 C 1133.13,1245.08 1135.3,1248.08 1137,1251.5C 1182.08,1329.33 1227.41,1407 1273,1484.5C 1289.6,1474.45 1305.76,1463.79 1321.5,1452.5C 1379.08,1530.66 1436.41,1608.99 1493.5,1687.5C 1457.51,1713.84 1419.51,1737.18 1379.5,1757.5C 1337.17,1675.5 1294.83,1593.5 1252.5,1511.5C 1251.64,1510.42 1250.64,1510.25 1249.5,1511C 1224.4,1523.88 1198.4,1534.55 1171.5,1543C 1170.57,1543.39 1169.91,1544.05 1169.5,1545C 1198.03,1632.27 1226.37,1719.6 1254.5,1807C 1254.36,1807.77 1254.02,1808.44 1253.5,1809C 1211.01,1822.69 1167.68,1832.86 1123.5,1839.5C 1108.93,1743.42 1093.93,1647.42 1078.5,1551.5C 1097.63,1548.47 1116.63,1544.81 1135.5,1540.5C 1135.66,1538.47 1135.5,1536.47 1135,1534.5C 1111.02,1446.24 1087.52,1357.91 1064.5,1269.5C 1087.84,1263.61 1109.84,1254.61 1130.5,1242.5 Z"/></g>
<g><path style="opacity:1" fill="#fefefe" d="M 976.5,1279.5 C 980.634,1280.48 984.968,1280.82 989.5,1280.5C 989.5,1470.17 989.5,1659.83 989.5,1849.5C 944.491,1850.4 899.825,1847.06 855.5,1839.5C 869.942,1747.85 884.276,1656.18 898.5,1564.5C 879.271,1561.89 860.271,1558.05 841.5,1553C 841.043,1552.59 840.709,1552.09 840.5,1551.5C 865.404,1457.55 891.07,1363.88 917.5,1270.5C 936.812,1275.53 956.478,1278.53 976.5,1279.5 Z"/></g>
<g><path style="opacity:1" fill="#fefefe" d="M 732.5,1498.5 C 758.946,1511.72 786.279,1522.72 814.5,1531.5C 784.632,1623.77 754.965,1716.1 725.5,1808.5C 682.29,1794.93 640.623,1777.77 600.5,1757C 644.378,1670.74 688.378,1584.58 732.5,1498.5 Z"/></g>
<g><path style="opacity:1" fill="#737373" d="M 976.5,1279.5 C 981.167,1279.5 985.833,1279.5 990.5,1279.5C 990.833,1469.67 990.5,1659.67 989.5,1849.5C 989.5,1659.83 989.5,1470.17 989.5,1280.5C 984.968,1280.82 980.634,1280.48 976.5,1279.5 Z"/></g>
</svg>
