<?xml version="1.0" encoding="UTF-8"?>
<!DOCTYPE svg PUBLIC "-//W3C//DTD SVG 1.1//EN" "http://www.w3.org/Graphics/SVG/1.1/DTD/svg11.dtd">
<svg xmlns="http://www.w3.org/2000/svg" version="1.1" width="2000px" height="2000px" style="shape-rendering:geometricPrecision; text-rendering:geometricPrecision; image-rendering:optimizeQuality; fill-rule:evenodd; clip-rule:evenodd" xmlns:xlink="http://www.w3.org/1999/xlink">
<g><path style="opacity:0.997" fill="#000000" d="M 1999.5,192.5 C 1999.5,730.5 1999.5,1268.5 1999.5,1806.5C 1987.12,1892.7 1940.79,1952.54 1860.5,1986C 1842.99,1992.21 1824.99,1996.21 1806.5,1998C 1775.14,1998.93 1743.81,1998.6 1712.5,1997C 1659.22,1989.12 1615.06,1964.95 1580,1924.5C 1165.76,1429.02 751.762,933.352 338,437.5C 330.61,429.254 322.443,428.421 313.5,435C 311.348,437.469 309.848,440.302 309,443.5C 308.333,817.5 308.333,1191.5 309,1565.5C 314.069,1578.11 322.569,1580.95 334.5,1574C 473.538,1453.29 612.872,1332.96 752.5,1213C 776.487,1201.87 796.654,1206.71 813,1227.5C 824.185,1247.61 822.518,1266.61 808,1284.5C 667.942,1491.56 528.275,1698.89 389,1906.5C 335.934,1977.55 265.1,2007.38 176.5,1996C 107.096,1982.23 55.5962,1944.39 22,1882.5C 10.1308,1858.34 2.63084,1833 -0.5,1806.5C -0.5,1268.5 -0.5,730.5 -0.5,192.5C 8.81113,120.727 44.1445,65.8941 105.5,28C 131.918,12.9717 160.251,3.97175 190.5,1C 222.192,0.0700699 253.858,0.403403 285.5,2C 338.148,9.5659 381.648,33.3992 416,73.5C 829.762,569.352 1243.76,1065.02 1658,1560.5C 1667.25,1571.08 1676.59,1571.08 1686,1560.5C 1686.97,1558.61 1687.64,1556.61 1688,1554.5C 1688.67,1180.5 1688.67,806.5 1688,432.5C 1683.9,419.532 1675.73,416.032 1663.5,422C 1524.13,543.707 1384.46,665.04 1244.5,786C 1216.62,798.039 1195.12,790.872 1180,764.5C 1174.63,750.357 1175.63,736.691 1183,723.5C 1323.91,514.673 1464.58,305.673 1605,96.5C 1643.79,40.5021 1697.29,8.66876 1765.5,1C 1846.13,-4.08652 1910.97,25.0801 1960,88.5C 1981.86,119.886 1995.03,154.553 1999.5,192.5 Z"/></g>
</svg>
