<?xml version="1.0" encoding="UTF-8"?>
<!DOCTYPE svg PUBLIC "-//W3C//DTD SVG 1.1//EN" "http://www.w3.org/Graphics/SVG/1.1/DTD/svg11.dtd">
<svg xmlns="http://www.w3.org/2000/svg" version="1.1" width="2500px" height="2500px" style="shape-rendering:geometricPrecision; text-rendering:geometricPrecision; image-rendering:optimizeQuality; fill-rule:evenodd; clip-rule:evenodd" xmlns:xlink="http://www.w3.org/1999/xlink">
<g><path style="opacity:0.999" fill="#cf1011" d="M 1198.5,-0.5 C 1232.5,-0.5 1266.5,-0.5 1300.5,-0.5C 1614.44,16.2009 1885.44,131.368 2113.5,345C 2336.21,561.609 2463.37,825.442 2495,1136.5C 2496.67,1157.31 2498.17,1177.98 2499.5,1198.5C 2499.5,1232.5 2499.5,1266.5 2499.5,1300.5C 2482.8,1614.44 2367.63,1885.44 2154,2113.5C 1937.39,2336.21 1673.56,2463.37 1362.5,2495C 1341.69,2496.67 1321.02,2498.17 1300.5,2499.5C 1266.5,2499.5 1232.5,2499.5 1198.5,2499.5C 884.561,2482.8 613.561,2367.63 385.5,2154C 162.795,1937.39 35.628,1673.56 4,1362.5C 2.32588,1341.69 0.825884,1321.02 -0.5,1300.5C -0.5,1266.5 -0.5,1232.5 -0.5,1198.5C 16.2009,884.561 131.368,613.561 345,385.5C 561.609,162.795 825.442,35.628 1136.5,4C 1157.31,2.32588 1177.98,0.825884 1198.5,-0.5 Z"/></g>
<g><path style="opacity:1" fill="#fefefe" d="M 1257.5,475.5 C 1445.38,480.173 1611.05,542.339 1754.5,662C 1930.23,818.019 2020.23,1014.19 2024.5,1250.5C 2020.52,1466.2 1943.19,1650.37 1792.5,1803C 1641.39,1947.75 1460.56,2021.58 1250,2024.5C 1050.65,2021.53 876.818,1954.36 728.5,1823C 563.703,1668.33 479.37,1477.33 475.5,1250C 477.406,1071.26 532.739,911.596 641.5,771C 612.307,718.734 607.474,664.234 627,607.5C 657.823,533.653 712.99,491.487 792.5,481C 871.77,477.383 932.937,508.549 976,574.5C 1008.54,632.344 1012.2,692.011 987,753.5C 954.138,820.331 900.638,858.497 826.5,868C 782.137,871.229 741.137,861.063 703.5,837.5C 603.169,972.99 557.669,1125.32 567,1294.5C 584.646,1501.68 674.813,1668.84 837.5,1796C 992.848,1909.5 1166.18,1952.5 1357.5,1925C 1559.26,1888.95 1716.09,1785.78 1828,1615.5C 1926.31,1455.58 1955.98,1283.58 1917,1099.5C 1872.62,915.125 1771.12,771.625 1612.5,669C 1503.43,601.993 1384.76,567.16 1256.5,564.5C 1256.82,534.833 1257.15,505.166 1257.5,475.5 Z"/></g>
<g><path style="opacity:1" fill="#cf1111" d="M 799.5,570.5 C 855.254,570.108 892.421,596.108 911,648.5C 921.166,699.652 904.333,739.152 860.5,767C 810.682,790.609 766.849,782.442 729,742.5C 700.574,704.654 697.241,664.654 719,622.5C 737.879,592.776 764.713,575.443 799.5,570.5 Z"/></g>
<g><path style="opacity:1" fill="#fefefe" d="M 1227.5,953.5 C 1337.08,949.548 1424.91,990.881 1491,1077.5C 1550.96,1167.12 1561.62,1262.45 1523,1363.5C 1483.83,1451.5 1418,1509 1325.5,1536C 1230.16,1558.64 1143.49,1540.64 1065.5,1482C 976.929,1406.63 941.096,1311.13 958,1195.5C 981.799,1087.37 1044.97,1012.54 1147.5,971C 1173.67,962.256 1200.34,956.423 1227.5,953.5 Z"/></g>
</svg>
