<?xml version="1.0" encoding="UTF-8"?>
<!DOCTYPE svg PUBLIC "-//W3C//DTD SVG 1.1//EN" "http://www.w3.org/Graphics/SVG/1.1/DTD/svg11.dtd">
<svg xmlns="http://www.w3.org/2000/svg" version="1.1" width="2023px" height="2023px" style="shape-rendering:geometricPrecision; text-rendering:geometricPrecision; image-rendering:optimizeQuality; fill-rule:evenodd; clip-rule:evenodd" xmlns:xlink="http://www.w3.org/1999/xlink">
<g><path style="opacity:0.999" fill="#fea309" d="M 195.5,-0.5 C 204.167,-0.5 212.833,-0.5 221.5,-0.5C 277.605,8.14754 330.605,26.3142 380.5,54C 440.452,88.1129 495.452,128.946 545.5,176.5C 572.116,203.62 598.283,231.286 624,259.5C 647.141,286.302 669.141,313.969 690,342.5C 690.804,343.804 691.971,344.471 693.5,344.5C 795.339,308.284 900.339,291.617 1008.5,294.5C 1119.09,292.987 1226.75,309.987 1331.5,345.5C 1333.03,345.471 1334.2,344.804 1335,343.5C 1377.09,284.097 1423.92,228.431 1475.5,176.5C 1533.49,117.993 1599.49,70.4928 1673.5,34C 1710.86,16.4852 1749.86,4.98524 1790.5,-0.5C 1797.5,-0.5 1804.5,-0.5 1811.5,-0.5C 1829.23,15.2549 1841.73,34.5882 1849,57.5C 1857.78,85.834 1862.78,114.834 1864,144.5C 1865.8,194.028 1863.47,243.361 1857,292.5C 1848.97,353.353 1838.14,413.686 1824.5,473.5C 1801.68,571.14 1774.68,667.64 1743.5,763C 1765.05,802.273 1784.89,842.439 1803,883.5C 1847.81,993.383 1871.31,1107.72 1873.5,1226.5C 1691.27,1212.81 1529.27,1262.81 1387.5,1376.5C 1368.74,1308.7 1336.24,1248.7 1290,1196.5C 1223.06,1125.6 1140.56,1088.43 1042.5,1085C 926.196,1080.75 825.529,1117.75 740.5,1196C 686.458,1247.91 644.125,1308.08 613.5,1376.5C 518.718,1278.29 402.718,1225.13 265.5,1217C 223.674,1214.28 182.007,1215.78 140.5,1221.5C 151.105,1063.91 192.772,915.072 265.5,775C 234.241,682.469 207.408,588.635 185,493.5C 184.617,492.944 184.117,492.611 183.5,492.5C 168.65,428.069 156.817,363.069 148,297.5C 141.326,247.703 138.992,197.703 141,147.5C 142.249,114.921 148.249,83.2542 159,52.5C 166.748,31.6312 178.915,13.9645 195.5,-0.5 Z"/></g>
<g><path style="opacity:0.998" fill="#f00500" d="M 1475.5,176.5 C 1423.92,228.431 1377.09,284.097 1335,343.5C 1334.2,344.804 1333.03,345.471 1331.5,345.5C 1226.75,309.987 1119.09,292.987 1008.5,294.5C 900.339,291.617 795.339,308.284 693.5,344.5C 691.971,344.471 690.804,343.804 690,342.5C 669.141,313.969 647.141,286.302 624,259.5C 598.283,231.286 572.116,203.62 545.5,176.5C 769.804,65.3377 1004.14,37.5044 1248.5,93C 1327.4,112.243 1403.07,140.076 1475.5,176.5 Z"/></g>
<g><path style="opacity:0.999" fill="#ff9300" d="M 516.5,439.5 C 484.376,379.21 444.71,324.376 397.5,275C 375.433,253.591 351.099,235.258 324.5,220C 298.339,205.46 270.339,198.46 240.5,199C 239.099,199.41 237.766,199.91 236.5,200.5C 239.907,180.114 246.407,160.78 256,142.5C 258.798,137.737 261.964,133.237 265.5,129C 269.551,128.482 273.551,128.816 277.5,130C 310.615,139.594 341.949,153.26 371.5,171C 428.5,205.859 481.166,246.526 529.5,293C 557.925,320.422 585.258,348.756 611.5,378C 578.102,396.019 546.435,416.519 516.5,439.5 Z"/></g>
<g><path style="opacity:0.999" fill="#ff9300" d="M 1770.5,199.5 C 1746.03,197.817 1722.7,202.317 1700.5,213C 1674.97,225.875 1651.64,241.875 1630.5,261C 1577.58,313.41 1534.58,372.91 1501.5,439.5C 1472.21,416.894 1441.54,396.227 1409.5,377.5C 1471.93,303.213 1542.6,238.379 1621.5,183C 1653.28,161.777 1687.28,144.777 1723.5,132C 1729.51,130.497 1735.51,128.997 1741.5,127.5C 1757.2,148.924 1766.87,172.924 1770.5,199.5 Z"/></g>
<g><path style="opacity:1" fill="#ff8300" d="M 516.5,439.5 C 437.872,499.614 373.705,572.281 324,657.5C 290.11,570.826 264.11,481.826 246,390.5C 235.384,338.004 231.05,285.004 233,231.5C 233.839,221.119 235.005,210.786 236.5,200.5C 237.766,199.91 239.099,199.41 240.5,199C 270.339,198.46 298.339,205.46 324.5,220C 351.099,235.258 375.433,253.591 397.5,275C 444.71,324.376 484.376,379.21 516.5,439.5 Z"/></g>
<g><path style="opacity:1" fill="#ff8300" d="M 1770.5,199.5 C 1773.19,212.555 1774.69,225.888 1775,239.5C 1776.22,290.635 1771.89,341.302 1762,391.5C 1744.47,482.272 1719.47,570.939 1687,657.5C 1639.48,572.904 1577.65,500.238 1501.5,439.5C 1534.58,372.91 1577.58,313.41 1630.5,261C 1651.64,241.875 1674.97,225.875 1700.5,213C 1722.7,202.317 1746.03,197.817 1770.5,199.5 Z"/></g>
<g><path style="opacity:0.997" fill="#f00500" d="M 1824.5,473.5 C 1937.75,627.834 1999.59,801.167 2010,993.5C 2019.55,1252.88 1940.88,1480.88 1774,1677.5C 1621.19,1850.2 1431.03,1959.37 1203.5,2005C 1155.05,2013.96 1106.39,2019.79 1057.5,2022.5C 1026.5,2022.5 995.5,2022.5 964.5,2022.5C 714.94,2008.83 498.94,1917.67 316.5,1749C 136.236,1576.61 35.0689,1365.44 13,1115.5C -1.36681,887.846 55.4665,680.179 183.5,492.5C 184.117,492.611 184.617,492.944 185,493.5C 207.408,588.635 234.241,682.469 265.5,775C 192.772,915.072 151.105,1063.91 140.5,1221.5C 134.43,1272.96 141.93,1322.29 163,1369.5C 181.057,1408.64 203.39,1444.98 230,1478.5C 261.66,1517.83 296.494,1554.33 334.5,1588C 469.42,1705.67 622.42,1793.34 793.5,1851C 852.776,1870.32 913.443,1882.99 975.5,1889C 1037.22,1892.11 1098.22,1886.77 1158.5,1873C 1327.63,1832.75 1480.96,1760.42 1618.5,1656C 1683.08,1606.76 1739.58,1549.59 1788,1484.5C 1807.55,1457.11 1824.88,1428.11 1840,1397.5C 1854.9,1363.8 1865.56,1328.8 1872,1292.5C 1873.67,1276.2 1874.84,1259.87 1875.5,1243.5C 1875.4,1237.62 1874.74,1231.95 1873.5,1226.5C 1871.31,1107.72 1847.81,993.383 1803,883.5C 1784.89,842.439 1765.05,802.273 1743.5,763C 1774.68,667.64 1801.68,571.14 1824.5,473.5 Z"/></g>
<g><path style="opacity:1" fill="#fffefe" d="M 636.5,663.5 C 670.571,662.579 700.904,672.746 727.5,694C 742.186,705.544 751.686,720.377 756,738.5C 756.591,764.482 749.591,788.149 735,809.5C 731.547,813.145 727.38,815.645 722.5,817C 698.96,820.345 675.293,821.345 651.5,820C 630.088,821.051 609.088,818.718 588.5,813C 559.4,803.304 545.9,783.138 548,752.5C 553.419,713.425 574.252,686.259 610.5,671C 619.114,667.851 627.781,665.351 636.5,663.5 Z"/></g>
<g><path style="opacity:1" fill="#fffefe" d="M 1373.5,663.5 C 1413.86,663.117 1448.02,677.451 1476,706.5C 1488.68,721.2 1493.68,738.2 1491,757.5C 1488.35,775.136 1482.35,791.469 1473,806.5C 1469.26,811.578 1464.43,815.078 1458.5,817C 1432.29,820.391 1405.95,821.391 1379.5,820C 1362.95,820.402 1346.61,818.736 1330.5,815C 1296.72,806.581 1281.22,785.081 1284,750.5C 1290.48,710.023 1312.98,682.857 1351.5,669C 1358.89,666.835 1366.22,665.002 1373.5,663.5 Z"/></g>
<g><path style="opacity:1" fill="#000000" d="M 1514.5,882.5 C 1522.84,882.334 1531.17,882.5 1539.5,883C 1541,884.5 1542.5,886 1544,887.5C 1554.02,911.19 1557.35,935.857 1554,961.5C 1553.81,970.543 1553.14,979.543 1552,988.5C 1550.06,992.11 1547.72,995.443 1545,998.5C 1520.78,1021.71 1492.95,1039.54 1461.5,1052C 1401.98,1077.38 1339.98,1093.05 1275.5,1099C 1262.17,1099.67 1248.83,1099.67 1235.5,1099C 1227.55,1098.69 1220.72,1095.85 1215,1090.5C 1213.16,1085.88 1213.16,1081.21 1215,1076.5C 1219.87,1062.32 1227.21,1049.65 1237,1038.5C 1248.64,1025.52 1261.47,1014.02 1275.5,1004C 1333.31,965.082 1393.98,930.749 1457.5,901C 1476.13,893.291 1495.13,887.124 1514.5,882.5 Z"/></g>
<g><path style="opacity:1" fill="#000000" d="M 487.5,885.5 C 510.305,884.627 532.305,888.461 553.5,897C 580.591,907.256 606.925,919.256 632.5,933C 679.744,958.283 725.411,985.95 769.5,1016C 792.108,1032.74 808.275,1054.24 818,1080.5C 818.76,1084.23 818.593,1087.89 817.5,1091.5C 810.656,1096.39 802.989,1099.23 794.5,1100C 756.659,1101.6 719.326,1097.94 682.5,1089C 637.971,1079.6 594.971,1065.6 553.5,1047C 532.838,1037.34 513.505,1025.68 495.5,1012C 488,1005.83 481.167,999 475,991.5C 473.488,968.521 473.155,945.521 474,922.5C 475.197,908.808 479.697,896.475 487.5,885.5 Z"/></g>
<g><path style="opacity:1" fill="#fefefe" d="M 1873.5,1226.5 C 1874.74,1231.95 1875.4,1237.62 1875.5,1243.5C 1874.84,1259.87 1873.67,1276.2 1872,1292.5C 1865.56,1328.8 1854.9,1363.8 1840,1397.5C 1824.88,1428.11 1807.55,1457.11 1788,1484.5C 1739.58,1549.59 1683.08,1606.76 1618.5,1656C 1480.96,1760.42 1327.63,1832.75 1158.5,1873C 1098.22,1886.77 1037.22,1892.11 975.5,1889C 913.443,1882.99 852.776,1870.32 793.5,1851C 622.42,1793.34 469.42,1705.67 334.5,1588C 296.494,1554.33 261.66,1517.83 230,1478.5C 203.39,1444.98 181.057,1408.64 163,1369.5C 141.93,1322.29 134.43,1272.96 140.5,1221.5C 182.007,1215.78 223.674,1214.28 265.5,1217C 402.718,1225.13 518.718,1278.29 613.5,1376.5C 644.125,1308.08 686.458,1247.91 740.5,1196C 825.529,1117.75 926.196,1080.75 1042.5,1085C 1140.56,1088.43 1223.06,1125.6 1290,1196.5C 1336.24,1248.7 1368.74,1308.7 1387.5,1376.5C 1529.27,1262.81 1691.27,1212.81 1873.5,1226.5 Z"/></g>
<g><path style="opacity:1" fill="#010101" d="M 947.5,1231.5 C 1003.83,1231.33 1060.17,1231.5 1116.5,1232C 1129.13,1236.9 1139.96,1244.4 1149,1254.5C 1153.75,1261.09 1156.75,1268.42 1158,1276.5C 1159.26,1300.28 1158.26,1323.94 1155,1347.5C 1146.67,1377.83 1129.17,1401.33 1102.5,1418C 1088.88,1426.89 1074.38,1434.06 1059,1439.5C 1059.25,1461.49 1059.42,1483.49 1059.5,1505.5C 1063.85,1505.33 1068.18,1505.5 1072.5,1506C 1079.08,1515.16 1085.41,1524.49 1091.5,1534C 1121.83,1534.67 1152.17,1534.67 1182.5,1534C 1184.5,1531 1186.5,1528 1188.5,1525C 1212.16,1524.5 1235.83,1524.33 1259.5,1524.5C 1254.01,1545.81 1248.51,1567.14 1243,1588.5C 1236.42,1590.12 1229.58,1591.12 1222.5,1591.5C 1212.59,1615.65 1202.42,1639.65 1192,1663.5C 1187.75,1657.34 1183.75,1651 1180,1644.5C 1179.5,1615.5 1179.33,1586.5 1179.5,1557.5C 1083.55,1573.06 987.548,1573.39 891.5,1558.5C 892.194,1588.5 892.694,1618.5 893,1648.5C 889.333,1653.83 885.667,1659.17 882,1664.5C 867.319,1641.8 857.319,1617.14 852,1590.5C 845.526,1589.86 839.026,1589.52 832.5,1589.5C 828.892,1576.4 826.558,1563.06 825.5,1549.5C 819.748,1542.7 813.248,1536.7 806,1531.5C 804.921,1528.94 804.421,1526.27 804.5,1523.5C 830.496,1524.1 856.496,1524.6 882.5,1525C 883.5,1527.33 884.5,1529.67 885.5,1532C 917.481,1533.47 949.481,1534.63 981.5,1535.5C 984.5,1535.17 987.5,1534.83 990.5,1534.5C 996.585,1524.66 1002.92,1515 1009.5,1505.5C 1014.12,1504.51 1018.79,1504.17 1023.5,1504.5C 1023.67,1482.83 1023.5,1461.16 1023,1439.5C 994.09,1428.13 967.257,1413.3 942.5,1395C 908.289,1367.86 894.956,1332.52 902.5,1289C 899.902,1264.18 909.569,1246.18 931.5,1235C 936.841,1233.25 942.174,1232.08 947.5,1231.5 Z"/></g>
<g><path style="opacity:1" fill="#050505" d="M 942.5,1587.5 C 997.501,1587.33 1052.5,1587.5 1107.5,1588C 1108.88,1593.84 1108.72,1599.67 1107,1605.5C 1100.58,1610.96 1093.41,1615.3 1085.5,1618.5C 1078.55,1614.11 1072.05,1609.11 1066,1603.5C 1057.17,1613 1048.33,1622.5 1039.5,1632C 1030.57,1637.82 1023.07,1636.32 1017,1627.5C 1011.83,1619.83 1006.67,1612.17 1001.5,1604.5C 995.56,1602.9 989.56,1602.06 983.5,1602C 980.627,1607.58 977.627,1613.08 974.5,1618.5C 963.822,1614.99 953.488,1610.66 943.5,1605.5C 942.504,1599.54 942.171,1593.54 942.5,1587.5 Z"/></g>
</svg>
