<?xml version="1.0" encoding="UTF-8"?>
<!DOCTYPE svg PUBLIC "-//W3C//DTD SVG 1.1//EN" "http://www.w3.org/Graphics/SVG/1.1/DTD/svg11.dtd">
<svg xmlns="http://www.w3.org/2000/svg" version="1.1" width="2000px" height="2000px" style="shape-rendering:geometricPrecision; text-rendering:geometricPrecision; image-rendering:optimizeQuality; fill-rule:evenodd; clip-rule:evenodd" xmlns:xlink="http://www.w3.org/1999/xlink">
<g><path style="opacity:0.998" fill="#4cb0c3" d="M 429.5,215.5 C 677.67,345.469 926.003,475.302 1174.5,605C 1183.01,605.171 1191.34,605.671 1199.5,606.5C 1163.83,606.5 1128.17,606.5 1092.5,606.5C 1084.34,605.671 1076.01,605.171 1067.5,605C 824.27,477.886 580.937,351.053 337.5,224.5C 344.172,220.216 351.505,217.383 359.5,216C 382.831,215.5 406.164,215.333 429.5,215.5 Z"/></g>
<g><path style="opacity:0.999" fill="#49b3c2" d="M 429.5,215.5 C 441.833,215.5 454.167,215.5 466.5,215.5C 715.342,346.088 964.342,476.422 1213.5,606.5C 1208.83,606.5 1204.17,606.5 1199.5,606.5C 1191.34,605.671 1183.01,605.171 1174.5,605C 926.003,475.302 677.67,345.469 429.5,215.5 Z"/></g>
<g><path style="opacity:0.998" fill="#48b4c0" d="M 466.5,215.5 C 472.167,215.5 477.833,215.5 483.5,215.5C 732.658,345.578 981.658,475.912 1230.5,606.5C 1224.83,606.5 1219.17,606.5 1213.5,606.5C 964.342,476.422 715.342,346.088 466.5,215.5 Z"/></g>
<g><path style="opacity:0.998" fill="#46b7c0" d="M 483.5,215.5 C 512.5,215.5 541.5,215.5 570.5,215.5C 818.457,345.814 1066.79,475.647 1315.5,605C 1324.01,605.171 1332.34,605.671 1340.5,606.5C 1303.83,606.5 1267.17,606.5 1230.5,606.5C 981.658,475.912 732.658,345.578 483.5,215.5 Z"/></g>
<g><path style="opacity:0.999" fill="#43babf" d="M 570.5,215.5 C 587.5,215.5 604.5,215.5 621.5,215.5C 870.658,345.578 1119.66,475.912 1368.5,606.5C 1359.17,606.5 1349.83,606.5 1340.5,606.5C 1332.34,605.671 1324.01,605.171 1315.5,605C 1066.79,475.647 818.457,345.814 570.5,215.5 Z"/></g>
<g><path style="opacity:0.998" fill="#40bdbd" d="M 621.5,215.5 C 651.167,215.5 680.833,215.5 710.5,215.5C 958.772,345.304 1207.11,475.137 1455.5,605C 1464.34,605.17 1473.01,605.67 1481.5,606.5C 1443.83,606.5 1406.17,606.5 1368.5,606.5C 1119.66,475.912 870.658,345.578 621.5,215.5 Z"/></g>
<g><path style="opacity:0.999" fill="#3dc0bc" d="M 710.5,215.5 C 727.167,215.5 743.833,215.5 760.5,215.5C 1009.17,345.833 1257.83,476.167 1506.5,606.5C 1498.17,606.5 1489.83,606.5 1481.5,606.5C 1473.01,605.67 1464.34,605.17 1455.5,605C 1207.11,475.137 958.772,345.304 710.5,215.5 Z"/></g>
<g><path style="opacity:0.998" fill="#3bc2bc" d="M 760.5,215.5 C 774.5,215.5 788.5,215.5 802.5,215.5C 1051.34,346.088 1300.34,476.422 1549.5,606.5C 1535.17,606.5 1520.83,606.5 1506.5,606.5C 1257.83,476.167 1009.17,345.833 760.5,215.5 Z"/></g>
<g><path style="opacity:0.997" fill="#39c4ba" d="M 802.5,215.5 C 818.833,215.5 835.167,215.5 851.5,215.5C 1099.67,345.469 1348,475.302 1596.5,605C 1605.01,605.171 1613.34,605.671 1621.5,606.5C 1597.5,606.5 1573.5,606.5 1549.5,606.5C 1300.34,476.422 1051.34,346.088 802.5,215.5 Z"/></g>
<g><path style="opacity:0.999" fill="#37c6ba" d="M 851.5,215.5 C 867.167,215.5 882.833,215.5 898.5,215.5C 1146.01,345.422 1393.68,475.088 1641.5,604.5C 1635.08,606.201 1628.41,606.867 1621.5,606.5C 1613.34,605.671 1605.01,605.171 1596.5,605C 1348,475.302 1099.67,345.469 851.5,215.5 Z"/></g>
<g><path style="opacity:1" fill="#34cab8" d="M 898.5,215.5 C 937.5,215.5 976.5,215.5 1015.5,215.5C 1240.97,333.738 1466.64,451.738 1692.5,569.5C 1684.67,578.162 1676.34,586.328 1667.5,594C 1659.59,599.458 1650.92,602.958 1641.5,604.5C 1393.68,475.088 1146.01,345.422 898.5,215.5 Z"/></g>
<g><path style="opacity:1" fill="#30cdb7" d="M 1015.5,215.5 C 1030.17,215.5 1044.83,215.5 1059.5,215.5C 1275.22,329.025 1491.22,442.025 1707.5,554.5C 1702.83,559.833 1697.83,564.833 1692.5,569.5C 1466.64,451.738 1240.97,333.738 1015.5,215.5 Z"/></g>
<g><path style="opacity:1" fill="#2dd0b6" d="M 1059.5,215.5 C 1085.83,215.5 1112.17,215.5 1138.5,215.5C 1337.17,319.5 1535.83,423.5 1734.5,527.5C 1725.83,536.833 1716.83,545.833 1707.5,554.5C 1491.22,442.025 1275.22,329.025 1059.5,215.5 Z"/></g>
<g><path style="opacity:1" fill="#2ad3b4" d="M 1138.5,215.5 C 1158.17,215.5 1177.83,215.5 1197.5,215.5C 1381.11,311.637 1564.77,407.804 1748.5,504C 1750.65,505.411 1752.98,506.245 1755.5,506.5C 1748.83,513.833 1741.83,520.833 1734.5,527.5C 1535.83,423.5 1337.17,319.5 1138.5,215.5 Z"/></g>
<g><path style="opacity:1" fill="#27d6b3" d="M 1197.5,215.5 C 1230.5,215.5 1263.5,215.5 1296.5,215.5C 1460.58,301.562 1624.91,387.228 1789.5,472.5C 1778.5,484.167 1767.17,495.5 1755.5,506.5C 1752.98,506.245 1750.65,505.411 1748.5,504C 1564.77,407.804 1381.11,311.637 1197.5,215.5 Z"/></g>
<g><path style="opacity:1" fill="#24d9b2" d="M 1296.5,215.5 C 1309.5,215.5 1322.5,215.5 1335.5,215.5C 1489.95,296.559 1644.61,377.392 1799.5,458C 1800.38,458.708 1801.05,459.542 1801.5,460.5C 1797.83,464.833 1793.83,468.833 1789.5,472.5C 1624.91,387.228 1460.58,301.562 1296.5,215.5 Z"/></g>
<g><path style="opacity:1" fill="#21dcb1" d="M 1335.5,215.5 C 1369.5,215.5 1403.5,215.5 1437.5,215.5C 1570.51,285.673 1703.84,355.34 1837.5,424.5C 1825.83,436.833 1813.83,448.833 1801.5,460.5C 1801.05,459.542 1800.38,458.708 1799.5,458C 1644.61,377.392 1489.95,296.559 1335.5,215.5 Z"/></g>
<g><path style="opacity:1" fill="#1edfb0" d="M 1437.5,215.5 C 1449.5,215.5 1461.5,215.5 1473.5,215.5C 1591.95,277.892 1710.61,340.059 1829.5,402C 1836.29,405.733 1843.29,408.899 1850.5,411.5C 1846.5,416.167 1842.17,420.5 1837.5,424.5C 1703.84,355.34 1570.51,285.673 1437.5,215.5 Z"/></g>
<g><path style="opacity:1" fill="#1ce1af" d="M 1473.5,215.5 C 1492.83,215.5 1512.17,215.5 1531.5,215.5C 1643.82,274.993 1756.48,333.993 1869.5,392.5C 1863.5,399.167 1857.17,405.5 1850.5,411.5C 1843.29,408.899 1836.29,405.733 1829.5,402C 1710.61,340.059 1591.95,277.892 1473.5,215.5 Z"/></g>
<g><path style="opacity:1" fill="#1ae4ad" d="M 1531.5,215.5 C 1554.83,215.5 1578.17,215.5 1601.5,215.5C 1698.86,266.515 1796.2,317.515 1893.5,368.5C 1885.83,376.833 1877.83,384.833 1869.5,392.5C 1756.48,333.993 1643.82,274.993 1531.5,215.5 Z"/></g>
<g><path style="opacity:1" fill="#17e6ad" d="M 1601.5,215.5 C 1612.5,215.5 1623.5,215.5 1634.5,215.5C 1724.5,262.833 1814.5,310.167 1904.5,357.5C 1901.17,361.5 1897.5,365.167 1893.5,368.5C 1796.2,317.515 1698.86,266.515 1601.5,215.5 Z"/></g>
<g><path style="opacity:0.999" fill="#14e9ab" d="M 1634.5,215.5 C 1670.5,215.5 1706.5,215.5 1742.5,215.5C 1805.44,248.638 1868.44,281.804 1931.5,315C 1934.97,317.072 1938.64,318.572 1942.5,319.5C 1930.17,332.5 1917.5,345.167 1904.5,357.5C 1814.5,310.167 1724.5,262.833 1634.5,215.5 Z"/></g>
<g><path style="opacity:0.999" fill="#11ecaa" d="M 1742.5,215.5 C 1752.83,215.5 1763.17,215.5 1773.5,215.5C 1832.97,247.072 1892.64,278.405 1952.5,309.5C 1949.5,313.167 1946.17,316.5 1942.5,319.5C 1938.64,318.572 1934.97,317.072 1931.5,315C 1868.44,281.804 1805.44,248.638 1742.5,215.5 Z"/></g>
<g><path style="opacity:0.999" fill="#0fefa9" d="M 1773.5,215.5 C 1804.83,215.5 1836.17,215.5 1867.5,215.5C 1903.77,234.638 1940.11,253.804 1976.5,273C 1979.31,274.741 1982.31,275.908 1985.5,276.5C 1974.83,287.833 1963.83,298.833 1952.5,309.5C 1892.64,278.405 1832.97,247.072 1773.5,215.5 Z"/></g>
<g><path style="opacity:0.999" fill="#0cf2a8" d="M 1867.5,215.5 C 1882.17,215.5 1896.83,215.5 1911.5,215.5C 1939.84,231.006 1968.51,246.006 1997.5,260.5C 1994.96,266.915 1990.96,272.249 1985.5,276.5C 1982.31,275.908 1979.31,274.741 1976.5,273C 1940.11,253.804 1903.77,234.638 1867.5,215.5 Z"/></g>
<g><path style="opacity:0.99" fill="#0af4a7" d="M 1911.5,215.5 C 1932.84,215.333 1954.17,215.5 1975.5,216C 1987.32,219.992 1995.32,227.825 1999.5,239.5C 1999.5,245.5 1999.5,251.5 1999.5,257.5C 1998.83,258.5 1998.17,259.5 1997.5,260.5C 1968.51,246.006 1939.84,231.006 1911.5,215.5 Z"/></g>
<g><path style="opacity:0.996" fill="#50adc4" d="M 337.5,224.5 C 580.937,351.053 824.27,477.886 1067.5,605C 1076.01,605.171 1084.34,605.671 1092.5,606.5C 1057.83,606.5 1023.17,606.5 988.5,606.5C 995.655,605.671 1002.99,605.171 1010.5,605C 780.5,485 550.5,365 320.5,245C 318.937,244.241 317.937,243.074 317.5,241.5C 322.987,234.339 329.653,228.672 337.5,224.5 Z"/></g>
<g><path style="opacity:0.999" fill="#53aac5" d="M 317.5,241.5 C 317.937,243.074 318.937,244.241 320.5,245C 550.5,365 780.5,485 1010.5,605C 1002.99,605.171 995.655,605.671 988.5,606.5C 977.167,606.5 965.833,606.5 954.5,606.5C 946.343,605.671 938.01,605.171 929.5,605C 715.807,493.487 502.14,381.987 288.5,270.5C 297.833,260.5 307.5,250.833 317.5,241.5 Z"/></g>
<g><path style="opacity:0.997" fill="#56a7c6" d="M 288.5,270.5 C 502.14,381.987 715.807,493.487 929.5,605C 938.01,605.171 946.343,605.671 954.5,606.5C 928.5,606.5 902.5,606.5 876.5,606.5C 674.5,500.5 472.5,394.5 270.5,288.5C 276.167,282.167 282.167,276.167 288.5,270.5 Z"/></g>
<g><path style="opacity:0.989" fill="#57a5c8" d="M 270.5,288.5 C 472.5,394.5 674.5,500.5 876.5,606.5C 867.167,606.5 857.833,606.5 848.5,606.5C 855.321,605.671 862.321,605.171 869.5,605C 669.209,499.689 468.543,395.189 267.5,291.5C 268.167,290.167 269.167,289.167 270.5,288.5 Z"/></g>
<g><path style="opacity:0.999" fill="#59a4c8" d="M 267.5,291.5 C 468.543,395.189 669.209,499.689 869.5,605C 862.321,605.171 855.321,605.671 848.5,606.5C 837.833,606.5 827.167,606.5 816.5,606.5C 808.343,605.671 800.01,605.171 791.5,605C 607.948,509.392 424.614,413.559 241.5,317.5C 249.833,308.5 258.5,299.833 267.5,291.5 Z"/></g>
<g><path style="opacity:0.995" fill="#5ca1c9" d="M 241.5,317.5 C 424.614,413.559 607.948,509.392 791.5,605C 800.01,605.171 808.343,605.671 816.5,606.5C 780.167,606.5 743.833,606.5 707.5,606.5C 714.655,605.671 721.989,605.171 729.5,605C 559.604,516.219 389.604,427.719 219.5,339.5C 226.5,331.833 233.833,324.5 241.5,317.5 Z"/></g>
<g><path style="opacity:0.998" fill="#5f9eca" d="M 219.5,339.5 C 389.604,427.719 559.604,516.219 729.5,605C 721.989,605.171 714.655,605.671 707.5,606.5C 697.5,606.5 687.5,606.5 677.5,606.5C 669.677,605.671 661.677,605.171 653.5,605C 500.27,524.886 346.937,445.053 193.5,365.5C 201.833,356.5 210.5,347.833 219.5,339.5 Z"/></g>
<g><path style="opacity:0.994" fill="#629bcc" d="M 193.5,365.5 C 346.937,445.053 500.27,524.886 653.5,605C 661.677,605.171 669.677,605.671 677.5,606.5C 640.5,606.5 603.5,606.5 566.5,606.5C 573.655,605.671 580.989,605.171 588.5,605C 449.473,532.487 310.473,459.987 171.5,387.5C 178.5,379.833 185.833,372.5 193.5,365.5 Z"/></g>
<g><path style="opacity:0.998" fill="#6597cd" d="M 171.5,387.5 C 310.473,459.987 449.473,532.487 588.5,605C 580.989,605.171 573.655,605.671 566.5,606.5C 557.833,606.5 549.167,606.5 540.5,606.5C 524.338,605.669 508.005,605.169 491.5,605C 373.807,543.487 256.14,481.987 138.5,420.5C 149.167,409.167 160.167,398.167 171.5,387.5 Z"/></g>
<g><path style="opacity:0.996" fill="#6994ce" d="M 138.5,420.5 C 256.14,481.987 373.807,543.487 491.5,605C 508.005,605.169 524.338,605.669 540.5,606.5C 502.5,606.5 464.5,606.5 426.5,606.5C 323.094,551.463 219.094,497.463 114.5,444.5C 122.167,436.167 130.167,428.167 138.5,420.5 Z"/></g>
<g><path style="opacity:0.993" fill="#6b91d0" d="M 114.5,444.5 C 219.094,497.463 323.094,551.463 426.5,606.5C 395.167,606.5 363.833,606.5 332.5,606.5C 339.321,605.671 346.321,605.171 353.5,605C 265.947,559.392 178.614,513.559 91.5,467.5C 98.8333,459.5 106.5,451.833 114.5,444.5 Z"/></g>
<g><path style="opacity:0.995" fill="#6e8ed1" d="M 91.5,467.5 C 178.614,513.559 265.947,559.392 353.5,605C 346.321,605.171 339.321,605.671 332.5,606.5C 316.833,606.5 301.167,606.5 285.5,606.5C 212.833,568.167 140.167,529.833 67.5,491.5C 75.1667,483.167 83.1667,475.167 91.5,467.5 Z"/></g>
<g><path style="opacity:0.99" fill="#718bd2" d="M 67.5,491.5 C 140.167,529.833 212.833,568.167 285.5,606.5C 258.167,606.5 230.833,606.5 203.5,606.5C 207.312,605.676 211.312,605.176 215.5,605C 158.27,574.886 100.937,545.053 43.5,515.5C 51.1667,507.167 59.1667,499.167 67.5,491.5 Z"/></g>
<g><path style="opacity:1" fill="#7488d3" d="M 43.5,515.5 C 100.937,545.053 158.27,574.886 215.5,605C 211.312,605.176 207.312,605.676 203.5,606.5C 200.5,606.5 197.5,606.5 194.5,606.5C 178.338,605.669 162.005,605.169 145.5,605C 103.455,583.314 61.7879,561.147 20.5,538.5C 27.8333,530.5 35.5,522.833 43.5,515.5 Z"/></g>
<g><path style="opacity:0.98" fill="#7785d5" d="M 20.5,538.5 C 61.7879,561.147 103.455,583.314 145.5,605C 162.005,605.169 178.338,605.669 194.5,606.5C 148.5,606.5 102.5,606.5 56.5,606.5C 63.3213,605.671 70.3213,605.171 77.5,605C 51.8716,591.019 25.8716,577.853 -0.5,565.5C -0.5,565.167 -0.5,564.833 -0.5,564.5C 4.1683,554.143 11.1683,545.476 20.5,538.5 Z"/></g>
<g><path style="opacity:0.977" fill="#7a82d6" d="M -0.5,565.5 C 25.8716,577.853 51.8716,591.019 77.5,605C 70.3213,605.171 63.3213,605.671 56.5,606.5C 46.8276,606.666 37.1609,606.5 27.5,606C 12.9634,603.622 3.63004,595.455 -0.5,581.5C -0.5,576.167 -0.5,570.833 -0.5,565.5 Z"/></g>
<g><path style="opacity:0.997" fill="#8a71dd" d="M 72.5,800.5 C 320.772,930.304 569.105,1060.14 817.5,1190C 826.01,1190.17 834.343,1190.67 842.5,1191.5C 807.833,1191.5 773.167,1191.5 738.5,1191.5C 745.655,1190.67 752.989,1190.17 760.5,1190C 512.948,1061.06 265.615,931.892 18.5,802.5C 20.1789,802.108 21.8455,801.608 23.5,801C 39.8299,800.5 56.1633,800.333 72.5,800.5 Z"/></g>
<g><path style="opacity:0.999" fill="#8774db" d="M 72.5,800.5 C 99.5,800.5 126.5,800.5 153.5,800.5C 402.342,931.088 651.342,1061.42 900.5,1191.5C 881.167,1191.5 861.833,1191.5 842.5,1191.5C 834.343,1190.67 826.01,1190.17 817.5,1190C 569.105,1060.14 320.772,930.304 72.5,800.5 Z"/></g>
<g><path style="opacity:0.998" fill="#8577db" d="M 153.5,800.5 C 163.833,800.5 174.167,800.5 184.5,800.5C 433.658,930.578 682.658,1060.91 931.5,1191.5C 921.167,1191.5 910.833,1191.5 900.5,1191.5C 651.342,1061.42 402.342,931.088 153.5,800.5 Z"/></g>
<g><path style="opacity:0.998" fill="#8478da" d="M 184.5,800.5 C 194.167,800.5 203.833,800.5 213.5,800.5C 462.342,931.088 711.342,1061.42 960.5,1191.5C 950.833,1191.5 941.167,1191.5 931.5,1191.5C 682.658,1060.91 433.658,930.578 184.5,800.5 Z"/></g>
<g><path style="opacity:0.999" fill="#817ad9" d="M 213.5,800.5 C 239.5,800.5 265.5,800.5 291.5,800.5C 539.67,930.469 788.003,1060.3 1036.5,1190C 1029.32,1190.17 1022.32,1190.67 1015.5,1191.5C 997.167,1191.5 978.833,1191.5 960.5,1191.5C 711.342,1061.42 462.342,931.088 213.5,800.5 Z"/></g>
<g><path style="opacity:0.997" fill="#7e7ed7" d="M 291.5,800.5 C 320.167,800.5 348.833,800.5 377.5,800.5C 625.67,930.469 874.003,1060.3 1122.5,1190C 1131.01,1190.17 1139.34,1190.67 1147.5,1191.5C 1103.5,1191.5 1059.5,1191.5 1015.5,1191.5C 1022.32,1190.67 1029.32,1190.17 1036.5,1190C 788.003,1060.3 539.67,930.469 291.5,800.5 Z"/></g>
<g><path style="opacity:0.999" fill="#7a81d6" d="M 377.5,800.5 C 402.5,800.5 427.5,800.5 452.5,800.5C 701.658,930.578 950.658,1060.91 1199.5,1191.5C 1182.17,1191.5 1164.83,1191.5 1147.5,1191.5C 1139.34,1190.67 1131.01,1190.17 1122.5,1190C 874.003,1060.3 625.67,930.469 377.5,800.5 Z"/></g>
<g><path style="opacity:0.998" fill="#7784d5" d="M 452.5,800.5 C 475.5,800.5 498.5,800.5 521.5,800.5C 769.457,930.814 1017.79,1060.65 1266.5,1190C 1282.67,1190.17 1298.67,1190.67 1314.5,1191.5C 1276.17,1191.5 1237.83,1191.5 1199.5,1191.5C 950.658,1060.91 701.658,930.578 452.5,800.5 Z"/></g>
<g><path style="opacity:1" fill="#7487d3" d="M 521.5,800.5 C 544.5,800.5 567.5,800.5 590.5,800.5C 838.772,930.304 1087.11,1060.14 1335.5,1190C 1331.64,1190.18 1327.98,1190.68 1324.5,1191.5C 1321.17,1191.5 1317.83,1191.5 1314.5,1191.5C 1298.67,1190.67 1282.67,1190.17 1266.5,1190C 1017.79,1060.65 769.457,930.814 521.5,800.5 Z"/></g>
<g><path style="opacity:0.997" fill="#718ad2" d="M 590.5,800.5 C 621.167,800.5 651.833,800.5 682.5,800.5C 675.345,801.329 668.011,801.829 660.5,802C 908.324,931.078 1155.99,1060.41 1403.5,1190C 1412.34,1190.17 1421.01,1190.67 1429.5,1191.5C 1394.5,1191.5 1359.5,1191.5 1324.5,1191.5C 1327.98,1190.68 1331.64,1190.18 1335.5,1190C 1087.11,1060.14 838.772,930.304 590.5,800.5 Z"/></g>
<g><path style="opacity:0.999" fill="#6f8dd1" d="M 682.5,800.5 C 698.167,800.5 713.833,800.5 729.5,800.5C 978.167,930.833 1226.83,1061.17 1475.5,1191.5C 1460.17,1191.5 1444.83,1191.5 1429.5,1191.5C 1421.01,1190.67 1412.34,1190.17 1403.5,1190C 1155.99,1060.41 908.324,931.078 660.5,802C 668.011,801.829 675.345,801.329 682.5,800.5 Z"/></g>
<g><path style="opacity:0.998" fill="#6c91d0" d="M 729.5,800.5 C 752.833,800.5 776.167,800.5 799.5,800.5C 1048.34,931.088 1297.34,1061.42 1546.5,1191.5C 1522.83,1191.5 1499.17,1191.5 1475.5,1191.5C 1226.83,1061.17 978.167,930.833 729.5,800.5 Z"/></g>
<g><path style="opacity:0.999" fill="#6993cf" d="M 799.5,800.5 C 818.833,800.5 838.167,800.5 857.5,800.5C 1105.67,930.469 1354,1060.3 1602.5,1190C 1598.31,1190.18 1594.31,1190.68 1590.5,1191.5C 1575.83,1191.5 1561.17,1191.5 1546.5,1191.5C 1297.34,1061.42 1048.34,931.088 799.5,800.5 Z"/></g>
<g><path style="opacity:1" fill="#6895ce" d="M 857.5,800.5 C 860.833,800.5 864.167,800.5 867.5,800.5C 1115.28,930.559 1363.28,1060.39 1611.5,1190C 1608.96,1190.19 1606.63,1190.69 1604.5,1191.5C 1599.83,1191.5 1595.17,1191.5 1590.5,1191.5C 1594.31,1190.68 1598.31,1190.18 1602.5,1190C 1354,1060.3 1105.67,930.469 857.5,800.5 Z"/></g>
<g><path style="opacity:0.998" fill="#6597cd" d="M 867.5,800.5 C 899.5,800.5 931.5,800.5 963.5,800.5C 1211.67,930.469 1460,1060.3 1708.5,1190C 1717.01,1190.17 1725.34,1190.67 1733.5,1191.5C 1690.5,1191.5 1647.5,1191.5 1604.5,1191.5C 1606.63,1190.69 1608.96,1190.19 1611.5,1190C 1363.28,1060.39 1115.28,930.559 867.5,800.5 Z"/></g>
<g><path style="opacity:0.999" fill="#629bcc" d="M 963.5,800.5 C 985.167,800.5 1006.83,800.5 1028.5,800.5C 1277.34,931.088 1526.34,1061.42 1775.5,1191.5C 1761.5,1191.5 1747.5,1191.5 1733.5,1191.5C 1725.34,1190.67 1717.01,1190.17 1708.5,1190C 1460,1060.3 1211.67,930.469 963.5,800.5 Z"/></g>
<g><path style="opacity:0.998" fill="#5f9eca" d="M 1028.5,800.5 C 1053.83,800.5 1079.17,800.5 1104.5,800.5C 1353.34,931.088 1602.34,1061.42 1851.5,1191.5C 1826.17,1191.5 1800.83,1191.5 1775.5,1191.5C 1526.34,1061.42 1277.34,931.088 1028.5,800.5 Z"/></g>
<g><path style="opacity:0.999" fill="#5ca1c9" d="M 1104.5,800.5 C 1125.17,800.5 1145.83,800.5 1166.5,800.5C 1414.46,930.814 1662.79,1060.65 1911.5,1190C 1904.32,1190.17 1897.32,1190.67 1890.5,1191.5C 1877.5,1191.5 1864.5,1191.5 1851.5,1191.5C 1602.34,1061.42 1353.34,931.088 1104.5,800.5 Z"/></g>
<g><path style="opacity:0.998" fill="#59a4c8" d="M 1166.5,800.5 C 1192.5,800.5 1218.5,800.5 1244.5,800.5C 1489.95,929.059 1735.61,1057.39 1981.5,1185.5C 1982.3,1185.96 1982.63,1186.62 1982.5,1187.5C 1979.37,1189.15 1976.04,1190.32 1972.5,1191C 1945.17,1191.5 1917.84,1191.67 1890.5,1191.5C 1897.32,1190.67 1904.32,1190.17 1911.5,1190C 1662.79,1060.65 1414.46,930.814 1166.5,800.5 Z"/></g>
<g><path style="opacity:1" fill="#56a7c7" d="M 1244.5,800.5 C 1264.5,800.5 1284.5,800.5 1304.5,800.5C 1536,921.751 1767.67,1042.75 1999.5,1163.5C 1999.5,1164.5 1999.5,1165.5 1999.5,1166.5C 1997.82,1171.52 1995.32,1176.19 1992,1180.5C 1989.25,1183.45 1986.08,1185.79 1982.5,1187.5C 1982.63,1186.62 1982.3,1185.96 1981.5,1185.5C 1735.61,1057.39 1489.95,929.059 1244.5,800.5 Z"/></g>
<g><path style="opacity:0.999" fill="#53aac5" d="M 1304.5,800.5 C 1331.5,800.5 1358.5,800.5 1385.5,800.5C 1573.35,898.677 1761.18,997.01 1949,1095.5C 1949.4,1095.27 1949.57,1094.94 1949.5,1094.5C 1964.47,1108.96 1979.3,1123.63 1994,1138.5C 1996.33,1142.02 1998.16,1145.68 1999.5,1149.5C 1999.5,1154.17 1999.5,1158.83 1999.5,1163.5C 1767.67,1042.75 1536,921.751 1304.5,800.5 Z"/></g>
<g><path style="opacity:0.999" fill="#50adc4" d="M 1385.5,800.5 C 1404.5,800.5 1423.5,800.5 1442.5,800.5C 1590.84,878.673 1739.51,956.34 1888.5,1033.5C 1909.17,1053.5 1929.5,1073.83 1949.5,1094.5C 1949.57,1094.94 1949.4,1095.27 1949,1095.5C 1761.18,997.01 1573.35,898.677 1385.5,800.5 Z"/></g>
<g><path style="opacity:0.997" fill="#4db0c3" d="M 1442.5,800.5 C 1478.17,800.5 1513.83,800.5 1549.5,800.5C 1623.18,839.673 1697.18,878.34 1771.5,916.5C 1810.83,955.167 1849.83,994.167 1888.5,1033.5C 1739.51,956.34 1590.84,878.673 1442.5,800.5 Z"/></g>
<g><path style="opacity:0.995" fill="#49b3c1" d="M 1549.5,800.5 C 1561.83,800.5 1574.17,800.5 1586.5,800.5C 1634.67,826.085 1683,851.418 1731.5,876.5C 1745.17,889.5 1758.5,902.833 1771.5,916.5C 1697.18,878.34 1623.18,839.673 1549.5,800.5 Z"/></g>
<g><path style="opacity:0.974" fill="#48b5c1" d="M 1586.5,800.5 C 1604.17,800.333 1621.84,800.5 1639.5,801C 1650.64,802.819 1660.64,807.153 1669.5,814C 1690.37,834.701 1711.03,855.535 1731.5,876.5C 1683,851.418 1634.67,826.085 1586.5,800.5 Z"/></g>
<g><path style="opacity:0.999" fill="#8d6ede" d="M 18.5,802.5 C 265.615,931.892 512.948,1061.06 760.5,1190C 752.989,1190.17 745.655,1190.67 738.5,1191.5C 718.5,1191.5 698.5,1191.5 678.5,1191.5C 452.421,1072.77 226.087,954.438 -0.5,836.5C -0.5,832.5 -0.5,828.5 -0.5,824.5C 2.93236,814.729 9.26569,807.396 18.5,802.5 Z"/></g>
<g><path style="opacity:0.998" fill="#906bdf" d="M -0.5,836.5 C 226.087,954.438 452.421,1072.77 678.5,1191.5C 660.167,1191.5 641.833,1191.5 623.5,1191.5C 623.158,1190.66 622.492,1190.33 621.5,1190.5C 428.052,1088.94 234.386,987.608 40.5,886.5C 39.8933,886.624 39.56,886.957 39.5,887.5C 28.5349,877.035 17.7016,866.369 7,855.5C 3.9539,851.398 1.4539,847.065 -0.5,842.5C -0.5,840.5 -0.5,838.5 -0.5,836.5 Z"/></g>
<g><path style="opacity:0.999" fill="#9269df" d="M 621.5,1190.5 C 612.161,1190.67 602.827,1190.5 593.5,1190C 419.43,1099.55 245.597,1008.72 72,917.5C 71.6174,918.056 71.1174,918.389 70.5,918.5C 59.8333,908.5 49.5,898.167 39.5,887.5C 39.56,886.957 39.8933,886.624 40.5,886.5C 234.386,987.608 428.052,1088.94 621.5,1190.5 Z"/></g>
<g><path style="opacity:0.997" fill="#9468e0" d="M 621.5,1190.5 C 622.492,1190.33 623.158,1190.66 623.5,1191.5C 602.833,1191.5 582.167,1191.5 561.5,1191.5C 553.343,1190.67 545.01,1190.17 536.5,1190C 401.27,1119.22 265.937,1048.72 130.5,978.5C 110.167,958.833 90.1667,938.833 70.5,918.5C 71.1174,918.389 71.6174,918.056 72,917.5C 245.597,1008.72 419.43,1099.55 593.5,1190C 602.827,1190.5 612.161,1190.67 621.5,1190.5 Z"/></g>
<g><path style="opacity:0.992" fill="#9765e2" d="M 130.5,978.5 C 265.937,1048.72 401.27,1119.22 536.5,1190C 545.01,1190.17 553.343,1190.67 561.5,1191.5C 520.833,1191.5 480.167,1191.5 439.5,1191.5C 446.321,1190.67 453.321,1190.17 460.5,1190C 379.324,1147.25 297.991,1104.75 216.5,1062.5C 215.893,1062.62 215.56,1062.96 215.5,1063.5C 186.833,1035.5 158.5,1007.17 130.5,978.5 Z"/></g>
<g><path style="opacity:0.992" fill="#9a61e3" d="M 439.5,1191.5 C 414.164,1191.67 388.831,1191.5 363.5,1191C 350.062,1189.3 338.062,1184.3 327.5,1176C 289.965,1138.63 252.632,1101.13 215.5,1063.5C 215.56,1062.96 215.893,1062.62 216.5,1062.5C 297.991,1104.75 379.324,1147.25 460.5,1190C 453.321,1190.17 446.321,1190.67 439.5,1191.5 Z"/></g>
<g><path style="opacity:0.998" fill="#ac4feb" d="M 456.5,1392.5 C 450.013,1393.33 443.346,1393.83 436.5,1394C 685.21,1523.35 933.543,1653.19 1181.5,1783.5C 1149.5,1783.5 1117.5,1783.5 1085.5,1783.5C 839.647,1654.07 593.314,1525.41 346.5,1397.5C 351.796,1395.07 357.462,1393.57 363.5,1393C 394.498,1392.5 425.498,1392.33 456.5,1392.5 Z"/></g>
<g><path style="opacity:0.999" fill="#a655e8" d="M 458.5,1392.5 C 483.5,1392.5 508.5,1392.5 533.5,1392.5C 547.327,1393.33 561.327,1393.83 575.5,1394C 823.719,1523.61 1071.72,1653.44 1319.5,1783.5C 1288.5,1783.5 1257.5,1783.5 1226.5,1783.5C 978.228,1653.7 729.895,1523.86 481.5,1394C 473.656,1393.83 465.989,1393.33 458.5,1392.5 Z"/></g>
<g><path style="opacity:0.997" fill="#a05be6" d="M 596.5,1393.5 C 596.5,1393.17 596.5,1392.83 596.5,1392.5C 642.5,1392.5 688.5,1392.5 734.5,1392.5C 727.679,1393.33 720.679,1393.83 713.5,1394C 961.895,1523.86 1210.23,1653.7 1458.5,1783.5C 1428.17,1783.5 1397.83,1783.5 1367.5,1783.5C 1119.89,1654.03 872.228,1524.53 624.5,1395C 615.274,1393.55 605.94,1393.05 596.5,1393.5 Z"/></g>
<g><path style="opacity:1" fill="#9d5ee4" d="M 734.5,1392.5 C 735.5,1392.5 736.5,1392.5 737.5,1392.5C 745.657,1393.33 753.99,1393.83 762.5,1394C 1011.21,1523.35 1259.54,1653.19 1507.5,1783.5C 1491.17,1783.5 1474.83,1783.5 1458.5,1783.5C 1210.23,1653.7 961.895,1523.86 713.5,1394C 720.679,1393.83 727.679,1393.33 734.5,1392.5 Z"/></g>
<g><path style="opacity:0.997" fill="#9a61e3" d="M 737.5,1392.5 C 782.5,1392.5 827.5,1392.5 872.5,1392.5C 865.679,1393.33 858.679,1393.83 851.5,1394C 1099.89,1523.86 1348.23,1653.7 1596.5,1783.5C 1566.83,1783.5 1537.17,1783.5 1507.5,1783.5C 1259.54,1653.19 1011.21,1523.35 762.5,1394C 753.99,1393.83 745.657,1393.33 737.5,1392.5 Z"/></g>
<g><path style="opacity:0.998" fill="#9765e2" d="M 872.5,1392.5 C 897.833,1392.5 923.167,1392.5 948.5,1392.5C 941.345,1393.33 934.011,1393.83 926.5,1394C 1170.72,1521.27 1414.72,1648.77 1658.5,1776.5C 1652.71,1779.93 1646.38,1782.1 1639.5,1783C 1625.17,1783.5 1610.84,1783.67 1596.5,1783.5C 1348.23,1653.7 1099.89,1523.86 851.5,1394C 858.679,1393.83 865.679,1393.33 872.5,1392.5 Z"/></g>
<g><path style="opacity:0.998" fill="#9468e1" d="M 948.5,1392.5 C 969.167,1392.5 989.833,1392.5 1010.5,1392.5C 1010.5,1392.83 1010.5,1393.17 1010.5,1393.5C 1001.83,1393.33 993.16,1393.5 984.5,1394C 1216.72,1515.27 1448.72,1636.77 1680.5,1758.5C 1674.62,1766.38 1667.29,1772.38 1658.5,1776.5C 1414.72,1648.77 1170.72,1521.27 926.5,1394C 934.011,1393.83 941.345,1393.33 948.5,1392.5 Z"/></g>
<g><path style="opacity:0.998" fill="#906bdf" d="M 1010.5,1393.5 C 1010.5,1393.17 1010.5,1392.83 1010.5,1392.5C 1036.83,1392.5 1063.17,1392.5 1089.5,1392.5C 1082.34,1393.33 1075.01,1393.83 1067.5,1394C 1281.72,1505.61 1495.72,1617.44 1709.5,1729.5C 1703.5,1736.17 1697.17,1742.5 1690.5,1748.5C 1464.16,1629.66 1237.49,1511.33 1010.5,1393.5 Z"/></g>
<g><path style="opacity:0.998" fill="#8d6ede" d="M 1089.5,1392.5 C 1109.17,1392.5 1128.83,1392.5 1148.5,1392.5C 1344.84,1495.67 1541.51,1598.34 1738.5,1700.5C 1729.17,1710.5 1719.5,1720.17 1709.5,1729.5C 1495.72,1617.44 1281.72,1505.61 1067.5,1394C 1075.01,1393.83 1082.34,1393.33 1089.5,1392.5 Z"/></g>
<g><path style="opacity:0.996" fill="#8a71dd" d="M 1148.5,1392.5 C 1175.5,1392.5 1202.5,1392.5 1229.5,1392.5C 1222.68,1393.33 1215.68,1393.83 1208.5,1394C 1211,1395.08 1213.33,1396.41 1215.5,1398C 1396.28,1492.72 1577.28,1586.89 1758.5,1680.5C 1752.17,1687.5 1745.5,1694.17 1738.5,1700.5C 1541.51,1598.34 1344.84,1495.67 1148.5,1392.5 Z"/></g>
<g><path style="opacity:0.998" fill="#8774db" d="M 1229.5,1392.5 C 1248.5,1392.5 1267.5,1392.5 1286.5,1392.5C 1451.44,1478.64 1616.44,1564.8 1781.5,1651C 1783.06,1651.76 1784.06,1652.93 1784.5,1654.5C 1776.17,1663.5 1767.5,1672.17 1758.5,1680.5C 1577.28,1586.89 1396.28,1492.72 1215.5,1398C 1213.33,1396.41 1211,1395.08 1208.5,1394C 1215.68,1393.83 1222.68,1393.33 1229.5,1392.5 Z"/></g>
<g><path style="opacity:0.993" fill="#8577da" d="M 1286.5,1392.5 C 1314.5,1392.5 1342.5,1392.5 1370.5,1392.5C 1363.35,1393.49 1356.02,1393.82 1348.5,1393.5C 1339.16,1393.33 1329.83,1393.5 1320.5,1394C 1478.34,1476.76 1636.34,1559.26 1794.5,1641.5C 1795.3,1641.96 1795.63,1642.62 1795.5,1643.5C 1792.17,1647.5 1788.5,1651.17 1784.5,1654.5C 1784.06,1652.93 1783.06,1651.76 1781.5,1651C 1616.44,1564.8 1451.44,1478.64 1286.5,1392.5 Z"/></g>
<g><path style="opacity:0.998" fill="#817ad9" d="M 1370.5,1392.5 C 1388.83,1392.5 1407.17,1392.5 1425.5,1392.5C 1561,1464.3 1697,1535.3 1833.5,1605.5C 1824.83,1614.83 1815.83,1623.83 1806.5,1632.5C 1653.51,1553.34 1500.84,1473.67 1348.5,1393.5C 1356.02,1393.82 1363.35,1393.49 1370.5,1392.5 Z"/></g>
<g><path style="opacity:0.996" fill="#7e7ed7" d="M 1425.5,1392.5 C 1454.17,1392.5 1482.83,1392.5 1511.5,1392.5C 1628.31,1454.07 1745.31,1515.41 1862.5,1576.5C 1853.17,1586.5 1843.5,1596.17 1833.5,1605.5C 1697,1535.3 1561,1464.3 1425.5,1392.5 Z"/></g>
<g><path style="opacity:0.996" fill="#7a81d6" d="M 1511.5,1392.5 C 1528.83,1392.5 1546.17,1392.5 1563.5,1392.5C 1571.66,1393.33 1579.99,1393.83 1588.5,1394C 1688.4,1446.45 1788.4,1498.61 1888.5,1550.5C 1880.17,1559.5 1871.5,1568.17 1862.5,1576.5C 1745.31,1515.41 1628.31,1454.07 1511.5,1392.5 Z"/></g>
<g><path style="opacity:0.993" fill="#7784d5" d="M 1563.5,1392.5 C 1609.5,1392.5 1655.5,1392.5 1701.5,1392.5C 1686.67,1393.33 1671.67,1393.83 1656.5,1394C 1741.66,1438.36 1826.66,1482.86 1911.5,1527.5C 1904.17,1535.5 1896.5,1543.17 1888.5,1550.5C 1788.4,1498.61 1688.4,1446.45 1588.5,1394C 1579.99,1393.83 1571.66,1393.33 1563.5,1392.5 Z"/></g>
<g><path style="opacity:0.99" fill="#728ad2" d="M 1710.5,1392.5 C 1737.83,1392.5 1765.17,1392.5 1792.5,1392.5C 1847.69,1422.26 1903.35,1451.26 1959.5,1479.5C 1951.5,1488.17 1943.17,1496.5 1934.5,1504.5C 1934.59,1503.5 1934.25,1502.67 1933.5,1502C 1864.34,1466.26 1795.34,1430.26 1726.5,1394C 1720.98,1393.83 1715.65,1393.33 1710.5,1392.5 Z"/></g>
<g><path style="opacity:0.991" fill="#6f8dd1" d="M 1792.5,1392.5 C 1808.17,1392.5 1823.83,1392.5 1839.5,1392.5C 1847.66,1393.33 1855.99,1393.83 1864.5,1394C 1903.91,1415.04 1943.57,1435.54 1983.5,1455.5C 1975.83,1463.83 1967.83,1471.83 1959.5,1479.5C 1903.35,1451.26 1847.69,1422.26 1792.5,1392.5 Z"/></g>
<g><path style="opacity:0.98" fill="#6c90d0" d="M 1839.5,1392.5 C 1870.83,1392.5 1902.17,1392.5 1933.5,1392.5C 1955.15,1404.66 1977.15,1416.33 1999.5,1427.5C 1999.5,1429.83 1999.5,1432.17 1999.5,1434.5C 1996.53,1443.16 1991.19,1450.16 1983.5,1455.5C 1943.57,1435.54 1903.91,1415.04 1864.5,1394C 1855.99,1393.83 1847.66,1393.33 1839.5,1392.5 Z"/></g>
<g><path style="opacity:0.964" fill="#6993cf" d="M 1933.5,1392.5 C 1946.17,1392.33 1958.84,1392.5 1971.5,1393C 1986.04,1395.38 1995.37,1403.54 1999.5,1417.5C 1999.5,1420.83 1999.5,1424.17 1999.5,1427.5C 1977.15,1416.33 1955.15,1404.66 1933.5,1392.5 Z"/></g>
<g><path style="opacity:1" fill="#a952e9" d="M 456.5,1392.5 C 457.167,1392.5 457.833,1392.5 458.5,1392.5C 465.989,1393.33 473.656,1393.83 481.5,1394C 729.895,1523.86 978.228,1653.7 1226.5,1783.5C 1211.5,1783.5 1196.5,1783.5 1181.5,1783.5C 933.543,1653.19 685.21,1523.35 436.5,1394C 443.346,1393.83 450.013,1393.33 456.5,1392.5 Z"/></g>
<g><path style="opacity:1" fill="#a457e7" d="M 533.5,1392.5 C 554.5,1392.5 575.5,1392.5 596.5,1392.5C 596.5,1392.83 596.5,1393.17 596.5,1393.5C 594.801,1393.34 593.134,1393.51 591.5,1394C 840.21,1523.35 1088.54,1653.19 1336.5,1783.5C 1330.83,1783.5 1325.17,1783.5 1319.5,1783.5C 1071.72,1653.44 823.719,1523.61 575.5,1394C 561.327,1393.83 547.327,1393.33 533.5,1392.5 Z"/></g>
<g><path style="opacity:1" fill="#a358e7" d="M 596.5,1393.5 C 605.94,1393.05 615.274,1393.55 624.5,1395C 872.228,1524.53 1119.89,1654.03 1367.5,1783.5C 1357.17,1783.5 1346.83,1783.5 1336.5,1783.5C 1088.54,1653.19 840.21,1523.35 591.5,1394C 593.134,1393.51 594.801,1393.34 596.5,1393.5 Z"/></g>
<g><path style="opacity:1" fill="#9269df" d="M 1010.5,1393.5 C 1237.49,1511.33 1464.16,1629.66 1690.5,1748.5C 1687.5,1752.17 1684.17,1755.5 1680.5,1758.5C 1448.72,1636.77 1216.72,1515.27 984.5,1394C 993.16,1393.5 1001.83,1393.33 1010.5,1393.5 Z"/></g>
<g><path style="opacity:0.999" fill="#8478da" d="M 1348.5,1393.5 C 1500.84,1473.67 1653.51,1553.34 1806.5,1632.5C 1803.17,1636.5 1799.5,1640.17 1795.5,1643.5C 1795.63,1642.62 1795.3,1641.96 1794.5,1641.5C 1636.34,1559.26 1478.34,1476.76 1320.5,1394C 1329.83,1393.5 1339.16,1393.33 1348.5,1393.5 Z"/></g>
<g><path style="opacity:0.999" fill="#7487d3" d="M 1701.5,1392.5 C 1704.5,1392.5 1707.5,1392.5 1710.5,1392.5C 1715.65,1393.33 1720.98,1393.83 1726.5,1394C 1795.34,1430.26 1864.34,1466.26 1933.5,1502C 1934.25,1502.67 1934.59,1503.5 1934.5,1504.5C 1927.17,1512.5 1919.5,1520.17 1911.5,1527.5C 1826.66,1482.86 1741.66,1438.36 1656.5,1394C 1671.67,1393.83 1686.67,1393.33 1701.5,1392.5 Z"/></g>
<g><path style="opacity:1" fill="#af4bec" d="M 346.5,1397.5 C 593.314,1525.41 839.647,1654.07 1085.5,1783.5C 1063.83,1783.5 1042.17,1783.5 1020.5,1783.5C 792.895,1664.36 565.228,1545.2 337.5,1426C 331.371,1422.6 325.037,1419.77 318.5,1417.5C 325.879,1408.12 335.212,1401.46 346.5,1397.5 Z"/></g>
<g><path style="opacity:1" fill="#b14aed" d="M 318.5,1417.5 C 325.037,1419.77 331.371,1422.6 337.5,1426C 565.228,1545.2 792.895,1664.36 1020.5,1783.5C 1013.83,1783.5 1007.17,1783.5 1000.5,1783.5C 771.167,1663.5 541.833,1543.5 312.5,1423.5C 314.167,1421.17 316.167,1419.17 318.5,1417.5 Z"/></g>
<g><path style="opacity:1" fill="#b347ee" d="M 312.5,1423.5 C 541.833,1543.5 771.167,1663.5 1000.5,1783.5C 974.167,1783.5 947.833,1783.5 921.5,1783.5C 709.5,1672.5 497.5,1561.5 285.5,1450.5C 294.167,1441.17 303.167,1432.17 312.5,1423.5 Z"/></g>
<g><path style="opacity:1" fill="#b645ef" d="M 285.5,1450.5 C 497.5,1561.5 709.5,1672.5 921.5,1783.5C 908.5,1783.5 895.5,1783.5 882.5,1783.5C 679.167,1676.83 475.833,1570.17 272.5,1463.5C 276.5,1458.83 280.833,1454.5 285.5,1450.5 Z"/></g>
<g><path style="opacity:0.999" fill="#b942f0" d="M 272.5,1463.5 C 475.833,1570.17 679.167,1676.83 882.5,1783.5C 848.5,1783.5 814.5,1783.5 780.5,1783.5C 599.762,1687.8 418.428,1593.13 236.5,1499.5C 248.167,1487.17 260.167,1475.17 272.5,1463.5 Z"/></g>
<g><path style="opacity:1" fill="#bc3ff1" d="M 236.5,1499.5 C 418.428,1593.13 599.762,1687.8 780.5,1783.5C 768.5,1783.5 756.5,1783.5 744.5,1783.5C 571.438,1692.47 398.104,1601.8 224.5,1511.5C 228.167,1507.17 232.167,1503.17 236.5,1499.5 Z"/></g>
<g><path style="opacity:1" fill="#be3cf2" d="M 224.5,1511.5 C 398.104,1601.8 571.438,1692.47 744.5,1783.5C 717.5,1783.5 690.5,1783.5 663.5,1783.5C 508.719,1701.94 353.719,1620.61 198.5,1539.5C 199.313,1538.19 200.313,1537.02 201.5,1536C 201.272,1535.6 200.938,1535.43 200.5,1535.5C 208.167,1527.17 216.167,1519.17 224.5,1511.5 Z"/></g>
<g><path style="opacity:1" fill="#c139f4" d="M 200.5,1535.5 C 200.938,1535.43 201.272,1535.6 201.5,1536C 200.313,1537.02 199.313,1538.19 198.5,1539.5C 353.719,1620.61 508.719,1701.94 663.5,1783.5C 644.5,1783.5 625.5,1783.5 606.5,1783.5C 463.377,1708.77 320.377,1633.77 177.5,1558.5C 184.833,1550.5 192.5,1542.83 200.5,1535.5 Z"/></g>
<g><path style="opacity:1" fill="#c536f5" d="M 177.5,1558.5 C 320.377,1633.77 463.377,1708.77 606.5,1783.5C 570.833,1783.5 535.167,1783.5 499.5,1783.5C 380.386,1720.77 261.052,1658.27 141.5,1596C 143.79,1594.22 145.457,1592.06 146.5,1589.5C 156.5,1578.83 166.833,1568.5 177.5,1558.5 Z"/></g>
<g><path style="opacity:1" fill="#c832f6" d="M 146.5,1589.5 C 145.457,1592.06 143.79,1594.22 141.5,1596C 261.052,1658.27 380.386,1720.77 499.5,1783.5C 481.167,1783.5 462.833,1783.5 444.5,1783.5C 340.913,1728.46 236.913,1673.96 132.5,1620C 128.931,1618.06 125.598,1615.89 122.5,1613.5C 130.167,1605.17 138.167,1597.17 146.5,1589.5 Z"/></g>
<g><path style="opacity:1" fill="#cc2ff8" d="M 122.5,1613.5 C 125.598,1615.89 128.931,1618.06 132.5,1620C 236.913,1673.96 340.913,1728.46 444.5,1783.5C 408.167,1783.5 371.833,1783.5 335.5,1783.5C 252.386,1739.44 169.053,1695.61 85.5,1652C 91.4306,1646.58 96.7639,1640.74 101.5,1634.5C 108.167,1627.17 115.167,1620.17 122.5,1613.5 Z"/></g>
<g><path style="opacity:0.997" fill="#cf2cf9" d="M 101.5,1634.5 C 96.7639,1640.74 91.4306,1646.58 85.5,1652C 169.053,1695.61 252.386,1739.44 335.5,1783.5C 325.833,1783.5 316.167,1783.5 306.5,1783.5C 229.517,1742.34 152.184,1701.67 74.5,1661.5C 83.1667,1652.17 92.1667,1643.17 101.5,1634.5 Z"/></g>
<g><path style="opacity:0.999" fill="#d129fa" d="M 74.5,1661.5 C 152.184,1701.67 229.517,1742.34 306.5,1783.5C 269.167,1783.5 231.833,1783.5 194.5,1783.5C 141.98,1755.07 88.9801,1727.41 35.5,1700.5C 48.1667,1687.17 61.1667,1674.17 74.5,1661.5 Z"/></g>
<g><path style="opacity:0.998" fill="#d723fd" d="M 35.5,1700.5 C 88.9801,1727.41 141.98,1755.07 194.5,1783.5C 137.499,1783.67 80.499,1783.5 23.5,1783C 11.6755,1779.01 3.67554,1771.17 -0.5,1759.5C -0.5,1753.5 -0.5,1747.5 -0.5,1741.5C 1.4539,1736.94 3.9539,1732.6 7,1728.5C 16.3683,1718.96 25.8683,1709.63 35.5,1700.5 Z"/></g>
</svg>
