<?xml version="1.0" encoding="UTF-8"?>
<!DOCTYPE svg PUBLIC "-//W3C//DTD SVG 1.1//EN" "http://www.w3.org/Graphics/SVG/1.1/DTD/svg11.dtd">
<svg xmlns="http://www.w3.org/2000/svg" version="1.1" width="2000px" height="2000px" style="shape-rendering:geometricPrecision; text-rendering:geometricPrecision; image-rendering:optimizeQuality; fill-rule:evenodd; clip-rule:evenodd" xmlns:xlink="http://www.w3.org/1999/xlink">
<g><path style="opacity:0.999" fill="#5546ff" d="M 955.5,-0.5 C 984.833,-0.5 1014.17,-0.5 1043.5,-0.5C 1297.13,14.3576 1515.46,108.858 1698.5,283C 1883.65,468.39 1983.98,692.557 1999.5,955.5C 1999.5,984.833 1999.5,1014.17 1999.5,1043.5C 1984.64,1297.13 1890.14,1515.47 1716,1698.5C 1530.61,1883.65 1306.44,1983.98 1043.5,1999.5C 1014.17,1999.5 984.833,1999.5 955.5,1999.5C 701.867,1984.64 483.534,1890.14 300.5,1716C 115.562,1530.91 15.2291,1307.07 -0.5,1044.5C -0.5,1014.5 -0.5,984.5 -0.5,954.5C 15.2278,691.932 115.561,468.099 300.5,283C 483.534,108.86 701.867,14.3604 955.5,-0.5 Z"/></g>
<g><path style="opacity:1" fill="#988fff" d="M 739.5,475.5 C 685.664,475.168 631.997,475.501 578.5,476.5C 577.957,476.44 577.624,476.107 577.5,475.5C 631.665,474.169 685.665,474.169 739.5,475.5 Z"/></g>
<g><path style="opacity:1" fill="#988fff" d="M 1249.5,475.5 C 1303.33,474.169 1357.33,474.169 1411.5,475.5C 1411.38,476.107 1411.04,476.44 1410.5,476.5C 1357,475.501 1303.34,475.168 1249.5,475.5 Z"/></g>
<g><path style="opacity:1" fill="#fefeff" d="M 739.5,475.5 C 824.474,609.482 909.474,743.482 994.5,877.5C 1079.53,743.482 1164.53,609.482 1249.5,475.5C 1303.34,475.168 1357,475.501 1410.5,476.5C 1339.72,587.22 1269.05,698.054 1198.5,809C 1299.5,809.5 1400.5,809.667 1501.5,809.5C 1501.5,852.167 1501.5,894.833 1501.5,937.5C 1163.5,937.5 825.5,937.5 487.5,937.5C 487.5,894.833 487.5,852.167 487.5,809.5C 588.501,809.667 689.501,809.5 790.5,809C 719.61,698.283 648.943,587.45 578.5,476.5C 631.997,475.501 685.664,475.168 739.5,475.5 Z"/></g>
<g><path style="opacity:1" fill="#fefeff" d="M 487.5,1061.5 C 825.167,1061.5 1162.83,1061.5 1500.5,1061.5C 1500.5,1103.83 1500.5,1146.17 1500.5,1188.5C 1397.83,1188.33 1295.17,1188.5 1192.5,1189C 1264.17,1301.33 1335.83,1413.67 1407.5,1526C 1354.17,1526.67 1300.83,1526.67 1247.5,1526C 1163.04,1394.25 1078.71,1262.42 994.5,1130.5C 910.291,1262.42 825.958,1394.25 741.5,1526C 688.167,1526.67 634.833,1526.67 581.5,1526C 653.167,1413.67 724.833,1301.33 796.5,1189C 693.501,1188.5 590.501,1188.33 487.5,1188.5C 487.5,1146.17 487.5,1103.83 487.5,1061.5 Z"/></g>
<g><path style="opacity:1" fill="#d9d6ff" d="M 487.5,1061.5 C 825.333,1060.5 1163.33,1060.17 1501.5,1060.5C 1501.83,1103.34 1501.5,1146 1500.5,1188.5C 1500.5,1146.17 1500.5,1103.83 1500.5,1061.5C 1162.83,1061.5 825.167,1061.5 487.5,1061.5 Z"/></g>
</svg>
