<?xml version="1.0" encoding="UTF-8"?>
<!DOCTYPE svg PUBLIC "-//W3C//DTD SVG 1.1//EN" "http://www.w3.org/Graphics/SVG/1.1/DTD/svg11.dtd">
<svg xmlns="http://www.w3.org/2000/svg" version="1.1" width="1000px" height="1000px" style="shape-rendering:geometricPrecision; text-rendering:geometricPrecision; image-rendering:optimizeQuality; fill-rule:evenodd; clip-rule:evenodd" xmlns:xlink="http://www.w3.org/1999/xlink">
<g><path style="opacity:0.997" fill="#1d1d1d" d="M 464.5,-0.5 C 487.833,-0.5 511.167,-0.5 534.5,-0.5C 690.472,14.3816 814.972,84.3816 908,209.5C 961.589,286.093 992.089,371.093 999.5,464.5C 999.5,487.833 999.5,511.167 999.5,534.5C 982.223,708.981 899.223,841.814 750.5,933C 683.434,971.412 611.434,993.579 534.5,999.5C 511.167,999.5 487.833,999.5 464.5,999.5C 308.528,984.618 184.028,914.618 91,789.5C 37.4106,712.907 6.91065,627.907 -0.5,534.5C -0.5,511.167 -0.5,487.833 -0.5,464.5C 16.7771,290.019 99.7771,157.186 248.5,66C 315.566,27.5877 387.566,5.42105 464.5,-0.5 Z"/></g>
<g><path style="opacity:1" fill="#2b2b2b" d="M 334.5,247.5 C 468.332,246.5 602.332,246.167 736.5,246.5C 736.784,248.415 736.451,250.081 735.5,251.5C 735.5,250.167 735.5,248.833 735.5,247.5C 601.833,247.5 468.167,247.5 334.5,247.5 Z"/></g>
<g><path style="opacity:1" fill="#fefefe" d="M 334.5,247.5 C 468.167,247.5 601.833,247.5 735.5,247.5C 735.5,248.833 735.5,250.167 735.5,251.5C 731.342,286.664 713.009,311.164 680.5,325C 672.312,328.1 663.979,330.6 655.5,332.5C 593.499,332.333 531.499,332.5 469.5,333C 471.436,333.813 473.436,334.313 475.5,334.5C 511.214,347.715 535.381,372.382 548,408.5C 548.333,497.833 548.667,587.167 549,676.5C 556.343,707.676 575.51,727.009 606.5,734.5C 577.815,750.536 547.482,754.703 515.5,747C 487.094,736.592 467.26,717.425 456,689.5C 455.5,618.501 455.333,547.501 455.5,476.5C 455.5,428.5 455.5,380.5 455.5,332.5C 391.833,332.5 328.167,332.5 264.5,332.5C 264.5,331.167 264.5,329.833 264.5,328.5C 267.941,296.915 283.274,273.082 310.5,257C 318.195,252.983 326.195,249.817 334.5,247.5 Z"/></g>
<g><path style="opacity:1" fill="#373737" d="M 264.5,328.5 C 264.5,329.833 264.5,331.167 264.5,332.5C 328.167,332.5 391.833,332.5 455.5,332.5C 455.5,380.5 455.5,428.5 455.5,476.5C 454.501,429.003 454.168,381.336 454.5,333.5C 390.833,333.5 327.167,333.5 263.5,333.5C 263.216,331.585 263.549,329.919 264.5,328.5 Z"/></g>
<g><path style="opacity:1" fill="#2b2b2b" d="M 655.5,332.5 C 595.5,333.167 535.5,333.833 475.5,334.5C 473.436,334.313 471.436,333.813 469.5,333C 531.499,332.5 593.499,332.333 655.5,332.5 Z"/></g>
</svg>
