<?xml version="1.0" encoding="UTF-8"?>
<!DOCTYPE svg PUBLIC "-//W3C//DTD SVG 1.1//EN" "http://www.w3.org/Graphics/SVG/1.1/DTD/svg11.dtd">
<svg xmlns="http://www.w3.org/2000/svg" version="1.1" width="2000px" height="2000px" style="shape-rendering:geometricPrecision; text-rendering:geometricPrecision; image-rendering:optimizeQuality; fill-rule:evenodd; clip-rule:evenodd" xmlns:xlink="http://www.w3.org/1999/xlink">
<g><path style="opacity:0.999" fill="#0088cc" d="M 955.5,-0.5 C 984.833,-0.5 1014.17,-0.5 1043.5,-0.5C 1297.13,14.3576 1515.46,108.858 1698.5,283C 1883.65,468.39 1983.98,692.557 1999.5,955.5C 1999.5,984.833 1999.5,1014.17 1999.5,1043.5C 1984.64,1297.13 1890.14,1515.47 1716,1698.5C 1530.61,1883.65 1306.44,1983.98 1043.5,1999.5C 1014.17,1999.5 984.833,1999.5 955.5,1999.5C 701.867,1984.64 483.534,1890.14 300.5,1716C 115.562,1530.91 15.2291,1307.07 -0.5,1044.5C -0.5,1014.5 -0.5,984.5 -0.5,954.5C 15.2278,691.932 115.561,468.099 300.5,283C 483.534,108.86 701.867,14.3604 955.5,-0.5 Z"/></g>
<g><path style="opacity:1" fill="#fefefe" d="M 699.5,660.5 C 898.834,660.333 1098.17,660.5 1297.5,661C 1328.97,664.986 1355.8,678.153 1378,700.5C 1382.93,706.583 1386.77,713.25 1389.5,720.5C 1391.59,720.561 1393.09,721.561 1394,723.5C 1415.66,763.987 1415.99,804.654 1395,845.5C 1274.93,1050.57 1155.27,1255.91 1036,1461.5C 1023.95,1475.19 1008.78,1480.35 990.5,1477C 977.886,1473.78 967.719,1466.95 960,1456.5C 845.92,1256 731.586,1055.67 617,855.5C 609.885,843.605 603.552,831.272 598,818.5C 583.245,769.114 594.078,726.281 630.5,690C 633.833,687.667 637.167,685.333 640.5,683C 653.789,677.573 666.789,671.573 679.5,665C 686.277,663.337 692.943,661.837 699.5,660.5 Z"/></g>
<g><path style="opacity:1" fill="#0188cc" d="M 956.5,745.5 C 956.833,919.334 956.5,1093 955.5,1266.5C 863.357,1106.22 771.19,945.888 679,785.5C 676.559,765.206 685.059,752.039 704.5,746C 788.499,745.5 872.499,745.333 956.5,745.5 Z"/></g>
<g><path style="opacity:1" fill="#daeef8" d="M 956.5,745.5 C 957.833,919.334 957.833,1093.33 956.5,1267.5C 955.893,1267.38 955.56,1267.04 955.5,1266.5C 956.5,1093 956.833,919.334 956.5,745.5 Z"/></g>
<g><path style="opacity:1" fill="#d9edf7" d="M 1042.5,749.5 C 1042.17,923.001 1042.5,1096.33 1043.5,1269.5C 1043.44,1270.04 1043.11,1270.38 1042.5,1270.5C 1041.17,1096.67 1041.17,923 1042.5,749.5 Z"/></g>
<g><path style="opacity:1" fill="#0088cc" d="M 1042.5,749.5 C 1125.83,749.333 1209.17,749.5 1292.5,750C 1304.7,752.016 1312.87,758.849 1317,770.5C 1317.85,779.553 1317.51,788.553 1316,797.5C 1314.94,800.618 1313.61,803.618 1312,806.5C 1222.27,960.721 1132.77,1115.05 1043.5,1269.5C 1042.5,1096.33 1042.17,923.001 1042.5,749.5 Z"/></g>
</svg>
