<?xml version="1.0" encoding="UTF-8"?>
<!DOCTYPE svg PUBLIC "-//W3C//DTD SVG 1.1//EN" "http://www.w3.org/Graphics/SVG/1.1/DTD/svg11.dtd">
<svg xmlns="http://www.w3.org/2000/svg" version="1.1" width="2000px" height="2000px" style="shape-rendering:geometricPrecision; text-rendering:geometricPrecision; image-rendering:optimizeQuality; fill-rule:evenodd; clip-rule:evenodd" xmlns:xlink="http://www.w3.org/1999/xlink">
<g><path style="opacity:0.996" fill="#ff0509" d="M 84.5,-0.5 C 89.8333,-0.5 95.1667,-0.5 100.5,-0.5C 253.554,25.566 406.554,52.7327 559.5,81C 891.629,142.021 1223.63,203.688 1555.5,266C 1569.62,271.889 1582.62,279.556 1594.5,289C 1617.17,309.667 1639.83,330.333 1662.5,351C 1724.77,409.94 1786.44,469.606 1847.5,530C 1873.53,555.033 1899.87,579.7 1926.5,604C 1944.92,623.249 1952.08,646.083 1948,672.5C 1939.51,687.979 1929.85,702.646 1919,716.5C 1849.33,802.167 1779.67,887.833 1710,973.5C 1432.38,1311.46 1154.38,1649.12 876,1986.5C 870.935,1991.07 865.769,1995.41 860.5,1999.5C 856.167,1999.5 851.833,1999.5 847.5,1999.5C 841.4,1996.92 836.233,1992.92 832,1987.5C 826.635,1980.11 822.302,1972.11 819,1963.5C 785.098,1871.46 749.431,1780.12 712,1689.5C 564.609,1334.39 416.943,979.385 269,624.5C 204.101,467.806 140.768,310.473 79,152.5C 68.47,124.577 58.1366,96.577 48,68.5C 43.2255,42.1324 51.3921,20.9657 72.5,5C 76.4755,2.85371 80.4755,1.02038 84.5,-0.5 Z M 340.5,165.5 C 697.616,230.686 1054.62,296.519 1411.5,363C 1274.72,477.81 1138.22,592.977 1002,708.5C 781.602,527.258 561.102,346.258 340.5,165.5 Z M 248.5,222.5 C 248.897,221.475 249.563,221.308 250.5,222C 481.706,418.875 713.206,615.375 945,811.5C 912.247,1099.86 878.913,1388.2 845,1676.5C 646.052,1191.81 447.218,707.141 248.5,222.5 Z M 1537.5,410.5 C 1612.96,479.461 1688.3,548.627 1763.5,618C 1560.85,655.107 1358.18,691.774 1155.5,728C 1282.73,621.925 1410.06,516.092 1537.5,410.5 Z M 1739.5,742.5 C 1740.53,742.897 1740.69,743.563 1740,744.5C 1482,1055.17 1224,1365.83 966,1676.5C 997.526,1401.77 1029.86,1127.11 1063,852.5C 1288.6,815.871 1514.1,779.205 1739.5,742.5 Z"/></g>
</svg>
