<?xml version="1.0" encoding="UTF-8"?>
<!DOCTYPE svg PUBLIC "-//W3C//DTD SVG 1.1//EN" "http://www.w3.org/Graphics/SVG/1.1/DTD/svg11.dtd">
<svg xmlns="http://www.w3.org/2000/svg" version="1.1" width="2302px" height="2302px" style="shape-rendering:geometricPrecision; text-rendering:geometricPrecision; image-rendering:optimizeQuality; fill-rule:evenodd; clip-rule:evenodd" xmlns:xlink="http://www.w3.org/1999/xlink">
<g><path style="opacity:0.988" fill="#fe0079" d="M 155.5,4.5 C 158.394,5.88229 160.894,7.88229 163,10.5C 443.108,316.269 722.108,622.936 1000,930.5C 999.797,944.494 999.131,958.494 998,972.5C 995.897,993.023 988.564,1011.36 976,1027.5C 951.738,1056.73 921.238,1076.56 884.5,1087C 857.468,1093.84 830.135,1099.17 802.5,1103C 768.722,1112.45 749.556,1134.62 745,1169.5C 741.695,1197.8 738.695,1226.13 736,1254.5C 731.879,1286.65 723.546,1317.65 711,1347.5C 695.667,1381.5 680.333,1415.5 665,1449.5C 635.625,1521.83 650.459,1583.33 709.5,1634C 738.833,1656 768.167,1678 797.5,1700C 838.769,1736.19 851.936,1781.02 837,1834.5C 833.363,1847.44 827.363,1859.11 819,1869.5C 793.317,1900.08 762.817,1924.58 727.5,1943C 665.384,1975.15 599.717,1995.82 530.5,2005C 526.386,1988.01 519.886,1971.85 511,1956.5C 492.73,1925.9 474.063,1895.57 455,1865.5C 417.02,1796.94 404.02,1723.94 416,1646.5C 422.63,1616.91 433.963,1589.24 450,1563.5C 475.52,1528.31 502.187,1493.98 530,1460.5C 561.337,1421.45 588.337,1379.45 611,1334.5C 622.452,1310.14 631.119,1284.81 637,1258.5C 642.651,1227.95 647.651,1197.28 652,1166.5C 656.639,1135.59 666.639,1106.59 682,1079.5C 695,1062.5 708,1045.5 721,1028.5C 723.602,1022.96 725.102,1017.13 725.5,1011C 724.262,1005.62 722.429,1000.45 720,995.5C 709.177,973.187 697.844,951.187 686,929.5C 613.333,798.833 540.667,668.167 468,537.5C 465.563,534.062 464.73,530.395 465.5,526.5C 470.9,533.621 476.067,540.954 481,548.5C 555.417,664.337 630.084,780.003 705,895.5C 727.392,929.788 750.892,963.288 775.5,996C 802.297,1019.86 832.63,1025.52 866.5,1013C 887.096,1008.46 904.596,998.624 919,983.5C 928.947,968.454 928.28,953.787 917,939.5C 677.513,643.338 436.513,348.338 194,54.5C 182.38,39.2114 170.38,24.2114 158,9.5C 156.906,7.92209 156.072,6.25542 155.5,4.5 Z M 511.5,1664.5 C 543.714,1663.71 561.714,1679.37 565.5,1711.5C 564.28,1732.86 553.947,1747.69 534.5,1756C 518.672,1759 507.505,1753.17 501,1738.5C 500.39,1734.76 500.723,1731.1 502,1727.5C 505,1721.5 508,1715.5 511,1709.5C 513.003,1702.89 511.17,1697.73 505.5,1694C 492.077,1688.78 490.077,1680.78 499.5,1670C 503.451,1667.85 507.451,1666.02 511.5,1664.5 Z"/></g>
<g><path style="opacity:0.991" fill="#fe0079" d="M 929.5,518.5 C 1016.83,516.238 1095.83,540.405 1166.5,591C 1215.31,626.807 1258.64,668.474 1296.5,716C 1320.47,713.101 1344.47,710.101 1368.5,707C 1485.51,694.619 1597.84,711.953 1705.5,759C 1736.06,773.184 1764.89,790.017 1792,809.5C 1803.55,849.184 1806.55,889.518 1801,930.5C 1799.6,939.419 1797.27,948.085 1794,956.5C 1789.06,966.715 1784.39,977.048 1780,987.5C 1778.69,1012.02 1790.19,1025.68 1814.5,1028.5C 1826.79,1027.27 1836.95,1021.94 1845,1012.5C 1861.99,991.514 1873.99,967.847 1881,941.5C 1884.66,927.208 1888.16,912.875 1891.5,898.5C 1891.73,897.068 1892.4,896.568 1893.5,897C 1946.73,953.998 1985.56,1019.83 2010,1094.5C 2015.57,1113.89 2018.73,1133.56 2019.5,1153.5C 2005.97,1131.46 1989.97,1111.3 1971.5,1093C 1944.76,1069.73 1913.76,1055.06 1878.5,1049C 1867.88,1047.05 1857.21,1045.39 1846.5,1044C 1793.88,1039.45 1741.21,1035.45 1688.5,1032C 1621.91,1027.82 1557.91,1012.82 1496.5,987C 1469.71,974.835 1445.04,959.501 1422.5,941C 1388.18,910.019 1356.68,876.519 1328,840.5C 1292.15,793.471 1255.82,746.805 1219,700.5C 1181.09,654.578 1137.59,615.078 1088.5,582C 1034.87,549.79 976.872,530.123 914.5,523C 913.167,522.333 913.167,521.667 914.5,521C 919.661,520.268 924.661,519.434 929.5,518.5 Z"/></g>
<g><path style="opacity:0.955" fill="#fe0079" d="M 1846.5,554.5 C 1847.59,554.62 1848.25,555.287 1848.5,556.5C 1843.26,570.448 1839.43,584.781 1837,599.5C 1832.83,640.982 1836.83,681.649 1849,721.5C 1854.42,733.571 1861.42,744.571 1870,754.5C 1906.44,791.932 1941.77,830.266 1976,869.5C 1982.69,878.025 1989.19,886.692 1995.5,895.5C 1995.33,895.833 1995.17,896.167 1995,896.5C 1959.06,861.211 1920.23,829.711 1878.5,802C 1875.55,799.875 1872.55,799.542 1869.5,801C 1863.89,805.053 1861.06,810.553 1861,817.5C 1860.1,836.158 1859.43,854.825 1859,873.5C 1857.62,910.034 1848.28,944.368 1831,976.5C 1829.71,978.792 1828.04,980.792 1826,982.5C 1825.33,980.5 1825.33,978.5 1826,976.5C 1832.49,962.54 1836.16,947.873 1837,932.5C 1837.67,906.833 1837.67,881.167 1837,855.5C 1837.13,829.276 1831.8,804.276 1821,780.5C 1814.72,769.803 1806.89,760.303 1797.5,752C 1774.18,734.663 1749.51,719.33 1723.5,706C 1700.8,694.984 1678.14,683.984 1655.5,673C 1658.5,672.333 1661.5,672.333 1664.5,673C 1691.53,679.759 1718.2,687.759 1744.5,697C 1761.84,704.5 1779.5,711.167 1797.5,717C 1801.1,718.277 1804.76,718.61 1808.5,718C 1811,713.86 1812.5,709.36 1813,704.5C 1814.59,686.854 1815.92,669.187 1817,651.5C 1819.29,616.789 1829.13,584.455 1846.5,554.5 Z"/></g>
<g><path style="opacity:0.99" fill="#fe0079" d="M 911.5,573.5 C 941.775,578.092 970.442,587.592 997.5,602C 1026.72,618.223 1047.89,641.723 1061,672.5C 1065.06,682.011 1068.73,691.678 1072,701.5C 1083.84,749.204 1095.84,796.871 1108,844.5C 1122.12,875.426 1138.79,904.76 1158,932.5C 1162.23,942.093 1159.39,948.26 1149.5,951C 1128.57,953.615 1108.57,950.282 1089.5,941C 1034.27,913.432 991.765,872.599 962,818.5C 925.331,751.491 907.664,679.825 909,603.5C 909.9,593.5 910.733,583.5 911.5,573.5 Z"/></g>
<g><path style="opacity:0.994" fill="#fe0079" d="M 1439.5,1014.5 C 1450.95,1022.74 1462.29,1031.24 1473.5,1040C 1499.02,1056.92 1526.68,1069.25 1556.5,1077C 1582.25,1083.82 1608.25,1089.48 1634.5,1094C 1693.63,1102.91 1752.63,1112.58 1811.5,1123C 1869.67,1133.95 1924.67,1153.61 1976.5,1182C 2084.29,1245.51 2140.62,1340.18 2145.5,1466C 2145.16,1497.4 2142.33,1528.57 2137,1559.5C 2128.57,1591.47 2116.23,1621.81 2100,1650.5C 2098.22,1653 2096.55,1653 2095,1650.5C 2091.6,1589.53 2066.76,1539.36 2020.5,1500C 1981.6,1469.69 1939.26,1444.69 1893.5,1425C 1833.57,1398.69 1773.24,1373.36 1712.5,1349C 1659.6,1326.72 1609.27,1300.06 1561.5,1269C 1529.16,1247.33 1501.33,1220.83 1478,1189.5C 1449.95,1147.16 1436.78,1100.49 1438.5,1049.5C 1438.72,1037.83 1439.06,1026.16 1439.5,1014.5 Z"/></g>
<g><path style="opacity:0.98" fill="#fe0079" d="M 1046.5,1111.5 C 1101.6,1105.94 1140.1,1128.28 1162,1178.5C 1169.59,1202.32 1163.76,1222.15 1144.5,1238C 1117.86,1256.66 1088.19,1266.99 1055.5,1269C 986.362,1278.19 959.196,1248.69 974,1180.5C 982.92,1154.48 999.087,1134.31 1022.5,1120C 1030.16,1115.84 1038.16,1113 1046.5,1111.5 Z M 1059.5,1125.5 C 1080.7,1122.7 1098.53,1129.03 1113,1144.5C 1120.55,1157.75 1118.39,1169.25 1106.5,1179C 1078.5,1197.29 1052,1195.46 1027,1173.5C 1020.03,1164.47 1019.7,1155.14 1026,1145.5C 1034.66,1134.59 1045.83,1127.92 1059.5,1125.5 Z"/></g>
<g><path style="opacity:0.977" fill="#fe0079" d="M 1571.5,1338.5 C 1571.9,1337.47 1572.56,1337.31 1573.5,1338C 1623.36,1392.96 1641.19,1457.12 1627,1530.5C 1605.27,1605.23 1558.1,1656.73 1485.5,1685C 1455.06,1696.11 1423.72,1703.44 1391.5,1707C 1346.88,1710.9 1302.21,1714.24 1257.5,1717C 1201.64,1720.57 1147.31,1731.57 1094.5,1750C 1092.1,1750.81 1089.76,1750.65 1087.5,1749.5C 1091.37,1745.46 1095.71,1741.96 1100.5,1739C 1147.36,1709.58 1198.03,1689.58 1252.5,1679C 1296,1670.1 1339.67,1662.1 1383.5,1655C 1435.55,1647.56 1482.22,1627.89 1523.5,1596C 1578.15,1547.75 1600.65,1487.25 1591,1414.5C 1587.92,1388.17 1581.42,1362.84 1571.5,1338.5 Z"/></g>
<g><path style="opacity:0.994" fill="#fe0079" d="M 1681.5,1391.5 C 1686.87,1392.18 1691.87,1394.01 1696.5,1397C 1710,1405.58 1723.67,1413.92 1737.5,1422C 1785.16,1447.83 1832.49,1474.16 1879.5,1501C 1922.34,1525.82 1961.17,1555.98 1996,1591.5C 2046.98,1649.05 2072.81,1716.55 2073.5,1794C 2075.06,1890.97 2044.23,1975.8 1981,2048.5C 1949,2082.91 1911.5,2109.58 1868.5,2128.5C 1867.4,2125.81 1867.56,2123.14 1869,2120.5C 1881.14,2096.89 1890.47,2072.23 1897,2046.5C 1905.02,2007.44 1903.35,1968.78 1892,1930.5C 1881.52,1897.88 1867.52,1866.88 1850,1837.5C 1836.73,1815.23 1823.06,1793.23 1809,1771.5C 1780.61,1730.11 1752.61,1688.44 1725,1646.5C 1701.45,1610.06 1684.45,1570.73 1674,1528.5C 1665.04,1487.74 1665.37,1447.08 1675,1406.5C 1676.63,1401.24 1678.8,1396.24 1681.5,1391.5 Z"/></g>
<g><path style="opacity:0.988" fill="#fe0079" d="M 1144.5,1810.5 C 1181.79,1808.91 1218.79,1811.41 1255.5,1818C 1312.81,1830.89 1361.64,1858.39 1402,1900.5C 1423.75,1927.98 1439.75,1958.65 1450,1992.5C 1454.63,2009.01 1458.63,2025.68 1462,2042.5C 1468,2078.5 1474,2114.5 1480,2150.5C 1502.19,2244.58 1560.69,2280.41 1655.5,2258C 1675.41,2252.86 1695.08,2247.03 1714.5,2240.5C 1713.91,2243.61 1712.24,2246.11 1709.5,2248C 1689.26,2262.62 1667.6,2274.96 1644.5,2285C 1562.56,2311.79 1495.72,2290.96 1444,2222.5C 1433.41,2207.66 1424.07,2191.99 1416,2175.5C 1399.21,2137.93 1381.88,2100.59 1364,2063.5C 1345.24,2025.07 1317.74,1994.57 1281.5,1972C 1237.9,1945.76 1192.57,1942.1 1145.5,1961C 1104.62,1984.26 1088.79,2019.1 1098,2065.5C 1107.16,2093.33 1125.33,2112.83 1152.5,2124C 1171.66,2133.69 1191.66,2136.02 1212.5,2131C 1245.28,2119.21 1262.28,2095.88 1263.5,2061C 1263.63,2034.13 1251.3,2015.46 1226.5,2005C 1204.69,1995.23 1183.69,1996.56 1163.5,2009C 1146.77,2024.52 1143.61,2042.36 1154,2062.5C 1160.87,2069.2 1168.71,2074.54 1177.5,2078.5C 1158.12,2077.64 1145.95,2067.64 1141,2048.5C 1138.3,2018.74 1150.8,1998.24 1178.5,1987C 1210.02,1978.44 1238.68,1984.1 1264.5,2004C 1284.53,2021.91 1293.53,2044.41 1291.5,2071.5C 1290.17,2121.31 1266.17,2154.81 1219.5,2172C 1166.38,2183.96 1119.72,2171.63 1079.5,2135C 1052.83,2107.66 1025.5,2081 997.5,2055C 962.562,2023.87 921.895,2003.87 875.5,1995C 847.86,1989.67 820.193,1984.67 792.5,1980C 828.81,1944.68 868.81,1914.34 912.5,1889C 973.171,1853.11 1038.17,1828.44 1107.5,1815C 1119.93,1813.09 1132.27,1811.59 1144.5,1810.5 Z"/></g>
</svg>
