<?xml version="1.0" encoding="UTF-8"?>
<!DOCTYPE svg PUBLIC "-//W3C//DTD SVG 1.1//EN" "http://www.w3.org/Graphics/SVG/1.1/DTD/svg11.dtd">
<svg xmlns="http://www.w3.org/2000/svg" version="1.1" width="2000px" height="2000px" style="shape-rendering:geometricPrecision; text-rendering:geometricPrecision; image-rendering:optimizeQuality; fill-rule:evenodd; clip-rule:evenodd" xmlns:xlink="http://www.w3.org/1999/xlink">
<g><path style="opacity:0.994" fill="#272037" d="M 955.5,-0.5 C 984.833,-0.5 1014.17,-0.5 1043.5,-0.5C 1297.13,14.3576 1515.46,108.858 1698.5,283C 1883.65,468.39 1983.98,692.557 1999.5,955.5C 1999.5,984.833 1999.5,1014.17 1999.5,1043.5C 1984.64,1297.13 1890.14,1515.47 1716,1698.5C 1530.61,1883.65 1306.44,1983.98 1043.5,1999.5C 1014.17,1999.5 984.833,1999.5 955.5,1999.5C 701.868,1984.64 483.535,1890.14 300.5,1716C 138.767,1555.04 41.2674,1360.87 8,1133.5C 4.10847,1103.78 1.27513,1074.11 -0.5,1044.5C -0.5,1014.5 -0.5,984.5 -0.5,954.5C 15.2278,691.932 115.561,468.099 300.5,283C 483.534,108.86 701.867,14.3604 955.5,-0.5 Z M 995.5,77.5 C 1243.99,80.4876 1458.32,166.321 1638.5,335C 1797.35,491.223 1889.85,680.723 1916,903.5C 1938.51,1158.6 1870.18,1385.6 1711,1584.5C 1566.07,1756.77 1382.24,1863.94 1159.5,1906C 911.358,1945.85 683.358,1895.85 475.5,1756C 283.767,1619.89 159.601,1437.06 103,1207.5C 51.8845,974.307 83.8845,753.307 199,544.5C 321.726,334.49 499.226,192.324 731.5,118C 817.729,92.0155 905.729,78.5155 995.5,77.5 Z M 946.5,762.5 C 972.502,762.333 998.502,762.5 1024.5,763C 1054.91,763.883 1084.25,769.883 1112.5,781C 1156.19,802.23 1172.69,836.73 1162,884.5C 1152.19,910.308 1134.36,928.141 1108.5,938C 1085.63,946.775 1061.96,952.109 1037.5,954C 1005.19,956.538 972.862,957.038 940.5,955.5C 940.5,891.5 940.5,827.5 940.5,763.5C 942.735,763.795 944.735,763.461 946.5,762.5 Z M 986.5,1052.5 C 1024.05,1051.91 1061.38,1054.41 1098.5,1060C 1123,1063.83 1146,1071.83 1167.5,1084C 1202.19,1107.04 1215.69,1139.21 1208,1180.5C 1200.92,1205.24 1186.09,1223.74 1163.5,1236C 1141.11,1247.52 1117.44,1255.18 1092.5,1259C 1041.72,1266.13 990.718,1268.29 939.5,1265.5C 939.5,1194.83 939.5,1124.17 939.5,1053.5C 955.342,1053.83 971.009,1053.5 986.5,1052.5 Z"/></g>
<g><path style="opacity:0.992" fill="#595463" d="M 997.5,141.5 C 1221.2,144.303 1415.53,220.136 1580.5,369C 1561.99,387.681 1543.32,406.181 1524.5,424.5C 1375.74,291.489 1200.91,223.489 1000,220.5C 799.092,223.489 624.259,291.489 475.5,424.5C 456.043,406.544 437.043,388.044 418.5,369C 566.194,234.925 740.194,159.925 940.5,144C 959.658,143.116 978.658,142.282 997.5,141.5 Z"/></g>
<g><path style="opacity:0.993" fill="#595463" d="M 1629.5,417.5 C 1633.72,421.22 1637.89,425.22 1642,429.5C 1801.13,614.561 1871.79,829.561 1854,1074.5C 1835.05,1267.99 1760.55,1435.99 1630.5,1578.5C 1611.68,1560.18 1593.01,1541.68 1574.5,1523C 1692.63,1392.17 1759.79,1238.34 1776,1061.5C 1789.48,864.663 1737.81,687.329 1621,529.5C 1605.88,510.707 1590.38,492.207 1574.5,474C 1593.42,455.582 1611.75,436.748 1629.5,417.5 Z"/></g>
<g><path style="opacity:0.993" fill="#595463" d="M 368.5,419.5 C 387.479,437.812 406.146,456.479 424.5,475.5C 291.303,624.031 223.636,798.698 221.5,999.5C 223.635,1200.3 291.302,1374.97 424.5,1523.5C 406.182,1542.98 387.682,1562.32 369,1581.5C 220.582,1417.17 144.749,1223.5 141.5,1000.5C 144.853,777.641 220.52,583.975 368.5,419.5 Z"/></g>
<g><path style="opacity:0.996" fill="#f09242" d="M 841.5,493.5 C 873.5,493.5 905.5,493.5 937.5,493.5C 937.5,545.167 937.5,596.833 937.5,648.5C 963.167,648.5 988.833,648.5 1014.5,648.5C 1014.5,596.833 1014.5,545.167 1014.5,493.5C 1046.83,493.5 1079.17,493.5 1111.5,493.5C 1111.5,546.167 1111.5,598.833 1111.5,651.5C 1157.73,654.378 1202.39,664.212 1245.5,681C 1271.67,692.192 1294.17,708.359 1313,729.5C 1333.37,755.931 1344.71,785.931 1347,819.5C 1350.96,855.48 1344.62,889.48 1328,921.5C 1312.58,946.588 1291.75,965.754 1265.5,979C 1366.05,1003.2 1411.88,1067.03 1403,1170.5C 1399.12,1261.87 1354.62,1323.37 1269.5,1355C 1217.79,1371.46 1164.79,1380.63 1110.5,1382.5C 1110.5,1435.83 1110.5,1489.17 1110.5,1542.5C 1078.17,1542.5 1045.83,1542.5 1013.5,1542.5C 1013.5,1489.5 1013.5,1436.5 1013.5,1383.5C 987.833,1383.5 962.167,1383.5 936.5,1383.5C 936.5,1436.5 936.5,1489.5 936.5,1542.5C 904.167,1542.5 871.833,1542.5 839.5,1542.5C 839.5,1488.83 839.5,1435.17 839.5,1381.5C 774.833,1381.5 710.167,1381.5 645.5,1381.5C 650.912,1343.12 656.745,1304.78 663,1266.5C 690.129,1265.95 717.296,1265.12 744.5,1264C 759.398,1259.71 767.898,1249.87 770,1234.5C 770.667,1088.83 770.667,943.167 770,797.5C 765.167,775.333 751.667,761.833 729.5,757C 719.493,756.63 709.493,756.13 699.5,755.5C 681.179,756.403 662.846,756.736 644.5,756.5C 644.5,721.833 644.5,687.167 644.5,652.5C 710.167,652.5 775.833,652.5 841.5,652.5C 841.5,599.5 841.5,546.5 841.5,493.5 Z M 946.5,762.5 C 944.735,763.461 942.735,763.795 940.5,763.5C 940.5,827.5 940.5,891.5 940.5,955.5C 972.862,957.038 1005.19,956.538 1037.5,954C 1061.96,952.109 1085.63,946.775 1108.5,938C 1134.36,928.141 1152.19,910.308 1162,884.5C 1172.69,836.73 1156.19,802.23 1112.5,781C 1084.25,769.883 1054.91,763.883 1024.5,763C 998.502,762.5 972.502,762.333 946.5,762.5 Z M 986.5,1052.5 C 971.009,1053.5 955.342,1053.83 939.5,1053.5C 939.5,1124.17 939.5,1194.83 939.5,1265.5C 990.718,1268.29 1041.72,1266.13 1092.5,1259C 1117.44,1255.18 1141.11,1247.52 1163.5,1236C 1186.09,1223.74 1200.92,1205.24 1208,1180.5C 1215.69,1139.21 1202.19,1107.04 1167.5,1084C 1146,1071.83 1123,1063.83 1098.5,1060C 1061.38,1054.41 1024.05,1051.91 986.5,1052.5 Z"/></g>
<g><path style="opacity:0.992" fill="#595463" d="M 473.5,1574.5 C 474.552,1574.35 475.552,1574.52 476.5,1575C 614.583,1698.97 776.916,1766.3 963.5,1777C 1177.8,1783.25 1364.63,1715.75 1524,1574.5C 1543,1592.67 1561.83,1611 1580.5,1629.5C 1455.84,1743.82 1309.51,1815.66 1141.5,1845C 927.744,1878.12 728.744,1838.45 544.5,1726C 500.387,1697.68 458.887,1665.85 420,1630.5C 419.333,1629.83 419.333,1629.17 420,1628.5C 438.035,1610.63 455.868,1592.63 473.5,1574.5 Z"/></g>
</svg>
