<?xml version="1.0" encoding="UTF-8"?>
<!DOCTYPE svg PUBLIC "-//W3C//DTD SVG 1.1//EN" "http://www.w3.org/Graphics/SVG/1.1/DTD/svg11.dtd">
<svg xmlns="http://www.w3.org/2000/svg" version="1.1" width="2000px" height="2000px" style="shape-rendering:geometricPrecision; text-rendering:geometricPrecision; image-rendering:optimizeQuality; fill-rule:evenodd; clip-rule:evenodd" xmlns:xlink="http://www.w3.org/1999/xlink">
<g><path style="opacity:0.992" fill="#000000" d="M 1999.5,230.5 C 1999.5,288.5 1999.5,346.5 1999.5,404.5C 1332.81,743.846 666.14,1083.18 -0.5,1422.5C -0.5,1364.5 -0.5,1306.5 -0.5,1248.5C 23.7802,1236.36 48.1136,1224.19 72.5,1212C 120.567,1185.22 148.067,1144.39 155,1089.5C 154.625,1059.83 153.792,1030.17 152.5,1000.5C 155.64,776.446 232.474,582.446 383,418.5C 535.139,261.03 720.973,173.196 940.5,155C 1123.82,143.581 1293.49,185.914 1449.5,282C 1465.6,292.281 1481.27,303.114 1496.5,314.5C 1487.36,319.905 1478.03,325.071 1468.5,330C 1425.17,352.247 1381.67,374.08 1338,395.5C 1168.57,304.552 991.074,284.719 805.5,336C 626.206,391.663 489.706,500.496 396,662.5C 322.801,795.661 295.635,937.661 314.5,1088.5C 876.064,802.218 1437.73,516.218 1999.5,230.5 Z"/></g>
<g><path style="opacity:0.992" fill="#000000" d="M 1999.5,576.5 C 1999.5,634.167 1999.5,691.833 1999.5,749.5C 1974.35,762.576 1949.02,775.409 1923.5,788C 1877.4,814.99 1850.9,855.157 1844,908.5C 1844.3,938.171 1845.14,967.837 1846.5,997.5C 1842.4,1245.12 1751.07,1453.62 1572.5,1623C 1390.24,1785.21 1176.57,1858.54 931.5,1843C 773.161,1829.24 629.828,1776.24 501.5,1684C 554.5,1656.83 607.5,1629.67 660.5,1602.5C 815.512,1687.38 979.512,1711.22 1152.5,1674C 1335.54,1629.47 1478.71,1528.97 1582,1372.5C 1671.07,1230.52 1705.41,1076.19 1685,909.5C 1123.22,1195.97 561.385,1482.31 -0.5,1768.5C -0.5,1710.17 -0.5,1651.83 -0.5,1593.5C 666.167,1254.5 1332.83,915.5 1999.5,576.5 Z"/></g>
</svg>
