<?xml version="1.0" encoding="UTF-8"?>
<!DOCTYPE svg PUBLIC "-//W3C//DTD SVG 1.1//EN" "http://www.w3.org/Graphics/SVG/1.1/DTD/svg11.dtd">
<svg xmlns="http://www.w3.org/2000/svg" version="1.1" width="2000px" height="2000px" style="shape-rendering:geometricPrecision; text-rendering:geometricPrecision; image-rendering:optimizeQuality; fill-rule:evenodd; clip-rule:evenodd" xmlns:xlink="http://www.w3.org/1999/xlink">
<g><path style="opacity:1" fill="#f26822" d="M 954.5,-0.5 C 984.5,-0.5 1014.5,-0.5 1044.5,-0.5C 1060.7,0.682479 1077.03,2.01581 1093.5,3.5C 1098.58,5.07839 1103.92,5.74506 1109.5,5.5C 1112.71,5.19 1115.71,5.52333 1118.5,6.5C 1123.62,7.80629 1128.95,8.47295 1134.5,8.5C 1160.72,11.5432 1186.72,15.8766 1212.5,21.5C 1213.99,23.2798 1215.99,23.9465 1218.5,23.5C 1219.5,23.5 1220.5,23.5 1221.5,23.5C 1222.99,25.2798 1224.99,25.9465 1227.5,25.5C 1257.78,32.0419 1287.44,40.3752 1316.5,50.5C 1317.78,51.9313 1319.45,52.5979 1321.5,52.5C 1341.69,58.6725 1361.36,66.0058 1380.5,74.5C 1381.78,75.9313 1383.45,76.5979 1385.5,76.5C 1537.11,140.223 1665.61,235.223 1771,361.5C 1911.49,533.712 1987.66,731.379 1999.5,954.5C 1999.5,976.833 1999.5,999.167 1999.5,1021.5C 1998.21,1034.98 1997.54,1048.65 1997.5,1062.5C 1997.5,1063.5 1997.5,1064.5 1997.5,1065.5C 1995.85,1076.63 1994.85,1087.96 1994.5,1099.5C 1994.5,1100.83 1994.5,1102.17 1994.5,1103.5C 1992.56,1110.91 1991.56,1118.57 1991.5,1126.5C 1990.11,1131.27 1989.44,1136.27 1989.5,1141.5C 1981.83,1200.18 1968.5,1257.51 1949.5,1313.5C 1849.57,1314.5 1749.57,1314.83 1649.5,1314.5C 1649.67,1034.5 1649.5,754.5 1649,474.5C 1648.28,475.044 1647.78,475.711 1647.5,476.5C 1431.52,692.146 1215.52,907.812 999.5,1123.5C 783.479,907.812 567.479,692.146 351.5,476.5C 351.217,475.711 350.717,475.044 350,474.5C 349.5,754.5 349.333,1034.5 349.5,1314.5C 249.43,1314.83 149.43,1314.5 49.5,1313.5C 30.503,1257.51 17.1697,1200.18 9.5,1141.5C 9.55565,1136.27 8.88899,1131.27 7.5,1126.5C 7.43673,1118.57 6.43673,1110.91 4.5,1103.5C 4.5,1102.5 4.5,1101.5 4.5,1100.5C 4.65001,1093.28 3.98334,1086.28 2.5,1079.5C 1.59984,1074.23 1.26651,1068.89 1.5,1063.5C 1.89193,1053.94 1.22527,1044.61 -0.5,1035.5C -0.5,1008.5 -0.5,981.5 -0.5,954.5C 10.0333,749.194 76.3666,564.527 198.5,400.5C 200.587,399.415 201.92,397.749 202.5,395.5C 210.411,383.92 219.078,372.92 228.5,362.5C 230.587,361.415 231.92,359.749 232.5,357.5C 234.117,354.216 236.45,351.549 239.5,349.5C 241.587,348.415 242.92,346.749 243.5,344.5C 244.167,343.167 245.167,342.167 246.5,341.5C 248.914,340.089 250.581,338.089 251.5,335.5C 255.127,330.206 259.46,325.539 264.5,321.5C 267.903,319.1 270.57,316.1 272.5,312.5C 276.167,308.167 280.167,304.167 284.5,300.5C 290.167,295.5 295.5,290.167 300.5,284.5C 301.833,282.5 303.5,280.833 305.5,279.5C 311.442,275.227 316.776,270.227 321.5,264.5C 321.5,263.833 321.833,263.5 322.5,263.5C 326.436,261.234 329.769,258.234 332.5,254.5C 336.1,252.57 339.1,249.903 341.5,246.5C 344.764,244.906 347.431,242.573 349.5,239.5C 352.089,238.581 354.089,236.914 355.5,234.5C 358.427,233.243 360.761,231.243 362.5,228.5C 364.749,227.92 366.415,226.587 367.5,224.5C 371.917,219.747 376.917,215.747 382.5,212.5C 384.749,211.92 386.415,210.587 387.5,208.5C 389.8,206.016 392.467,204.016 395.5,202.5C 397.749,201.92 399.415,200.587 400.5,198.5C 403.627,195.102 407.293,192.435 411.5,190.5C 413.404,190.262 414.738,189.262 415.5,187.5C 416.436,186.026 417.77,185.026 419.5,184.5C 421.027,184.573 422.027,183.906 422.5,182.5C 433.281,174.058 444.615,166.391 456.5,159.5C 458.027,159.573 459.027,158.906 459.5,157.5C 461.027,157.573 462.027,156.906 462.5,155.5C 463.899,154.11 465.566,153.11 467.5,152.5C 469.027,152.573 470.027,151.906 470.5,150.5C 471.899,149.11 473.566,148.11 475.5,147.5C 477.027,147.573 478.027,146.906 478.5,145.5C 482.164,142.665 486.164,140.332 490.5,138.5C 492.027,138.573 493.027,137.906 493.5,136.5C 496.24,134.44 499.24,132.774 502.5,131.5C 504.027,131.573 505.027,130.906 505.5,129.5C 507.181,127.992 509.181,126.992 511.5,126.5C 513.027,126.573 514.027,125.906 514.5,124.5C 560.834,98.27 609.168,76.27 659.5,58.5C 662.716,58.6545 665.383,57.6545 667.5,55.5C 677.695,51.7686 688.028,48.4352 698.5,45.5C 702.162,45.2766 705.495,44.2766 708.5,42.5C 709.209,41.596 710.209,41.2627 711.5,41.5C 714.152,41.5905 716.485,40.9238 718.5,39.5C 795.565,16.6558 874.232,3.3225 954.5,-0.5 Z"/></g>
<g><path style="opacity:0.875" fill="#fbb08b" d="M 1093.5,3.5 C 1099.03,3.66848 1104.37,4.33514 1109.5,5.5C 1103.92,5.74506 1098.58,5.07839 1093.5,3.5 Z"/></g>
<g><path style="opacity:0.769" fill="#fbb794" d="M 1118.5,6.5 C 1124.07,6.37603 1129.4,7.04269 1134.5,8.5C 1128.95,8.47295 1123.62,7.80629 1118.5,6.5 Z"/></g>
<g><path style="opacity:0.914" fill="#fdb796" d="M 1212.5,21.5 C 1214.7,21.8751 1216.7,22.5418 1218.5,23.5C 1215.99,23.9465 1213.99,23.2798 1212.5,21.5 Z"/></g>
<g><path style="opacity:0.875" fill="#fdbd9d" d="M 1221.5,23.5 C 1223.7,23.8751 1225.7,24.5418 1227.5,25.5C 1224.99,25.9465 1222.99,25.2798 1221.5,23.5 Z"/></g>
<g><path style="opacity:0.996" fill="#f89868" d="M 718.5,39.5 C 716.485,40.9238 714.152,41.5905 711.5,41.5C 713.515,40.0762 715.848,39.4095 718.5,39.5 Z"/></g>
<g><path style="opacity:0.988" fill="#f99a6c" d="M 708.5,42.5 C 705.495,44.2766 702.162,45.2766 698.5,45.5C 701.505,43.7234 704.838,42.7234 708.5,42.5 Z"/></g>
<g><path style="opacity:0.741" fill="#fbb693" d="M 1316.5,50.5 C 1318.55,50.4021 1320.22,51.0687 1321.5,52.5C 1319.45,52.5979 1317.78,51.9313 1316.5,50.5 Z"/></g>
<g><path style="opacity:0.992" fill="#fa9e70" d="M 667.5,55.5 C 665.383,57.6545 662.716,58.6545 659.5,58.5C 661.936,57.129 664.603,56.129 667.5,55.5 Z"/></g>
<g><path style="opacity:0.624" fill="#fcb896" d="M 1380.5,74.5 C 1382.55,74.4021 1384.22,75.0687 1385.5,76.5C 1383.45,76.5979 1381.78,75.9313 1380.5,74.5 Z"/></g>
<g><path style="opacity:0.937" fill="#fab08b" d="M 514.5,124.5 C 514.027,125.906 513.027,126.573 511.5,126.5C 511.973,125.094 512.973,124.427 514.5,124.5 Z"/></g>
<g><path style="opacity:0.925" fill="#fab08b" d="M 505.5,129.5 C 505.027,130.906 504.027,131.573 502.5,131.5C 502.973,130.094 503.973,129.427 505.5,129.5 Z"/></g>
<g><path style="opacity:0.914" fill="#fbb390" d="M 493.5,136.5 C 493.027,137.906 492.027,138.573 490.5,138.5C 490.973,137.094 491.973,136.427 493.5,136.5 Z"/></g>
<g><path style="opacity:0.918" fill="#fab28e" d="M 478.5,145.5 C 478.027,146.906 477.027,147.573 475.5,147.5C 475.973,146.094 476.973,145.427 478.5,145.5 Z"/></g>
<g><path style="opacity:0.918" fill="#fab18d" d="M 470.5,150.5 C 470.027,151.906 469.027,152.573 467.5,152.5C 467.973,151.094 468.973,150.427 470.5,150.5 Z"/></g>
<g><path style="opacity:0.929" fill="#faaf89" d="M 462.5,155.5 C 462.027,156.906 461.027,157.573 459.5,157.5C 459.973,156.094 460.973,155.427 462.5,155.5 Z"/></g>
<g><path style="opacity:0.937" fill="#fbaf89" d="M 459.5,157.5 C 459.027,158.906 458.027,159.573 456.5,159.5C 456.973,158.094 457.973,157.427 459.5,157.5 Z"/></g>
<g><path style="opacity:0.933" fill="#faaf89" d="M 422.5,182.5 C 422.027,183.906 421.027,184.573 419.5,184.5C 419.973,183.094 420.973,182.427 422.5,182.5 Z"/></g>
<g><path style="opacity:0.875" fill="#fbae89" d="M 415.5,187.5 C 414.738,189.262 413.404,190.262 411.5,190.5C 412.262,188.738 413.596,187.738 415.5,187.5 Z"/></g>
<g><path style="opacity:0.996" fill="#fa9f71" d="M 400.5,198.5 C 399.415,200.587 397.749,201.92 395.5,202.5C 396.585,200.413 398.251,199.08 400.5,198.5 Z"/></g>
<g><path style="opacity:1" fill="#f99a6c" d="M 387.5,208.5 C 386.415,210.587 384.749,211.92 382.5,212.5C 383.585,210.413 385.251,209.08 387.5,208.5 Z"/></g>
<g><path style="opacity:0.996" fill="#f99a6b" d="M 367.5,224.5 C 366.415,226.587 364.749,227.92 362.5,228.5C 363.585,226.413 365.251,225.08 367.5,224.5 Z"/></g>
<g><path style="opacity:0.969" fill="#fa9f73" d="M 362.5,228.5 C 360.761,231.243 358.427,233.243 355.5,234.5C 357.239,231.757 359.573,229.757 362.5,228.5 Z"/></g>
<g><path style="opacity:0.984" fill="#f99d6f" d="M 355.5,234.5 C 354.089,236.914 352.089,238.581 349.5,239.5C 350.911,237.086 352.911,235.419 355.5,234.5 Z"/></g>
<g><path style="opacity:0.976" fill="#f99c6f" d="M 349.5,239.5 C 347.431,242.573 344.764,244.906 341.5,246.5C 343.569,243.427 346.236,241.094 349.5,239.5 Z"/></g>
<g><path style="opacity:1" fill="#f89260" d="M 341.5,246.5 C 339.1,249.903 336.1,252.57 332.5,254.5C 334.9,251.097 337.9,248.43 341.5,246.5 Z"/></g>
<g><path style="opacity:1" fill="#f8925f" d="M 332.5,254.5 C 329.769,258.234 326.436,261.234 322.5,263.5C 325.231,259.766 328.564,256.766 332.5,254.5 Z"/></g>
<g><path style="opacity:0.984" fill="#f9996a" d="M 321.5,264.5 C 316.776,270.227 311.442,275.227 305.5,279.5C 310.224,273.773 315.558,268.773 321.5,264.5 Z"/></g>
<g><path style="opacity:0.867" fill="#fcb292" d="M 300.5,284.5 C 295.5,290.167 290.167,295.5 284.5,300.5C 288.833,294.167 294.167,288.833 300.5,284.5 Z"/></g>
<g><path style="opacity:0.957" fill="#f9a379" d="M 272.5,312.5 C 270.57,316.1 267.903,319.1 264.5,321.5C 266.43,317.9 269.097,314.9 272.5,312.5 Z"/></g>
<g><path style="opacity:0.788" fill="#f89f76" d="M 251.5,335.5 C 250.581,338.089 248.914,340.089 246.5,341.5C 247.419,338.911 249.086,336.911 251.5,335.5 Z"/></g>
<g><path style="opacity:0.855" fill="#fbad86" d="M 243.5,344.5 C 242.92,346.749 241.587,348.415 239.5,349.5C 240.08,347.251 241.413,345.585 243.5,344.5 Z"/></g>
<g><path style="opacity:0.851" fill="#fbae87" d="M 232.5,357.5 C 231.92,359.749 230.587,361.415 228.5,362.5C 229.08,360.251 230.413,358.585 232.5,357.5 Z"/></g>
<g><path style="opacity:1" fill="#f99969" d="M 202.5,395.5 C 201.92,397.749 200.587,399.415 198.5,400.5C 199.08,398.251 200.413,396.585 202.5,395.5 Z"/></g>
<g><path style="opacity:1" fill="#fdf2ed" d="M 351.5,476.5 C 350.833,756.167 350.167,1035.83 349.5,1315.5C 349.5,1315.17 349.5,1314.83 349.5,1314.5C 349.333,1034.5 349.5,754.5 350,474.5C 350.717,475.044 351.217,475.711 351.5,476.5 Z"/></g>
<g><path style="opacity:1" fill="#fdede5" d="M 1649.5,1314.5 C 1649.5,1314.83 1649.5,1315.17 1649.5,1315.5C 1648.83,1035.83 1648.17,756.167 1647.5,476.5C 1647.78,475.711 1648.28,475.044 1649,474.5C 1649.5,754.5 1649.67,1034.5 1649.5,1314.5 Z"/></g>
<g><path style="opacity:1" fill="#fefefe" d="M 351.5,476.5 C 567.479,692.146 783.479,907.812 999.5,1123.5C 1215.52,907.812 1431.52,692.146 1647.5,476.5C 1648.17,756.167 1648.83,1035.83 1649.5,1315.5C 1749.17,1315.5 1848.83,1315.5 1948.5,1315.5C 1925.48,1387.19 1894.15,1454.86 1854.5,1518.5C 1713.83,1518.5 1573.17,1518.5 1432.5,1518.5C 1432.67,1342.5 1432.5,1166.5 1432,990.5C 1287.99,1134.68 1143.82,1278.68 999.5,1422.5C 855.146,1278.81 711.146,1134.81 567.5,990.5C 567.44,989.957 567.107,989.624 566.5,989.5C 565.5,1165.83 565.167,1342.17 565.5,1518.5C 425.167,1518.5 284.833,1518.5 144.5,1518.5C 104.849,1454.86 73.5161,1387.19 50.5,1315.5C 150.167,1315.5 249.833,1315.5 349.5,1315.5C 350.167,1035.83 350.833,756.167 351.5,476.5 Z"/></g>
<g><path style="opacity:1" fill="#ededed" d="M 567.5,990.5 C 566.5,1166.33 566.167,1342.33 566.5,1518.5C 566.167,1518.5 565.833,1518.5 565.5,1518.5C 565.167,1342.17 565.5,1165.83 566.5,989.5C 567.107,989.624 567.44,989.957 567.5,990.5 Z"/></g>
<g><path style="opacity:1" fill="#4d4d4d" d="M 567.5,990.5 C 711.146,1134.81 855.146,1278.81 999.5,1422.5C 1143.82,1278.68 1287.99,1134.68 1432,990.5C 1432.5,1166.5 1432.67,1342.5 1432.5,1518.5C 1572.83,1519.17 1713.17,1519.83 1853.5,1520.5C 1728.87,1720.94 1555.53,1861.77 1333.5,1943C 1239.44,1975.91 1142.77,1994.75 1043.5,1999.5C 1014.17,1999.5 984.833,1999.5 955.5,1999.5C 683.653,1983.47 454.153,1877.47 267,1681.5C 221.144,1631.75 180.644,1578.08 145.5,1520.5C 285.833,1519.83 426.167,1519.17 566.5,1518.5C 566.167,1342.33 566.5,1166.33 567.5,990.5 Z"/></g>
<g><path style="opacity:0.688" fill="#fab491" d="M 1999.5,1021.5 C 1999.5,1028.83 1999.5,1036.17 1999.5,1043.5C 1998.83,1049.83 1998.17,1056.17 1997.5,1062.5C 1997.54,1048.65 1998.21,1034.98 1999.5,1021.5 Z"/></g>
<g><path style="opacity:0.533" fill="#fdcbb2" d="M -0.5,1035.5 C 1.22527,1044.61 1.89193,1053.94 1.5,1063.5C 0.833333,1057.17 0.166667,1050.83 -0.5,1044.5C -0.5,1041.5 -0.5,1038.5 -0.5,1035.5 Z"/></g>
<g><path style="opacity:0.741" fill="#fbb897" d="M 1997.5,1065.5 C 1997.26,1077.05 1996.26,1088.38 1994.5,1099.5C 1994.85,1087.96 1995.85,1076.63 1997.5,1065.5 Z"/></g>
<g><path style="opacity:0.49" fill="#fcc4a9" d="M 2.5,1079.5 C 3.98334,1086.28 4.65001,1093.28 4.5,1100.5C 3.24481,1093.7 2.57814,1086.7 2.5,1079.5 Z"/></g>
<g><path style="opacity:0.839" fill="#fcb491" d="M 4.5,1103.5 C 6.43673,1110.91 7.43673,1118.57 7.5,1126.5C 6.00132,1119.04 5.00132,1111.37 4.5,1103.5 Z"/></g>
<g><path style="opacity:0.827" fill="#fbb08b" d="M 1994.5,1103.5 C 1994,1111.37 1993,1119.04 1991.5,1126.5C 1991.56,1118.57 1992.56,1110.91 1994.5,1103.5 Z"/></g>
<g><path style="opacity:0.773" fill="#fbb694" d="M 7.5,1126.5 C 8.88899,1131.27 9.55565,1136.27 9.5,1141.5C 8.11101,1136.73 7.44435,1131.73 7.5,1126.5 Z"/></g>
<g><path style="opacity:0.761" fill="#fab18c" d="M 1991.5,1126.5 C 1991.56,1131.73 1990.89,1136.73 1989.5,1141.5C 1989.44,1136.27 1990.11,1131.27 1991.5,1126.5 Z"/></g>
<g><path style="opacity:1" fill="#f69a6c" d="M 49.5,1313.5 C 149.43,1314.5 249.43,1314.83 349.5,1314.5C 349.5,1314.83 349.5,1315.17 349.5,1315.5C 249.833,1315.5 150.167,1315.5 50.5,1315.5C 49.6618,1315.16 49.3284,1314.49 49.5,1313.5 Z"/></g>
<g><path style="opacity:1" fill="#f69a6c" d="M 1949.5,1313.5 C 1949.67,1314.49 1949.34,1315.16 1948.5,1315.5C 1848.83,1315.5 1749.17,1315.5 1649.5,1315.5C 1649.5,1315.17 1649.5,1314.83 1649.5,1314.5C 1749.57,1314.83 1849.57,1314.5 1949.5,1313.5 Z"/></g>
<g><path style="opacity:1" fill="#979797" d="M 144.5,1518.5 C 284.833,1518.5 425.167,1518.5 565.5,1518.5C 565.833,1518.5 566.167,1518.5 566.5,1518.5C 426.167,1519.17 285.833,1519.83 145.5,1520.5C 144.662,1520.16 144.328,1519.49 144.5,1518.5 Z"/></g>
<g><path style="opacity:1" fill="#949494" d="M 1432.5,1518.5 C 1573.17,1518.5 1713.83,1518.5 1854.5,1518.5C 1854.67,1519.49 1854.34,1520.16 1853.5,1520.5C 1713.17,1519.83 1572.83,1519.17 1432.5,1518.5 Z"/></g>
</svg>
