<?xml version="1.0" encoding="UTF-8"?>
<!DOCTYPE svg PUBLIC "-//W3C//DTD SVG 1.1//EN" "http://www.w3.org/Graphics/SVG/1.1/DTD/svg11.dtd">
<svg xmlns="http://www.w3.org/2000/svg" version="1.1" width="2000px" height="2000px" style="shape-rendering:geometricPrecision; text-rendering:geometricPrecision; image-rendering:optimizeQuality; fill-rule:evenodd; clip-rule:evenodd" xmlns:xlink="http://www.w3.org/1999/xlink">
<g><path style="opacity:0.997" fill="#22282e" d="M 2.5,172.5 C 99.3325,171.334 196.332,171.168 293.5,172C 448.472,324.639 603.139,477.639 757.5,631C 852.586,714.524 962.253,742.524 1086.5,715C 1147.62,698.788 1200.95,669.122 1246.5,626C 1399.19,474.305 1552.19,322.972 1705.5,172C 1802.5,171.333 1899.5,171.333 1996.5,172C 1796.17,370.333 1595.83,568.667 1395.5,767C 1268.02,888.503 1116.02,941.503 939.5,926C 808.962,911.053 696.962,858.053 603.5,767C 403.299,568.632 202.965,370.465 2.5,172.5 Z"/></g>
<g><path style="opacity:0.997" fill="#22282e" d="M 1999.5,1826.5 C 1999.5,1826.83 1999.5,1827.17 1999.5,1827.5C 1902.5,1827.67 1805.5,1827.5 1708.5,1827C 1554.5,1674.33 1400.5,1521.67 1246.5,1369C 1158.88,1288.36 1055.88,1257.03 937.5,1275C 870.968,1287.1 812.634,1315.44 762.5,1360C 604.861,1515.31 447.528,1670.97 290.5,1827C 193.501,1827.5 96.5006,1827.67 -0.5,1827.5C -0.5,1827.17 -0.5,1826.83 -0.5,1826.5C 205.632,1622.87 411.632,1419.04 617.5,1215C 739.019,1106.16 881.685,1057.16 1045.5,1068C 1174.42,1079.49 1286.42,1128.49 1381.5,1215C 1587.37,1419.04 1793.37,1622.87 1999.5,1826.5 Z"/></g>
</svg>
