<?xml version="1.0" encoding="UTF-8"?>
<!DOCTYPE svg PUBLIC "-//W3C//DTD SVG 1.1//EN" "http://www.w3.org/Graphics/SVG/1.1/DTD/svg11.dtd">
<svg xmlns="http://www.w3.org/2000/svg" version="1.1" width="512px" height="345px" style="shape-rendering:geometricPrecision; text-rendering:geometricPrecision; image-rendering:optimizeQuality; fill-rule:evenodd; clip-rule:evenodd" xmlns:xlink="http://www.w3.org/1999/xlink">
<g><path style="opacity:0.924" fill="#020100" d="M 252.5,-0.5 C 254.833,-0.5 257.167,-0.5 259.5,-0.5C 262.794,4.84712 265.628,10.5138 268,16.5C 270.717,20.8844 274.384,24.2177 279,26.5C 281.705,32.5944 279.872,36.761 273.5,39C 267.992,44.8455 264.158,51.6788 262,59.5C 257.368,63.6976 253.035,63.3643 249,58.5C 246.76,48.0033 241.094,40.0033 232,34.5C 230.29,28.5308 232.457,24.6974 238.5,23C 243.878,17.5528 247.378,11.0528 249,3.5C 250.376,2.29493 251.542,0.961599 252.5,-0.5 Z"/></g>
<g><path style="opacity:0.948" fill="#010000" d="M 125.5,18.5 C 130.447,17.6276 134.613,18.9609 138,22.5C 140.953,32.7228 145.787,41.8894 152.5,50C 168.5,58.6667 168.5,67.3333 152.5,76C 145.787,84.1106 140.953,93.2772 138,103.5C 132.942,108.383 127.609,108.716 122,104.5C 119.39,97.3359 116.39,90.3359 113,83.5C 108.93,77.5957 103.763,72.929 97.5,69.5C 94.8333,65.1667 94.8333,60.8333 97.5,56.5C 102.725,53.7798 107.225,50.1132 111,45.5C 115.63,37.9453 119.296,29.9453 122,21.5C 123.518,20.8366 124.685,19.8366 125.5,18.5 Z"/></g>
<g><path style="opacity:1" fill="#f0c067" d="M 261.5,27.5 C 258.337,31.1559 255.671,35.1559 253.5,39.5C 251.567,37.0626 249.4,34.7293 247,32.5C 246.333,31.5 246.333,30.5 247,29.5C 250.79,26.5469 253.623,22.8803 255.5,18.5C 258.252,21.0044 260.252,24.0044 261.5,27.5 Z"/></g>
<g><path style="opacity:1" fill="#f2ad3c" d="M 261.5,27.5 C 262.962,28.4577 264.295,29.6244 265.5,31C 261.95,34.8826 258.783,39.0493 256,43.5C 254.905,42.3066 254.072,40.9733 253.5,39.5C 255.671,35.1559 258.337,31.1559 261.5,27.5 Z"/></g>
<g><path style="opacity:1" fill="#f4c267" d="M 138.5,58.5 C 133.283,63.2517 129.283,68.9184 126.5,75.5C 123.443,70.9339 119.776,66.7672 115.5,63C 121.419,57.6494 126.253,51.4828 130,44.5C 132.689,49.3329 135.522,53.9996 138.5,58.5 Z"/></g>
<g><path style="opacity:0.919" fill="#000000" d="M 348.5,53.5 C 357.152,54.0872 360.485,58.7539 358.5,67.5C 362.308,67.1632 365.974,67.6632 369.5,69C 373.763,79.5887 370.096,84.422 358.5,83.5C 359.266,95.5155 354.432,98.8488 344,93.5C 342.684,90.3117 342.184,86.9783 342.5,83.5C 330.856,84.3797 327.189,79.5464 331.5,69C 335.026,67.6632 338.692,67.1632 342.5,67.5C 342.335,64.4816 342.502,61.4816 343,58.5C 344.107,55.887 345.94,54.2203 348.5,53.5 Z"/></g>
<g><path style="opacity:1" fill="#f1ab3b" d="M 138.5,58.5 C 140.296,59.7927 141.963,61.2927 143.5,63C 137.9,68.3687 133.4,74.5354 130,81.5C 128.569,79.6365 127.403,77.6365 126.5,75.5C 129.283,68.9184 133.283,63.2517 138.5,58.5 Z"/></g>
<g><path style="opacity:0.975" fill="#010000" d="M 407.5,200.5 C 399.753,200.382 396.086,196.382 396.5,188.5C 357.33,188.168 318.33,188.501 279.5,189.5C 273.417,209.494 268.083,229.827 263.5,250.5C 313.002,251.831 362.668,251.831 412.5,250.5C 412.376,249.893 412.043,249.56 411.5,249.5C 410.865,246.507 410.699,243.507 411,240.5C 412.107,237.887 413.94,236.22 416.5,235.5C 419.272,235.22 421.772,235.887 424,237.5C 425.705,241.618 427.205,245.785 428.5,250C 446.833,250.333 465.167,250.667 483.5,251C 488.573,252.406 492.073,255.572 494,260.5C 499.393,282.415 505.226,304.081 511.5,325.5C 511.5,329.167 511.5,332.833 511.5,336.5C 510.442,337.6 509.608,338.934 509,340.5C 506.985,341.697 505.151,343.03 503.5,344.5C 448.833,344.5 394.167,344.5 339.5,344.5C 338.5,343.167 337.5,343.167 336.5,344.5C 310.833,344.5 285.167,344.5 259.5,344.5C 257.295,342.637 255.961,340.303 255.5,337.5C 255.635,333.373 257.635,330.706 261.5,329.5C 283.833,329.5 306.167,329.5 328.5,329.5C 323.654,308.783 318.487,288.116 313,267.5C 304.585,266.517 296.085,266.183 287.5,266.5C 256.826,266.167 226.159,266.5 195.5,267.5C 190.027,287.059 185.027,306.725 180.5,326.5C 179.596,327.209 179.263,328.209 179.5,329.5C 189.833,329.5 200.167,329.5 210.5,329.5C 213.933,331.01 215.933,333.676 216.5,337.5C 215.956,340.7 214.29,343.033 211.5,344.5C 198.5,344.5 185.5,344.5 172.5,344.5C 172.167,343.167 171.833,343.167 171.5,344.5C 116.833,344.5 62.1667,344.5 7.5,344.5C 6.01307,343.196 4.3464,342.03 2.5,341C 1.60064,339.348 0.60064,337.848 -0.5,336.5C -0.5,332.833 -0.5,329.167 -0.5,325.5C 5.82379,302.55 12.3238,279.55 19,256.5C 21.1005,253.533 23.9338,251.7 27.5,251C 45.8333,250.667 64.1667,250.333 82.5,250C 88.9433,225.727 95.7766,201.561 103,177.5C 104.579,175.959 106.413,174.792 108.5,174C 127.176,173.833 145.842,173.333 164.5,172.5C 170.821,149.549 176.988,126.549 183,103.5C 184.598,98.9014 187.765,96.0681 192.5,95C 235.559,94.0164 278.559,94.3497 321.5,96C 325.58,98.3125 328.08,101.812 329,106.5C 334.523,128.592 340.356,150.592 346.5,172.5C 365.158,173.333 383.824,173.833 402.5,174C 408.261,176.996 411.428,181.829 412,188.5C 413.689,193.823 412.189,197.823 407.5,200.5 Z M 247.5,189.5 C 252.65,188.349 257.984,188.183 263.5,189C 260.941,198.18 258.274,207.346 255.5,216.5C 252.796,207.398 250.129,198.398 247.5,189.5 Z M 164.5,266.5 C 169.5,266.5 174.5,266.5 179.5,266.5C 177.161,276.19 174.661,285.857 172,295.5C 169.339,285.857 166.839,276.19 164.5,266.5 Z M 328.5,266.5 C 334.5,266.5 340.5,266.5 346.5,266.5C 343.827,277.524 340.994,288.524 338,299.5C 334.375,288.673 331.209,277.673 328.5,266.5 Z"/></g>
<g><path style="opacity:0.946" fill="#010000" d="M 444.5,106.5 C 448.634,105.943 452.301,106.943 455.5,109.5C 458.406,119.814 463.739,128.647 471.5,136C 478.494,139.154 480.661,144.321 478,151.5C 467.078,158.651 460.078,168.651 457,181.5C 451,188.167 445,188.167 439,181.5C 436.787,172.571 432.62,164.738 426.5,158C 417.308,154.407 414.808,148.241 419,139.5C 429.563,133.073 436.23,123.74 439,111.5C 440.406,109.256 442.239,107.59 444.5,106.5 Z"/></g>
<g><path style="opacity:1" fill="#f6a042" d="M 288.5,110.5 C 294.143,131.072 299.476,151.739 304.5,172.5C 263.33,172.832 222.33,172.499 181.5,171.5C 186.353,151.089 191.353,130.755 196.5,110.5C 227.167,110.5 257.833,110.5 288.5,110.5 Z"/></g>
<g><path style="opacity:1" fill="#e88539" d="M 288.5,110.5 C 297.167,110.5 305.833,110.5 314.5,110.5C 319.652,130.775 324.652,151.109 329.5,171.5C 321.35,172.493 313.017,172.826 304.5,172.5C 299.476,151.739 294.143,131.072 288.5,110.5 Z"/></g>
<g><path style="opacity:1" fill="#f4c267" d="M 455.5,142.5 C 453.983,142.511 452.816,143.177 452,144.5C 449.173,148.155 447.007,152.155 445.5,156.5C 442.853,153.236 440.186,149.903 437.5,146.5C 441.253,142.244 444.42,137.577 447,132.5C 447.667,131.167 448.333,131.167 449,132.5C 450.928,136.032 453.095,139.366 455.5,142.5 Z"/></g>
<g><path style="opacity:1" fill="#f0aa3b" d="M 455.5,142.5 C 456.476,143.815 457.476,145.148 458.5,146.5C 454.416,151.085 450.916,156.085 448,161.5C 447.153,159.807 446.32,158.14 445.5,156.5C 447.007,152.155 449.173,148.155 452,144.5C 452.816,143.177 453.983,142.511 455.5,142.5 Z"/></g>
<g><path style="opacity:1" fill="#71481e" d="M 181.5,171.5 C 222.33,172.499 263.33,172.832 304.5,172.5C 313.017,172.826 321.35,172.493 329.5,171.5C 330.043,171.56 330.376,171.893 330.5,172.5C 280.5,173.833 230.5,173.833 180.5,172.5C 180.624,171.893 180.957,171.56 181.5,171.5 Z"/></g>
<g><path style="opacity:0.92" fill="#000000" d="M 51.5,184.5 C 59.9967,185.186 63.33,189.852 61.5,198.5C 65.3076,198.163 68.9743,198.663 72.5,200C 76.7509,210.599 73.0843,215.432 61.5,214.5C 62.2658,226.515 57.4325,229.849 47,224.5C 45.6842,221.312 45.1842,217.978 45.5,214.5C 33.8559,215.38 30.1892,210.546 34.5,200C 38.0257,198.663 41.6924,198.163 45.5,198.5C 45.3354,195.482 45.502,192.482 46,189.5C 47.1065,186.887 48.9399,185.22 51.5,184.5 Z"/></g>
<g><path style="opacity:1" fill="#f6a042" d="M 222.5,250.5 C 181.33,250.832 140.33,250.499 99.5,249.5C 104.029,229.717 109.029,210.05 114.5,190.5C 145.095,189.342 175.762,189.175 206.5,190C 212.069,210.109 217.402,230.275 222.5,250.5 Z"/></g>
<g><path style="opacity:1" fill="#e78539" d="M 247.5,250.5 C 239.167,250.5 230.833,250.5 222.5,250.5C 217.402,230.275 212.069,210.109 206.5,190C 175.762,189.175 145.095,189.342 114.5,190.5C 133.655,189.167 153.155,188.5 173,188.5C 192.5,188.667 212,188.833 231.5,189C 237.527,209.272 242.86,229.772 247.5,250.5 Z"/></g>
<g><path style="opacity:1" fill="#f6a042" d="M 279.5,189.5 C 310.167,189.5 340.833,189.5 371.5,189.5C 376.294,209.883 381.294,230.217 386.5,250.5C 345.5,250.5 304.5,250.5 263.5,250.5C 268.083,229.827 273.417,209.494 279.5,189.5 Z"/></g>
<g><path style="opacity:1" fill="#e98739" d="M 279.5,189.5 C 318.33,188.501 357.33,188.168 396.5,188.5C 396.086,196.382 399.753,200.382 407.5,200.5C 410.344,212.209 413.344,223.876 416.5,235.5C 413.94,236.22 412.107,237.887 411,240.5C 410.699,243.507 410.865,246.507 411.5,249.5C 403.35,250.493 395.017,250.826 386.5,250.5C 381.294,230.217 376.294,209.883 371.5,189.5C 340.833,189.5 310.167,189.5 279.5,189.5 Z"/></g>
<g><path style="opacity:1" fill="#c37d34" d="M 99.5,249.5 C 140.33,250.499 181.33,250.832 222.5,250.5C 230.833,250.5 239.167,250.5 247.5,250.5C 197.998,251.831 148.332,251.831 98.5,250.5C 98.6236,249.893 98.9569,249.56 99.5,249.5 Z"/></g>
<g><path style="opacity:1" fill="#d38638" d="M 411.5,249.5 C 412.043,249.56 412.376,249.893 412.5,250.5C 362.668,251.831 313.002,251.831 263.5,250.5C 304.5,250.5 345.5,250.5 386.5,250.5C 395.017,250.826 403.35,250.493 411.5,249.5 Z"/></g>
<g><path style="opacity:1" fill="#f6a042" d="M 123.5,266.5 C 128.81,287.072 133.81,307.739 138.5,328.5C 97.5,328.5 56.5,328.5 15.5,328.5C 20.528,307.72 25.8613,287.054 31.5,266.5C 62.1667,266.5 92.8333,266.5 123.5,266.5 Z"/></g>
<g><path style="opacity:1" fill="#e38338" d="M 123.5,266.5 C 131.86,266.169 140.193,266.502 148.5,267.5C 153.99,287.795 159.324,308.128 164.5,328.5C 114.668,329.831 65.0017,329.831 15.5,328.5C 56.5,328.5 97.5,328.5 138.5,328.5C 133.81,307.739 128.81,287.072 123.5,266.5 Z"/></g>
<g><path style="opacity:0.995" fill="#f6a042" d="M 287.5,266.5 C 292.673,286.857 298.006,307.19 303.5,327.5C 289.339,328.167 275.339,328.833 261.5,329.5C 257.635,330.706 255.635,333.373 255.5,337.5C 242.5,337.5 229.5,337.5 216.5,337.5C 215.933,333.676 213.933,331.01 210.5,329.5C 200.292,329.158 190.292,328.158 180.5,326.5C 185.027,306.725 190.027,287.059 195.5,267.5C 226.159,266.5 256.826,266.167 287.5,266.5 Z"/></g>
<g><path style="opacity:1" fill="#e68438" d="M 287.5,266.5 C 296.085,266.183 304.585,266.517 313,267.5C 318.487,288.116 323.654,308.783 328.5,329.5C 306.167,329.5 283.833,329.5 261.5,329.5C 275.339,328.833 289.339,328.167 303.5,327.5C 298.006,307.19 292.673,286.857 287.5,266.5 Z"/></g>
<g><path style="opacity:1" fill="#f6a042" d="M 454.5,266.5 C 459.836,287.176 465.169,307.842 470.5,328.5C 429.5,328.5 388.5,328.5 347.5,328.5C 347.5,327.5 347.5,326.5 347.5,325.5C 352.181,306.11 357.181,286.777 362.5,267.5C 393.159,266.5 423.826,266.167 454.5,266.5 Z"/></g>
<g><path style="opacity:1" fill="#e88539" d="M 454.5,266.5 C 462.833,266.5 471.167,266.5 479.5,266.5C 485.139,287.054 490.472,307.72 495.5,328.5C 487.167,328.5 478.833,328.5 470.5,328.5C 465.169,307.842 459.836,287.176 454.5,266.5 Z"/></g>
<g><path style="opacity:1" fill="#a3692c" d="M 180.5,326.5 C 190.292,328.158 200.292,329.158 210.5,329.5C 200.167,329.5 189.833,329.5 179.5,329.5C 179.263,328.209 179.596,327.209 180.5,326.5 Z"/></g>
<g><path style="opacity:1" fill="#a3682c" d="M 347.5,325.5 C 347.5,326.5 347.5,327.5 347.5,328.5C 388.5,328.5 429.5,328.5 470.5,328.5C 478.833,328.5 487.167,328.5 495.5,328.5C 446.003,329.499 396.336,329.832 346.5,329.5C 346.232,327.901 346.566,326.568 347.5,325.5 Z"/></g>
</svg>
